<svg id="Layer_1" data-name="Layer 1" xmlns="http://www.w3.org/2000/svg" viewBox="0 0 25 25"><defs><style>.cls-1{fill:#006892;}.cls-2{fill:#ef535f;}.cls-3{fill:#addcf6;}.cls-4{fill:#e6f1ea;}</style></defs><title>Inonite _export_25px</title><path class="cls-1" d="M15.11,8a7.4,7.4,0,0,1,9,10.11.69.69,0,0,0,0,.45c.29,1,.6,2,.9,3a.67.67,0,0,1-.11.73.62.62,0,0,1-.7.09c-.94-.29-1.89-.57-2.83-.84a.81.81,0,0,0-.51.05,7.13,7.13,0,0,1-4.59.77,7.29,7.29,0,0,1-5.8-4.76c-.09-.22-.16-.45-.24-.69L10,17a7.44,7.44,0,0,1-5.84-.53.53.53,0,0,0-.39,0c-1,.27-1.91.56-2.86.85-.26.07-.5.12-.71-.09a.66.66,0,0,1-.11-.73l.9-3A.65.65,0,0,0,1,13a7.3,7.3,0,0,1-.5-4.65,7.37,7.37,0,0,1,9-5.62,7.29,7.29,0,0,1,5.2,4.73c.07.19.12.38.19.58Zm8,11.29a2.47,2.47,0,0,1,.07-1.92,6.22,6.22,0,1,0-2.63,3.09,1,1,0,0,1,.85-.09l2,.61.21,0C23.4,20.41,23.27,19.83,23.06,19.28ZM3.67,15.23a1,1,0,0,1,.85.1,6,6,0,0,0,5.16.51c.21-.07.27-.16.26-.39a7.45,7.45,0,0,1,3.6-6.74.33.33,0,0,0,.17-.44A6.25,6.25,0,1,0,2,12.59a1.33,1.33,0,0,1,.08,1.07c-.24.72-.45,1.45-.69,2.26C2.21,15.68,3,15.47,3.67,15.23Z"/><path class="cls-2" d="M23.37,21l-2-.61a1,1,0,0,0-.85.09,6.25,6.25,0,0,1-8.73-8.23,6.24,6.24,0,0,1,11.36,5.14,2.47,2.47,0,0,0-.07,1.92c.21.55.34,1.13.52,1.73Z"/><path class="cls-3" d="M1.41,15.92c.8-.24,1.54-.45,2.26-.69a1,1,0,0,1,.85.1,6,6,0,0,0,5.16.51c.21-.07.27-.16.26-.39a7.45,7.45,0,0,1,3.6-6.74.33.33,0,0,0,.17-.44A6.25,6.25,0,1,0,2,12.59a1.33,1.33,0,0,1,.08,1.07C1.86,14.38,1.65,15.11,1.41,15.92Z"/><path class="cls-1" d="M7.15,9.9a.57.57,0,1,0,.58-.57A.57.57,0,0,0,7.15,9.9Z"/><path class="cls-1" d="M10,9.89a.58.58,0,0,0,.57.58.57.57,0,0,0,0-1.14A.59.59,0,0,0,10,9.89Z"/><path class="cls-1" d="M5.45,9.85a.6.6,0,0,0-.63-.52.57.57,0,0,0,.09,1.14A.58.58,0,0,0,5.45,9.85Z"/><path class="cls-4" d="M15,15.43l-.11-1.74c0-.34,0-.59,0-.73a.67.67,0,0,1,.16-.47.54.54,0,0,1,.42-.17.42.42,0,0,1,.42.21,1.5,1.5,0,0,1,.1.63c0,.16,0,.32,0,.48l-.16,1.8a1.42,1.42,0,0,1-.11.49.29.29,0,0,1-.28.17.28.28,0,0,1-.27-.17A1.62,1.62,0,0,1,15,15.43Zm.41,2.39a.6.6,0,0,1-.39-.14.51.51,0,0,1-.17-.4.55.55,0,0,1,.94-.39.53.53,0,0,1,.16.39.51.51,0,0,1-.16.4A.59.59,0,0,1,15.36,17.82Z"/><path class="cls-4" d="M16.92,13.84a1.28,1.28,0,0,1,.22-.7,1.7,1.7,0,0,1,.65-.59,2,2,0,0,1,1-.23,2.12,2.12,0,0,1,.93.19,1.57,1.57,0,0,1,.63.53,1.36,1.36,0,0,1,.22.73,1.2,1.2,0,0,1-.13.54,1.5,1.5,0,0,1-.3.4l-.62.57a1.88,1.88,0,0,0-.2.2,1.12,1.12,0,0,0-.11.15.88.88,0,0,0-.05.15,1.15,1.15,0,0,0-.06.24.41.41,0,0,1-.44.38.43.43,0,0,1-.31-.12.48.48,0,0,1-.13-.37,1.44,1.44,0,0,1,.09-.53,1.3,1.3,0,0,1,.25-.39c.11-.11.25-.25.42-.4l.34-.31a1,1,0,0,0,.18-.23.64.64,0,0,0,.07-.28.68.68,0,0,0-.22-.49.8.8,0,0,0-.56-.2.77.77,0,0,0-.59.21,1.7,1.7,0,0,0-.32.59.48.48,0,0,1-.47.41.48.48,0,0,1-.34-.14A.46.46,0,0,1,16.92,13.84Zm1.77,4a.59.59,0,0,1-.38-.14.51.51,0,0,1-.17-.4.53.53,0,0,1,.16-.39.57.57,0,0,1,.39-.16.55.55,0,0,1,.55.55.51.51,0,0,1-.17.4A.57.57,0,0,1,18.69,17.82Z"/></svg>