<svg id="Layer_1" data-name="Layer 1" xmlns="http://www.w3.org/2000/svg" viewBox="0 0 25 25"><defs><style>.cls-1{fill:#006892;}.cls-2{fill:#addcf6;}.cls-3{fill:#e6f1ea;}.cls-4{fill:#f7aeab;}.cls-5{fill:#ef535f;}</style></defs><title>Inonite _export_25px</title><path class="cls-1" d="M17.34,24.93c0-.75,0-1.49,0-2.22a.79.79,0,0,0-.29-.69,2.72,2.72,0,0,1-.93-2.16,2.84,2.84,0,0,0-.39-1.61,5,5,0,0,1-.3-.62,1.06,1.06,0,0,1,1-1.54,2.28,2.28,0,0,1,1.27.39V15.3h-.27c-.88,0-1.76,0-2.64,0-.24,0-.3.07-.29.3,0,.77,0,1.55,0,2.32a2.09,2.09,0,0,1-2.22,2.24c-2,0-3.94,0-5.92,0a.33.33,0,0,0-.37.24,6,6,0,0,1-.29.55h.76l0,4L.89,25c0-.1,0-.19,0-.28,0-1.13,0-2.26,0-3.38,0-.35,0-.35.33-.35h.23c0-.05,0-.1,0-.13A22.56,22.56,0,0,1,.19,16.44a4.29,4.29,0,0,1,.92-4,7.87,7.87,0,0,1,1-.85c.31-.25.63-.48,1-.7a.44.44,0,0,0,.21-.41c0-2,0-4,0-5.95a2.08,2.08,0,0,1,2.1-2.12c1.87,0,3.74,0,5.6,0,.27,0,.35-.07.34-.34,0-.61,0-1.23,0-1.85a1.65,1.65,0,0,1,0-.21L24.08,0V.33q0,7.15.05,14.3a.43.43,0,0,0,.23.44,1.08,1.08,0,0,1,.57,1c0,1.3,0,2.61,0,3.91a2.65,2.65,0,0,1-.88,2,.9.9,0,0,0-.32.81c0,.71,0,1.42,0,2.15ZM12.06.83l0,13.66,5.6,0,0-4h-4.8V9.7l9.59,0v.79H20.1v2.85a1.27,1.27,0,0,1,1.57.81,1.35,1.35,0,0,1,1.65.75v-.26q0-6.75,0-13.5c0-.26-.06-.33-.33-.33l-10.6,0ZM22.54,19.29V19c0-1.18,0-2.36,0-3.54,0-.23,0-.43-.28-.51s-.52.12-.52.46c0,1.21,0,2.43,0,3.64v.29h-.8V19c0-1.41,0-2.82,0-4.23a1.48,1.48,0,0,0,0-.21.4.4,0,1,0-.79,0c0,1.49,0,3,0,4.47v.33a3.82,3.82,0,0,0-.48,0c-.27,0-.34-.06-.34-.33,0-2.64,0-5.29,0-7.93,0-.4-.14-.59-.41-.59s-.39.19-.39.6l0,7.08v.33h-.82c0-.13,0-.24,0-.36a1.2,1.2,0,0,0-1.31-1.21c-.25,0-.34.16-.24.39a6,6,0,0,0,.28.57,3.22,3.22,0,0,1,.48,1.76,2.21,2.21,0,0,0,.86,2,.47.47,0,0,0,.29.12H23a.32.32,0,0,0,.22-.06A2.17,2.17,0,0,0,24.14,20c0-1.28,0-2.56,0-3.83a.41.41,0,0,0-.41-.46c-.23,0-.38.18-.38.47,0,.68,0,1.36,0,2v1.09ZM4.06,14A1.19,1.19,0,0,1,4.27,14c.56-.08.63-.43.59-.92s0-1.13,0-1.7l5.62,0,0,4H6.2l.08.77,7.39,0V15.3H11.29v-.37q0-4.47,0-8.93c0-.35,0-.35-.34-.35l-6.55,0C4.11,5.68,4,5.73,4,6q0,3.86,0,7.71Zm-.81-2.24c-.28.2-.51.35-.71.52a6.88,6.88,0,0,0-1,.89,3.29,3.29,0,0,0-.63,2.87,22.11,22.11,0,0,0,1.31,4.69.32.32,0,0,0,.34.23c.63,0,1.25,0,1.88,0a.45.45,0,0,0,.32-.16,3.68,3.68,0,0,0,.87-2.72c-.07-.81-.16-1.62-.25-2.44,0-.36-.08-.73-.11-1.09a1,1,0,0,0-1.21,1.27c.12.62.25,1.22.37,1.84a.38.38,0,0,1,0,.3c-.41.43-.83.84-1.23,1.24l-.58-.55c.28-.27.54-.56.83-.82a.45.45,0,0,0,.14-.51,10.86,10.86,0,0,1-.32-2.84c0-.76,0-1.52,0-2.27Zm10.43,5.15L6.36,17l.09.78H9.66v.8l-3.18,0-.09.79h.23l5.73,0a2,2,0,0,0,.34,0,1.18,1.18,0,0,0,1-1C13.71,17.86,13.68,17.41,13.68,16.94ZM11.23,4.84V3.27h-.09c-2,0-4,0-5.94,0A1.2,1.2,0,0,0,4.07,4.86Zm-9.56,17c0,.72,0,1.42,0,2.12,0,.22.06.29.28.29,1.17,0,2.33,0,3.49,0l.23,0V21.78Zm8-7.3V12.13h-4c0,.54,0,1.06,0,1.57a.25.25,0,0,0,0,.12l.51.69Zm13.29,8-4.78,0v1.57l4.77,0Z"/><path class="cls-2" d="M12.06.83h.3L23,.79c.27,0,.33.07.33.33q0,6.75,0,13.5v.26a1.35,1.35,0,0,0-1.65-.75,1.27,1.27,0,0,0-1.57-.81V10.47h2.38V9.67l-9.59,0v.77h4.8l0,4-5.6,0Zm5.59,6.41a2.7,2.7,0,0,0-1.21-2.9,1.64,1.64,0,0,0-.08-2.27A1.59,1.59,0,0,0,14.24,2a1.49,1.49,0,0,0-.56,1,1.66,1.66,0,0,0,.4,1.41,2.66,2.66,0,0,0-1.19,2.91ZM12.88,8.87l9.6,0V8.05l-9.59,0ZM22.48,4c0-.73,0-1.43,0-2.13,0-.22-.06-.28-.28-.28l-3.48,0-.24,0V4ZM12.9,13.69l4,0V11.29h-4Zm5.6-8.06,4,0V4.82h-4Zm0,1.6h4V6.44l-4,0Z"/><path class="cls-3" d="M22.54,19.29h.81V18.19c0-.68,0-1.36,0-2,0-.29.15-.46.38-.47a.41.41,0,0,1,.41.46c0,1.27,0,2.55,0,3.83a2.17,2.17,0,0,1-.91,1.68.32.32,0,0,1-.22.06H18.07a.47.47,0,0,1-.29-.12,2.21,2.21,0,0,1-.86-2,3.22,3.22,0,0,0-.48-1.76,6,6,0,0,1-.28-.57c-.1-.23,0-.37.24-.39a1.2,1.2,0,0,1,1.31,1.21c0,.12,0,.23,0,.36h.82v-.33l0-7.08c0-.41.12-.6.39-.6s.4.19.41.59c0,2.64,0,5.29,0,7.93,0,.27.07.37.34.33a3.82,3.82,0,0,1,.48,0V19c0-1.49,0-3,0-4.47a.4.4,0,1,1,.79,0,1.48,1.48,0,0,1,0,.21c0,1.41,0,2.82,0,4.23v.34h.8V19c0-1.21,0-2.43,0-3.64,0-.34.24-.55.52-.46s.28.28.28.51c0,1.18,0,2.36,0,3.54Z"/><path class="cls-4" d="M4.06,14v-.31Q4,9.87,4,6c0-.28.09-.33.34-.33l6.55,0c.34,0,.34,0,.34.35q0,4.46,0,8.93v.37h2.38v.78l-7.39,0-.08-.77h4.28l0-4-5.62,0c0,.57,0,1.14,0,1.7s0,.84-.59.92A1.19,1.19,0,0,0,4.06,14Zm6.39-3.54v-4l-5.59,0v4Z"/><path class="cls-3" d="M3.25,11.79v.43c0,.75,0,1.51,0,2.27a10.86,10.86,0,0,0,.32,2.84.45.45,0,0,1-.14.51c-.29.26-.55.55-.83.82l.58.55c.4-.4.82-.81,1.23-1.24a.38.38,0,0,0,0-.3c-.12-.62-.25-1.22-.37-1.84A1,1,0,0,1,5.3,14.56c0,.36.07.73.11,1.09.09.82.18,1.63.25,2.44a3.68,3.68,0,0,1-.87,2.72.45.45,0,0,1-.32.16c-.63,0-1.25,0-1.88,0a.32.32,0,0,1-.34-.23A22.11,22.11,0,0,1,.94,16.07a3.29,3.29,0,0,1,.63-2.87,6.88,6.88,0,0,1,1-.89C2.74,12.14,3,12,3.25,11.79Z"/><path class="cls-4" d="M13.68,16.94c0,.47,0,.92,0,1.36a1.18,1.18,0,0,1-1,1,2,2,0,0,1-.34,0l-5.73,0H6.4l.09-.79,3.18,0v-.8H6.45L6.36,17Z"/><path class="cls-3" d="M11.23,4.84l-7.16,0A1.2,1.2,0,0,1,5.19,3.28c2,0,4,0,5.94,0h.09Z"/><path class="cls-5" d="M1.67,21.8l4,0v2.39l-.23,0c-1.16,0-2.32,0-3.49,0-.22,0-.28-.07-.28-.29C1.68,23.22,1.67,22.52,1.67,21.8Z"/><path class="cls-2" d="M9.65,14.5l-3.43,0-.51-.69a.25.25,0,0,1,0-.12c0-.51,0-1,0-1.57h4Z"/><path class="cls-5" d="M22.94,22.54v1.57l-4.77,0V22.56Z"/><path class="cls-5" d="M17.65,7.24l-4.76,0a2.66,2.66,0,0,1,1.19-2.91,1.66,1.66,0,0,1-.4-1.41A1.49,1.49,0,0,1,14.24,2a1.59,1.59,0,0,1,2.12.08,1.64,1.64,0,0,1,.08,2.27A2.7,2.7,0,0,1,17.65,7.24Zm-.79-.8A1.55,1.55,0,0,0,15.91,5a1.53,1.53,0,0,0-1.66.23,1.44,1.44,0,0,0-.57,1.24ZM15.27,4a.8.8,0,0,0,.79-.82.8.8,0,1,0-.79.82Z"/><path class="cls-1" d="M12.88,8.87V8.08l9.59,0v.78Z"/><path class="cls-5" d="M22.48,4h-4V1.63l.24,0,3.48,0c.22,0,.28.06.28.28C22.47,2.57,22.48,3.27,22.48,4Zm-3.19-.8h2.36V2.43H19.28Z"/><path class="cls-5" d="M12.9,13.69V11.3h4v2.38Zm.8-.82h2.38v-.75H13.69Z"/><path class="cls-5" d="M18.5,5.63v-.8h4v.79Z"/><path class="cls-5" d="M18.5,7.23V6.46l4,0v.78Z"/><path class="cls-1" d="M10.45,10.49l-5.59,0v-4l5.59,0Zm-.82-3.2-4,0a2.12,2.12,0,0,0,0,.24c0,.63,0,1.26,0,1.9,0,.21.07.27.27.26H9.4l.24,0Z"/><path class="cls-4" d="M16.86,6.44H13.68a1.44,1.44,0,0,1,.57-1.24A1.53,1.53,0,0,1,15.91,5,1.55,1.55,0,0,1,16.86,6.44Z"/><path class="cls-4" d="M15.27,4a.8.8,0,1,1,.79-.82A.8.8,0,0,1,15.27,4Z"/><path class="cls-4" d="M19.29,3.2V2.44h2.37V3.2Z"/><path class="cls-4" d="M13.7,12.87v-.75h2.39v.75Z"/><path class="cls-2" d="M9.63,7.29V9.68l-.24,0H5.91c-.2,0-.27-.05-.27-.26,0-.64,0-1.27,0-1.9a2.12,2.12,0,0,1,0-.24Z"/></svg>