<svg id="Layer_1" data-name="Layer 1" xmlns="http://www.w3.org/2000/svg" viewBox="0 0 25 25"><defs><style>.cls-1{fill:#006892;}.cls-2{fill:#f7aeab;}.cls-3{fill:#addcf6;}</style></defs><title>Inonite _export_25px</title><path class="cls-1" d="M24.48,9.67a.5.5,0,0,1-.42.53c-.22.05-.44.1-.66.13s-.2.09-.23.23c-.06.36-.15.72-.21,1.08a.28.28,0,0,0,.08.21c.17.13.35.24.52.36a.53.53,0,0,1,.18.83c-.39.59-.8,1.18-1.2,1.77a.52.52,0,0,1-.83.15c-.19-.11-.36-.25-.55-.35a.27.27,0,0,0-.23,0c-.32.2-.63.4-.94.62a.27.27,0,0,0-.1.22c0,.24.08.48.12.72a.48.48,0,0,1-.39.59c-.76.16-1.53.3-2.3.44a.48.48,0,0,1-.57-.4c-.06-.24-.08-.48-.15-.71a.3.3,0,0,0-.17-.18c-.37-.09-.75-.17-1.12-.23a.28.28,0,0,0-.22.1c-.14.18-.26.38-.4.57a.49.49,0,0,1-.76.13L12.1,15.23a.51.51,0,0,1-.14-.76c.12-.2.27-.38.38-.59a.26.26,0,0,0,0-.23c-.2-.32-.4-.63-.62-.94a.36.36,0,0,0-.23-.11c-.23,0-.46.09-.69.13a.49.49,0,0,1-.62-.38c-.16-.76-.3-1.53-.43-2.3a.49.49,0,0,1,.41-.58c.24-.05.48-.08.71-.14A.3.3,0,0,0,11,9.15c.08-.35.14-.72.23-1.08a.21.21,0,0,0-.09-.26c-.2-.12-.39-.26-.58-.4a.5.5,0,0,1-.14-.73c.42-.63.85-1.26,1.28-1.88a.5.5,0,0,1,.74-.12c.2.13.39.28.59.4a.22.22,0,0,0,.21,0c.32-.2.63-.42,1-.61a.22.22,0,0,0,.11-.28c-.05-.2-.08-.4-.12-.6a.55.55,0,0,1,.5-.7l2.06-.39A.54.54,0,0,1,17.5,3c0,.2.07.4.1.6a.21.21,0,0,0,.2.2L18.9,4a.26.26,0,0,0,.22-.09c.15-.18.26-.38.4-.57a.5.5,0,0,1,.77-.14c.6.4,1.2.8,1.79,1.21a.53.53,0,0,1,.16.85c-.14.2-.39.4-.39.61s.24.41.37.61.19.31.27.47a.2.2,0,0,0,.26.12L23.32,7a.55.55,0,0,1,.75.49l.39,2A1.68,1.68,0,0,1,24.48,9.67ZM15.32,3.81c0,.23.07.43.11.62.08.41,0,.57-.36.75a5.89,5.89,0,0,0-1.46,1,.51.51,0,0,1-.73,0l-.59-.4-.69,1a.16.16,0,0,0,0,.06l.51.36a.54.54,0,0,1,.23.76A5.58,5.58,0,0,0,12,9.66a.55.55,0,0,1-.52.6l-.66.13.24,1.24.35-.07.36-.06a.53.53,0,0,1,.64.36,5.28,5.28,0,0,0,1,1.46.52.52,0,0,1,.06.75c-.12.19-.25.38-.39.58l1,.72c.15-.21.27-.4.4-.59a.5.5,0,0,1,.64-.24,6.37,6.37,0,0,0,1.87.39c.3,0,.42.15.49.44s.09.47.14.73c.39-.08.77-.14,1.14-.23,0,0,.09-.11.08-.16,0-.21-.08-.41-.11-.62a.47.47,0,0,1,.29-.55,5.76,5.76,0,0,0,1.56-1,.53.53,0,0,1,.72,0l.59.39.71-1-.31-.22a3.62,3.62,0,0,1-.32-.22.5.5,0,0,1-.19-.62A5.91,5.91,0,0,0,22.2,10c0-.32.17-.46.49-.53l.69-.14c-.05-.22-.08-.42-.12-.62s-.08-.39-.13-.61l-.7.12a.52.52,0,0,1-.64-.32,5.76,5.76,0,0,0-1-1.51.52.52,0,0,1,0-.75L21.15,5l-1-.71c-.13.2-.25.37-.37.54a.6.6,0,0,1-.78.26c-.51-.13-1-.26-1.56-.34s-.64-.15-.74-.72c0-.16-.06-.32-.09-.48Z"/><path class="cls-1" d="M4.09,21.84c0-.14,0-.3.07-.47a.19.19,0,0,0-.11-.25c-.23-.12-.44-.26-.67-.38a.31.31,0,0,0-.25,0c-.14.08-.26.2-.4.29A.36.36,0,0,1,2.18,21c-.34-.44-.67-.89-1-1.34a.37.37,0,0,1,.1-.6.61.61,0,0,0,.31-.93c-.07-.15,0-.37-.13-.46s-.31-.07-.48-.09c-.41-.07-.5-.18-.45-.59s.14-1,.22-1.54c0-.27.22-.43.48-.36a.66.66,0,0,0,.91-.44c.21-.44.25-.42,0-.81s-.24-.49.09-.75l1.19-.89c.28-.21.49-.2.67.1a.61.61,0,0,0,.86.3c.52-.17.53-.13.61-.67.06-.35.21-.47.56-.42l1.5.22c.36.06.47.2.41.57s-.08.5.37.77l.19.11c.3.2.3.2.6,0L9.37,13a.36.36,0,0,1,.51,0c.37.48.74,1,1.09,1.47a.34.34,0,0,1-.1.48c-.13.11-.28.2-.4.32a.3.3,0,0,0-.08.22c0,.25.13.5.18.75a.21.21,0,0,0,.21.18l.45.07a.4.4,0,0,1,.35.5c-.07.52-.15,1-.22,1.56,0,.34-.2.46-.54.41-.18,0-.39-.11-.53-.05s-.16.29-.28.42a.58.58,0,0,0,0,.94c.22.23.16.47-.09.66l-1.29.95a.37.37,0,0,1-.6-.09c-.12-.16-.21-.39-.37-.44s-.37.07-.55.12c-.5.13-.5.13-.57.64s-.2.47-.57.42L4.45,22.3A.39.39,0,0,1,4.09,21.84ZM2,19.44l.57.76L3,19.86a.35.35,0,0,1,.47,0,4.32,4.32,0,0,0,1.23.75.4.4,0,0,1,.25.5c0,.15,0,.3-.06.48l.45.08c.47.07.47.07.56-.41,0,0,0-.06,0-.09a.4.4,0,0,1,.35-.35c.45-.1.91-.22,1.35-.34a.42.42,0,0,1,.52.14l.33.44.75-.57L9,20.07a.41.41,0,0,1,0-.59c.23-.35.44-.71.64-1.08s.26-.38.6-.33l.44.07.13-.93-.46-.08c-.32-.06-.39-.15-.46-.46s-.21-.84-.33-1.26a.42.42,0,0,1,.14-.52l.44-.34-.57-.76-.4.3c-.24.18-.36.16-.61,0s-.73-.45-1.11-.66a.44.44,0,0,1-.29-.5l.06-.51-.36-.06c-.18,0-.41-.11-.52,0s-.1.33-.13.5,0,.07,0,.09-.19.22-.31.26c-.46.13-.92.24-1.39.36a.42.42,0,0,1-.51-.16L3.61,13l-.76.57.33.44a.44.44,0,0,1,0,.54c-.24.38-.48.77-.7,1.17a.41.41,0,0,1-.47.26l-.54-.06-.13.9,0,0,.47.08a.43.43,0,0,1,.39.4c.1.43.2.86.33,1.28s.06.4-.16.57Z"/><path class="cls-2" d="M15.32,3.81l1.24-.24c0,.16.07.32.09.48.1.57.18.63.74.72S18.44,5,19,5.11a.6.6,0,0,0,.78-.26c.12-.17.24-.34.37-.54l1,.71-.38.57a.52.52,0,0,0,0,.75,5.76,5.76,0,0,1,1,1.51.52.52,0,0,0,.64.32l.7-.12c.05.22.09.41.13.61s.07.4.12.62l-.69.14c-.32.07-.47.21-.49.53a5.91,5.91,0,0,1-.38,1.82.5.5,0,0,0,.19.62,3.62,3.62,0,0,0,.32.22l.31.22-.71,1-.59-.39a.53.53,0,0,0-.72,0,5.76,5.76,0,0,1-1.56,1,.47.47,0,0,0-.29.55c0,.21.08.41.11.62,0,0,0,.16-.08.16-.37.09-.75.15-1.14.23-.05-.26-.09-.49-.14-.73s-.19-.42-.49-.44a6.37,6.37,0,0,1-1.87-.39.5.5,0,0,0-.64.24c-.13.19-.25.38-.4.59l-1-.72c.14-.2.27-.39.39-.58a.52.52,0,0,0-.06-.75,5.28,5.28,0,0,1-1-1.46.53.53,0,0,0-.64-.36l-.36.06-.35.07-.24-1.24.66-.13a.55.55,0,0,0,.52-.6A5.58,5.58,0,0,1,12.37,8a.54.54,0,0,0-.23-.76l-.51-.36a.16.16,0,0,1,0-.06l.69-1,.59.4a.51.51,0,0,0,.73,0,5.89,5.89,0,0,1,1.46-1c.37-.18.44-.34.36-.75C15.39,4.24,15.36,4,15.32,3.81Zm5.46,6a3.67,3.67,0,1,0-3.69,3.65A3.66,3.66,0,0,0,20.78,9.86Z"/><path class="cls-3" d="M2,19.44l.41-.31c.22-.17.23-.3.16-.57s-.23-.85-.33-1.28a.43.43,0,0,0-.39-.4l-.47-.08,0,0,.13-.9.54.06a.41.41,0,0,0,.47-.26c.22-.4.46-.79.7-1.17a.44.44,0,0,0,0-.54l-.33-.44L3.61,13l.32.42a.42.42,0,0,0,.51.16c.47-.12.93-.23,1.39-.36.12,0,.21-.17.31-.26s0-.06,0-.09,0-.42.13-.5.34,0,.52,0l.36.06-.06.51a.44.44,0,0,0,.29.5q.57.32,1.11.66c.25.16.37.18.61,0l.4-.3.57.76-.44.34a.42.42,0,0,0-.14.52q.18.63.33,1.26c.07.31.14.4.46.46l.46.08-.13.93-.44-.07c-.34-.05-.44,0-.6.33s-.41.73-.64,1.08a.41.41,0,0,0,0,.59l.29.41-.75.57-.33-.44a.42.42,0,0,0-.52-.14c-.44.12-.9.24-1.35.34a.4.4,0,0,0-.35.35s0,.06,0,.09c-.09.48-.09.48-.56.41l-.45-.08c0-.18,0-.33.06-.48a.4.4,0,0,0-.25-.5,4.32,4.32,0,0,1-1.23-.75.35.35,0,0,0-.47,0l-.46.34ZM8.8,17a2.71,2.71,0,0,0-2.73-2.77A2.76,2.76,0,1,0,8.8,17Z"/><path class="cls-1" d="M20.78,9.86a3.67,3.67,0,1,1-3.65-3.7A3.67,3.67,0,0,1,20.78,9.86Zm-6.31,0a2.64,2.64,0,0,0,2.63,2.67,2.66,2.66,0,1,0-2.63-2.67Z"/><path class="cls-1" d="M8.8,17a2.76,2.76,0,1,1-2.73-2.77A2.71,2.71,0,0,1,8.8,17ZM4.06,17a2,2,0,0,0,2,2,2,2,0,1,0,.06-4A2,2,0,0,0,4.06,17Z"/></svg>