<svg id="Layer_1" data-name="Layer 1" xmlns="http://www.w3.org/2000/svg" viewBox="0 0 25 25"><defs><style>.cls-1{fill:#f7aeab;}.cls-2{fill:#fff;}.cls-3{fill:#006892;}.cls-4{fill:#addcf6;}.cls-5{fill:#e6f1ea;}</style></defs><title>Inonite _export_25px</title><path class="cls-1" d="M17.74,18.35c1.67,0,4.05-.05,5.7-.05,0-1.23,0-2.43,0-3.62,0-.63-.39-1-.84-1a.8.8,0,0,0-.34.07,3.25,3.25,0,0,1-2.54,0,1.52,1.52,0,0,0-2,1.47Z"/><path class="cls-2" d="M21.11,10.83a3.05,3.05,0,1,0-3-3A3,3,0,0,0,21.11,10.83Z"/><path class="cls-3" d="M23.32,18.05H18.14c-.64,0-1.05.33-1.05.83s.42.84,1.06.84h5.78c.76,0,1.06-.32,1.07-1.09,0-1.21,0-2.42,0-3.62a2.65,2.65,0,0,0-3.37-2.67,3.29,3.29,0,0,1-1.68,0,1.9,1.9,0,0,0-1.61.18c-1.54,1-1.18,1.82-1.16,1.84,2,1.86.18,1.06,1.36-.25.28-.32,1-.14,1.12-.09A3.76,3.76,0,0,0,22,14a1,1,0,0,1,1.36.94C23.36,15.92,23.32,17,23.32,18.05Z"/><path class="cls-3" d="M21.14,4.73a3.05,3.05,0,1,1-3.06,3.06A3.05,3.05,0,0,1,21.14,4.73Zm1.36,3.1a1.38,1.38,0,1,0-2.75,0A1.35,1.35,0,0,0,21.1,9.16,1.37,1.37,0,0,0,22.5,7.83Z"/><path class="cls-1" d="M21.1,9.16a1.38,1.38,0,0,0,0-2.76,1.38,1.38,0,0,0,0,2.76Z"/><path class="cls-4" d="M7.26,18.35c-1.67,0-4-.05-5.7-.05,0-1.23,0-2.43,0-3.62,0-.63.39-1,.84-1a.8.8,0,0,1,.34.07,3.25,3.25,0,0,0,2.54,0,1.52,1.52,0,0,1,2,1.47Z"/><path class="cls-2" d="M12.44,21.65h4.75c.8,0,1.09-.3,1.09-1.12V16.39a5.76,5.76,0,0,0-.06-1.1,3,3,0,0,0-3.74-2.44,6.16,6.16,0,0,1-3.63.07,2,2,0,0,0-.41-.08A3.05,3.05,0,0,0,6.65,16c0,1.53,0,3.07,0,4.61,0,.75.3,1.05,1,1.06Z"/><path class="cls-2" d="M12.47,3.35a3.88,3.88,0,1,0,3.85,3.87A3.89,3.89,0,0,0,12.47,3.35Z"/><path class="cls-2" d="M6.92,7.79a3,3,0,1,0-3,3A3.06,3.06,0,0,0,6.92,7.79Z"/><path class="cls-3" d="M12.44,21.65H7.69c-.74,0-1-.31-1-1.06,0-1.54,0-3.08,0-4.61a3.05,3.05,0,0,1,3.79-3.14,2,2,0,0,1,.41.08,6.16,6.16,0,0,0,3.63-.07,3,3,0,0,1,3.74,2.44,5.76,5.76,0,0,1,.06,1.1v4.14c0,.82-.29,1.11-1.09,1.12ZM16.61,20V16.18c0-1.4-.67-2-2-1.62a7.48,7.48,0,0,1-4.27,0,2.11,2.11,0,0,0-.56-.09,1.23,1.23,0,0,0-1.41,1.16c-.06,1.43,0,2.86,0,4.33Z"/><path class="cls-3" d="M12.47,3.35A3.88,3.88,0,1,1,8.59,7.2,3.87,3.87,0,0,1,12.47,3.35Zm0,1.67a2.18,2.18,0,0,0-2.24,2.19,2.21,2.21,0,0,0,4.42.06A2.18,2.18,0,0,0,12.49,5Z"/><path class="cls-3" d="M1.68,18.05H6.86c.64,0,1,.33,1,.83s-.42.84-1.06.84H1.07C.31,19.71,0,19.4,0,18.63,0,17.42,0,16.21,0,15a2.65,2.65,0,0,1,3.37-2.67,3.29,3.29,0,0,0,1.68,0,1.9,1.9,0,0,1,1.61.18c1.54,1,1.18,1.82,1.16,1.84-2,1.86-.18,1.06-1.36-.25-.28-.32-1-.14-1.12-.09a3.76,3.76,0,0,1-2.3,0,1,1,0,0,0-1.36.94C1.64,15.92,1.68,17,1.68,18.05Z"/><path class="cls-3" d="M6.92,7.79A3,3,0,1,1,3.86,4.73,3.06,3.06,0,0,1,6.92,7.79Zm-3,1.37a1.38,1.38,0,0,0,0-2.76,1.38,1.38,0,0,0,0,2.76Z"/><path class="cls-5" d="M16.61,20H8.33c0-1.47,0-2.9,0-4.33a1.23,1.23,0,0,1,1.41-1.16,2.11,2.11,0,0,1,.56.09,7.48,7.48,0,0,0,4.27,0c1.35-.36,2,.22,2,1.62Z"/><path class="cls-5" d="M12.49,5a2.18,2.18,0,0,1,2.18,2.25,2.21,2.21,0,0,1-4.42-.06A2.18,2.18,0,0,1,12.49,5Z"/><path class="cls-4" d="M3.9,9.16a1.38,1.38,0,0,1,0-2.76,1.38,1.38,0,0,1,0,2.76Z"/></svg>