<svg id="Layer_1" data-name="Layer 1" xmlns="http://www.w3.org/2000/svg" viewBox="0 0 25 25"><defs><style>.cls-1{fill:#addcf6;}.cls-2{fill:#ef535f;}.cls-3{fill:#006892;}.cls-4{fill:#fff;}.cls-5{fill:none;}</style></defs><title>Inonite _export_25px</title><path class="cls-1" d="M19.37,6.48c.06-.32.09-.64.14-1a9.51,9.51,0,0,0-2.73.63l1.11,1.09A.53.53,0,0,1,18,8l.71.68A10.86,10.86,0,0,0,19.37,6.48Z"/><path class="cls-2" d="M18,8h0A.53.53,0,0,1,17.13,8c-.41-.41-.83-.81-1.23-1.23a.23.23,0,0,0-.34,0,13.43,13.43,0,0,0-2.86,2A14.69,14.69,0,0,0,9.92,12.2c-.19.35-.38.42-.78.31l-.83-.26c-.07,0-.16,0-.2,0-.36.3-.71.6-1.1.95a4.85,4.85,0,0,1,3.37,1.42A4.94,4.94,0,0,1,11.8,18a6.58,6.58,0,0,1,.58-.65.79.79,0,0,0,.23-1.1,1.7,1.7,0,0,1-.1-.32c-.14-.46-.07-.64.36-.89a14,14,0,0,0,3.55-2.91A13.42,13.42,0,0,0,18.66,8.7Zm-3.83,4.26a1.39,1.39,0,0,1-1.39-1.6,2.39,2.39,0,0,1,2.08-2,1.38,1.38,0,0,1,1.52,1.42A2.33,2.33,0,0,1,14.12,12.28Z"/><path class="cls-3" d="M6.91,14.23l-1.47.3a.78.78,0,0,1-.34,0,.52.52,0,0,1-.22-.91C5.8,12.81,6.73,12,7.66,11.2a.53.53,0,0,1,.55-.1c.26.07.52.15.77.24a.2.2,0,0,0,.27-.1,15.16,15.16,0,0,1,4.34-4.61A11.5,11.5,0,0,1,19.87,4.4c.53,0,.74.2.73.74a11,11,0,0,1-1.55,5.18,15.26,15.26,0,0,1-5.28,5.43c-.12.08-.16.15-.11.29s.16.49.24.74a.62.62,0,0,1-.15.63l-2.31,2.64c-.24.26-.5.33-.73.19a.58.58,0,0,1-.22-.74,4.14,4.14,0,0,0,0-2.86,3.73,3.73,0,0,0-3.54-2.35ZM11.8,18a6.58,6.58,0,0,1,.58-.65.79.79,0,0,0,.23-1.1,1.7,1.7,0,0,1-.1-.32c-.14-.46-.07-.64.36-.89a14,14,0,0,0,3.55-2.91,12.18,12.18,0,0,0,2.95-5.65c.06-.32.09-.64.14-1a9.51,9.51,0,0,0-2.73.63l2.27,2.24a.54.54,0,0,1,0,.81.55.55,0,0,1-.81-.06c-.41-.41-2-2-2.38-2.38a.23.23,0,0,0-.34,0,13.43,13.43,0,0,0-2.86,2A14.69,14.69,0,0,0,9.92,12.2c-.19.35-.38.42-.78.31l-.83-.26c-.07,0-.16,0-.2,0-.36.3-.71.6-1.1.95a4.85,4.85,0,0,1,3.37,1.42A4.94,4.94,0,0,1,11.8,18Z"/><path class="cls-3" d="M5.52,20.09A.59.59,0,0,1,5,19.75a.47.47,0,0,1,.07-.57c.5-.51,1-1,1.51-1.52a.53.53,0,1,1,.73.78c-.47.48-1,1-1.43,1.43A1.72,1.72,0,0,1,5.52,20.09Z"/><path class="cls-3" d="M9.72,18.62a1.88,1.88,0,0,1-.21.37c-.46.47-.92.93-1.39,1.38-.29.29-.58.3-.82.05a.54.54,0,0,1,.08-.81l1.31-1.32a.58.58,0,0,1,.65-.2A.57.57,0,0,1,9.72,18.62Z"/><path class="cls-3" d="M5,17.88a.63.63,0,0,1-.5-.33.5.5,0,0,1,.1-.59c.25-.27.51-.53.77-.79L6,15.52a.57.57,0,0,1,.82,0,.55.55,0,0,1-.06.81c-.46.46-.92.93-1.39,1.38A1.64,1.64,0,0,1,5,17.88Z"/><path class="cls-3" d="M16.33,10.09a2.33,2.33,0,0,1-2.21,2.19,1.39,1.39,0,0,1-1.39-1.6,2.39,2.39,0,0,1,2.08-2A1.38,1.38,0,0,1,16.33,10.09Zm-2.53.77c0,.25.11.36.36.34a1.31,1.31,0,0,0,1.1-1.07.33.33,0,0,0-.36-.39A1.3,1.3,0,0,0,13.8,10.86Z"/><path class="cls-4" d="M13.8,10.86a1.3,1.3,0,0,1,1.1-1.12.33.33,0,0,1,.36.39,1.31,1.31,0,0,1-1.1,1.07C13.91,11.22,13.8,11.11,13.8,10.86Z"/><path class="cls-5" d="M14.81,8.67a2.39,2.39,0,0,0-2.08,2,1.39,1.39,0,0,0,1.39,1.6,2.33,2.33,0,0,0,2.21-2.19A1.38,1.38,0,0,0,14.81,8.67Z"/></svg>