<svg id="Layer_1" data-name="Layer 1" xmlns="http://www.w3.org/2000/svg" viewBox="0 0 25 25"><defs><style>.cls-1{fill:#fff;}.cls-2{fill:#006892;}.cls-3{fill:#ef535f;}.cls-4{fill:#addcf6;}</style></defs><title>Inonite _export_25px</title><path class="cls-1" d="M7.87,20.43H12c.7,0,1-.26,1-1V15.81a5.11,5.11,0,0,0-.05-1,2.65,2.65,0,0,0-3.28-2.14,5.34,5.34,0,0,1-3.19.06,2.09,2.09,0,0,0-.36-.07,2.68,2.68,0,0,0-3.32,2.75V19.5c0,.66.27.92.92.92Z"/><path class="cls-1" d="M7.9,4.39a3.4,3.4,0,1,0,3.37,3.39A3.41,3.41,0,0,0,7.9,4.39Z"/><path class="cls-2" d="M7.87,20.43H3.71c-.65,0-.91-.26-.92-.92V15.45A2.68,2.68,0,0,1,6.11,12.7a2.09,2.09,0,0,1,.36.07,5.34,5.34,0,0,0,3.19-.06,2.65,2.65,0,0,1,3.28,2.14,5.11,5.11,0,0,1,.05,1v3.64c0,.71-.26,1-1,1Zm3.66-1.5v-3.3c0-1.22-.59-1.73-1.78-1.42A6.52,6.52,0,0,1,6,14.2a2.09,2.09,0,0,0-.49-.08,1.1,1.1,0,0,0-1.24,1c0,1.25,0,2.51,0,3.79Z"/><path class="cls-2" d="M7.9,4.39a3.4,3.4,0,0,1,0,6.8,3.4,3.4,0,1,1,0-6.8Zm0,1.45a1.95,1.95,0,1,0,1.91,2A1.93,1.93,0,0,0,7.91,5.84Z"/><path class="cls-3" d="M11.53,18.93H4.26c0-1.28,0-2.54,0-3.79a1.1,1.1,0,0,1,1.24-1A2.09,2.09,0,0,1,6,14.2a6.52,6.52,0,0,0,3.74,0c1.19-.31,1.78.2,1.78,1.42Z"/><path class="cls-3" d="M7.91,5.84A1.95,1.95,0,1,1,6,7.77,1.91,1.91,0,0,1,7.91,5.84Z"/><path class="cls-1" d="M17.65,20.43h4.16c.7,0,1-.26,1-1,0-1.21,0-2.42,0-3.64a5.11,5.11,0,0,0,0-1,2.66,2.66,0,0,0-3.29-2.14,5.31,5.31,0,0,1-3.18.06,2.09,2.09,0,0,0-.36-.07,2.68,2.68,0,0,0-3.32,2.75c0,1.35,0,2.7,0,4.05,0,.66.26.92.91.92Z"/><path class="cls-1" d="M17.67,4.39a3.4,3.4,0,1,0,3.38,3.39A3.4,3.4,0,0,0,17.67,4.39Z"/><path class="cls-2" d="M17.65,20.43H13.48c-.65,0-.91-.26-.91-.92,0-1.35,0-2.7,0-4.05a2.68,2.68,0,0,1,3.32-2.75,2.09,2.09,0,0,1,.36.07,5.31,5.31,0,0,0,3.18-.06,2.66,2.66,0,0,1,3.29,2.14,5.11,5.11,0,0,1,0,1c0,1.22,0,2.43,0,3.64,0,.71-.25,1-1,1Zm3.65-1.5v-3.3c0-1.22-.59-1.73-1.77-1.42a6.52,6.52,0,0,1-3.74,0,2.09,2.09,0,0,0-.5-.08,1.09,1.09,0,0,0-1.23,1c-.05,1.25,0,2.51,0,3.79Z"/><path class="cls-2" d="M17.67,4.39a3.4,3.4,0,0,1,0,6.8,3.4,3.4,0,1,1,0-6.8Zm0,1.45a1.95,1.95,0,1,0,1.91,2A1.93,1.93,0,0,0,17.69,5.84Z"/><path class="cls-4" d="M21.3,18.93H14c0-1.28,0-2.54,0-3.79a1.09,1.09,0,0,1,1.23-1,2.09,2.09,0,0,1,.5.08,6.52,6.52,0,0,0,3.74,0c1.18-.31,1.77.2,1.77,1.42Z"/><path class="cls-4" d="M17.69,5.84a1.95,1.95,0,0,1,0,3.89,1.95,1.95,0,1,1,0-3.89Z"/></svg>