<svg id="Layer_1" data-name="Layer 1" xmlns="http://www.w3.org/2000/svg" viewBox="0 0 25 25"><defs><style>.cls-1{fill:#006892;}.cls-2{fill:#f7aeab;}.cls-3{fill:#ef535f;}.cls-4{fill:#addcf6;}.cls-5{fill:#e6f1ea;}</style></defs><title>Inonite _export_25px</title><path class="cls-1" d="M2.42,14.83V11.54a.6.6,0,0,1,.8-.65l2.15.43a.4.4,0,0,0,.4-.11c.48-.4,1-.78,1.46-1.16.09-.07.2-.12.26-.16a5,5,0,0,1-.79-.8,1.87,1.87,0,0,1,.76-2.73A.38.38,0,0,0,7.7,6a7.68,7.68,0,0,1,.16-2.24A4.69,4.69,0,0,1,11.24.3a4.47,4.47,0,0,1,5.15,2.5,5.47,5.47,0,0,1,.54,2.35,4.51,4.51,0,0,1,0,.52.74.74,0,0,0,.43.81,1.89,1.89,0,0,1,0,3.2l-.25.16c.41.29.82.56,1.21.85a2,2,0,0,1,.45.43.46.46,0,0,0,.56.16c.64-.14,1.27-.27,1.91-.39a.6.6,0,0,1,.8.65v3.31h.56a1.72,1.72,0,0,1,1.83,1.84v2.12a1.69,1.69,0,0,1-1.79,1.78H22V22c0,.51-.14.68-.63.78l-7,1.41a.67.67,0,0,0-.3.16,1.88,1.88,0,0,1-1.38.52c-.36,0-.71,0-1.06,0a1.86,1.86,0,0,1-1.19-.46,1,1,0,0,0-.39-.2L3.3,22.8l-.37-.07a.61.61,0,0,1-.51-.64c0-.43,0-.85,0-1.27,0-.18-.06-.23-.23-.24A1.6,1.6,0,0,1,.59,19c0-.81,0-1.61,0-2.42a1.61,1.61,0,0,1,1.52-1.66Zm18.39-2.6-.17,0c-1.9.38-3.79.77-5.69,1.14-.22,0-.3.12-.3.36,0,2.93,0,5.87,0,8.81a2,2,0,0,0,0,.25l.07,0,5.9-1.18c.15,0,.19-.1.18-.24s0-.43,0-.65,0-.2-.18-.24a1.67,1.67,0,0,1-1.25-1.7c0-.77,0-1.53,0-2.3a1.4,1.4,0,0,1,.46-1.12,8,8,0,0,1,1-.65ZM9.89,22.88v-.33c0-2.92,0-5.83,0-8.75,0-.25-.08-.34-.32-.38l-4.51-.91-1.42-.28v2.6l.23,0a1.6,1.6,0,0,1,1.55,1.58c0,.88,0,1.76,0,2.63a1.58,1.58,0,0,1-1.16,1.45,5,5,0,0,1-.64.11c0,.24,0,.5,0,.74s.06.26.25.3l4.57.91Zm.35-14.13A3.81,3.81,0,0,1,9.59,7c0-.83,0-1.67-.05-2.49a.67.67,0,0,1,1-.73c1.19.44,2.4.83,3.61,1.23a1.76,1.76,0,0,1,1.21,1.28,3,3,0,0,1-.43,2.25,2,2,0,0,1-.14.25c.56,0,1.08,0,1.6,0A.66.66,0,0,0,17,8a.73.73,0,0,0-.48-.6,1.38,1.38,0,0,1-.81-1.22c0-.32,0-.64,0-.95a4.24,4.24,0,0,0-.35-1.79A3.3,3.3,0,0,0,11.44,1.5,3.65,3.65,0,0,0,9,4.59c0,.54,0,1.08,0,1.62a1.29,1.29,0,0,1-.74,1.15c-.08,0-.18.09-.26.15a.67.67,0,0,0-.27.71.64.64,0,0,0,.56.52C8.86,8.76,9.54,8.75,10.24,8.75Zm.89,14.35a3.28,3.28,0,0,0,2,.07c.22-.06.29-.14.29-.37,0-2.94,0-5.87,0-8.8v-.32a3.2,3.2,0,0,1-2.32,0Zm-4-11.44,4.89,1a1.19,1.19,0,0,0,.42,0L16,11.94c.48-.09,1-.2,1.46-.31C15,9.45,9.51,9.51,7.09,11.66Zm3.7-6.54c0,.57,0,1.08,0,1.59a2.5,2.5,0,0,0,.59,1.49,1.38,1.38,0,0,0,1.69.45A2.16,2.16,0,0,0,14.2,6.83a.63.63,0,0,0-.51-.73l-1.28-.43ZM20.62,17.7c0,.39,0,.78,0,1.16a.47.47,0,0,0,.48.51h1.6a.44.44,0,0,0,.48-.45c0-.79,0-1.59,0-2.38a.43.43,0,0,0-.49-.46H21.12a.45.45,0,0,0-.5.51C20.61,17,20.62,17.33,20.62,17.7Zm-18.81,0h0c0,.39,0,.79,0,1.19a.42.42,0,0,0,.47.45H3.74a.44.44,0,0,0,.48-.49c0-.77,0-1.53,0-2.3a.44.44,0,0,0-.49-.51H2.32c-.36,0-.5.15-.51.52Z"/><path class="cls-2" d="M20.81,12.23v2.53a8,8,0,0,0-1,.65,1.4,1.4,0,0,0-.46,1.12c0,.77,0,1.53,0,2.3a1.67,1.67,0,0,0,1.25,1.7c.14,0,.19.1.18.24s0,.44,0,.65,0,.21-.18.24l-5.9,1.18-.07,0a2,2,0,0,1,0-.25c0-2.94,0-5.88,0-8.81,0-.24.08-.32.3-.36,1.9-.37,3.79-.76,5.69-1.14Z"/><path class="cls-2" d="M9.89,22.88l-1.44-.3-4.57-.91c-.19,0-.26-.1-.25-.3s0-.5,0-.74a5,5,0,0,0,.64-.11,1.58,1.58,0,0,0,1.16-1.45c0-.87,0-1.75,0-2.63a1.6,1.6,0,0,0-1.55-1.58l-.23,0v-2.6l1.42.28,4.51.91c.24,0,.32.13.32.38,0,2.92,0,5.83,0,8.75Z"/><path class="cls-3" d="M10.24,8.75c-.7,0-1.38,0-2.05,0a.64.64,0,0,1-.56-.52.67.67,0,0,1,.27-.71c.08-.06.18-.1.26-.15A1.29,1.29,0,0,0,8.9,6.21c0-.54,0-1.08,0-1.62A3.65,3.65,0,0,1,11.44,1.5a3.3,3.3,0,0,1,3.91,1.94,4.24,4.24,0,0,1,.35,1.79c0,.31,0,.63,0,.95a1.38,1.38,0,0,0,.81,1.22A.73.73,0,0,1,17,8a.66.66,0,0,1-.62.75c-.52,0-1,0-1.6,0a2,2,0,0,0,.14-.25,3,3,0,0,0,.43-2.25A1.76,1.76,0,0,0,14.14,5c-1.21-.4-2.42-.79-3.61-1.23a.67.67,0,0,0-1,.73c0,.82,0,1.66.05,2.49A3.81,3.81,0,0,0,10.24,8.75Z"/><path class="cls-3" d="M11.13,23.1V13.71a3.2,3.2,0,0,0,2.32,0V14c0,2.93,0,5.86,0,8.8,0,.23-.07.31-.29.37A3.28,3.28,0,0,1,11.13,23.1Z"/><path class="cls-4" d="M7.09,11.66c2.42-2.15,7.9-2.21,10.41,0-.5.11-1,.22-1.46.31l-3.64.72a1.19,1.19,0,0,1-.42,0Z"/><path class="cls-5" d="M10.79,5.12l1.62.55,1.28.43a.63.63,0,0,1,.51.73,2.16,2.16,0,0,1-1.13,1.82,1.38,1.38,0,0,1-1.69-.45,2.5,2.5,0,0,1-.59-1.49C10.77,6.2,10.79,5.69,10.79,5.12Z"/><path class="cls-5" d="M20.62,17.7c0-.37,0-.74,0-1.11a.45.45,0,0,1,.5-.51h1.57a.43.43,0,0,1,.49.46c0,.79,0,1.59,0,2.38a.44.44,0,0,1-.48.45H21.1a.47.47,0,0,1-.48-.51C20.61,18.48,20.62,18.09,20.62,17.7Z"/><path class="cls-5" d="M1.81,17.73V16.59c0-.37.15-.51.51-.52H3.73a.44.44,0,0,1,.49.51c0,.77,0,1.53,0,2.3a.44.44,0,0,1-.48.49H2.28a.42.42,0,0,1-.47-.45c0-.4,0-.8,0-1.19Z"/></svg>