<svg id="Layer_1" data-name="Layer 1" xmlns="http://www.w3.org/2000/svg" viewBox="0 0 25 25"><defs><style>.cls-1{fill:#006892;}.cls-2{fill:#e6f1ea;}.cls-3{fill:#f7aeab;}.cls-4{fill:#addcf6;}.cls-5{fill:#ef535f;}</style></defs><title>Inonite _export_25px</title><path class="cls-1" d="M14.77,24.54A11.45,11.45,0,0,1,11.16,24a6.16,6.16,0,0,1-2.92-2,1,1,0,0,1-.2-1,12.79,12.79,0,0,0,.59-3,2.59,2.59,0,0,0-.32-1.65,8.67,8.67,0,0,1-1.07-2.94,1.21,1.21,0,0,1-1.07-1.09,1.53,1.53,0,0,1-1-1.66c0-.08,0-.15,0-.23a5.51,5.51,0,0,1,0-.57,1,1,0,0,0-.35-.88,4,4,0,1,1,6.72-4.21,7.92,7.92,0,0,1,3-.61h0a8.21,8.21,0,0,1,4.61,1.26,6.13,6.13,0,0,1,2.86,5.75c0,.28,0,.57-.06.85s-.08.81-.08,1.2a3.36,3.36,0,0,0,.28,1.11,11.25,11.25,0,0,0,.51,1.13c.08.15.15.3.22.45a1.32,1.32,0,0,1,0,1.25,1.26,1.26,0,0,1-1,.59v.07a1.26,1.26,0,0,1-.23.87,1.54,1.54,0,0,1-.43,1.1v0a.44.44,0,0,0,0,.1.84.84,0,0,1,.05.17,1.64,1.64,0,0,1-1.18,2.07,5.85,5.85,0,0,1-2.3.17H17.8l-.18,0H17.4a.64.64,0,0,0,0,.07,5.94,5.94,0,0,0-.06,1.05v.08c0,.4-.1.82-.74.87S15.42,24.54,14.77,24.54ZM9.49,21.3l0,0a5,5,0,0,0,2.09,1.31,11.76,11.76,0,0,0,4.22.42h0a2.51,2.51,0,0,1,.69-1.89,1,1,0,0,1,.64-.27,1.51,1.51,0,0,1,.39,0l.2,0h.17c.58,0,1.17,0,1.74,0a.3.3,0,0,0,.29-.2.84.84,0,0,0,0-.41A1.51,1.51,0,0,1,20,19.21a.68.68,0,0,1-.36-.58.71.71,0,0,1,.16-.54,1,1,0,0,1,.72-.26h0s0,0,0-.09c0-.85.25-1.16,1-1.28l-.07-.14c-.18-.4-.37-.81-.57-1.2a4,4,0,0,1-.46-1.95,9.59,9.59,0,0,1,.12-1.42,4.89,4.89,0,0,0-2.51-5.23,6.63,6.63,0,0,0-2.57-.77,6.74,6.74,0,0,0-3.67.58,5.5,5.5,0,0,1-.12,1,3.56,3.56,0,0,1-.95,1.76,1,1,0,0,0-.33.85c0,.27,0,.54,0,.8V11a1.49,1.49,0,0,1-1,1.45,1.23,1.23,0,0,1-.83,1,7.84,7.84,0,0,0,1,2.46,3.1,3.1,0,0,1,.43,1.48,12.35,12.35,0,0,1-.57,3.84A.18.18,0,0,0,9.49,21.3Zm-.67-9.41v0l0,0ZM6,9.42v0l0,0Zm.39-.75h.19V7.49c-1-.22-1.19-.81-1.19-1.3a1.34,1.34,0,0,1,1.2-1.32,1.68,1.68,0,0,1,.84.22,1.2,1.2,0,0,1,.47.48A1.15,1.15,0,0,1,9,4.85H9A1.28,1.28,0,0,1,10.28,6a1.56,1.56,0,0,1-.18.85,1.18,1.18,0,0,1-1,.64V8.64a.32.32,0,0,0,.37-.21.76.76,0,0,1,.18-.23l0,0a2.6,2.6,0,0,0-3-4.12A2.64,2.64,0,0,0,5.32,7,3.08,3.08,0,0,0,6,8.24C6.14,8.38,6.26,8.52,6.37,8.67ZM9,6.05Z"/><path class="cls-1" d="M4.34,3.57a1.59,1.59,0,0,1-.27-.17l-.74-.73a.3.3,0,0,1,0-.46.31.31,0,0,1,.47,0c.27.26.54.52.79.81a.38.38,0,0,1,0,.33C4.56,3.45,4.43,3.5,4.34,3.57Z"/><path class="cls-1" d="M2.74,6.07c.19,0,.37,0,.55,0s.34.12.3.31a.44.44,0,0,1-.27.29,5.82,5.82,0,0,1-1.18,0,.42.42,0,0,1-.28-.3c0-.18.12-.29.3-.3S2.55,6.07,2.74,6.07Z"/><path class="cls-1" d="M11.36,3.54a.3.3,0,0,1-.26-.48A8.12,8.12,0,0,1,12,2.18a.4.4,0,0,1,.38,0c.07.06.11.29.05.35-.28.33-.6.63-.91.93C11.47,3.53,11.4,3.53,11.36,3.54Z"/><path class="cls-1" d="M3.49,10.65c-.08-.06-.2-.1-.23-.18a.37.37,0,0,1,0-.31,10.44,10.44,0,0,1,.88-.88.44.44,0,0,1,.4,0,.39.39,0,0,1,0,.38c-.26.3-.55.57-.83.84A.9.9,0,0,1,3.49,10.65Z"/><path class="cls-1" d="M7.54,1.31a2.17,2.17,0,0,1,0-.57c0-.12.18-.28.28-.28a.38.38,0,0,1,.3.26,6.12,6.12,0,0,1,0,1.21.4.4,0,0,1-.29.27c-.1,0-.26-.16-.29-.28A2.47,2.47,0,0,1,7.54,1.31Z"/><path class="cls-2" d="M8.22,13.17a.94.94,0,0,0,.91-.93c0-.06.1-.13.16-.15A1.09,1.09,0,0,0,10.06,11a8.17,8.17,0,0,0,0-1,1.34,1.34,0,0,1,.45-1.16,3.17,3.17,0,0,0,.84-1.57,5.34,5.34,0,0,0,.11-1,.31.31,0,0,1,.2-.31,7.06,7.06,0,0,1,3.92-.63,7.07,7.07,0,0,1,2.73.81A5.31,5.31,0,0,1,21,11.82a8.68,8.68,0,0,0-.11,1.35,3.66,3.66,0,0,0,.41,1.77c.26.49.49,1,.72,1.51.14.3.1.35-.22.39-.71.08-.83.2-.85.9,0,.32-.08.49-.42.5s-.52,0-.49.36.32.29.56.27c0,0,.05,0,.12.05s-.06.14-.11.18a1,1,0,0,0-.29,1.12,1.31,1.31,0,0,1,0,.62.72.72,0,0,1-.66.5c-.65,0-1.29,0-1.94,0-.19,0-.38-.07-.57-.06a.61.61,0,0,0-.38.15,2.08,2.08,0,0,0-.56,1.6c0,.4,0,.41-.41.42A12.07,12.07,0,0,1,11.49,23a5.46,5.46,0,0,1-2.27-1.42.46.46,0,0,1-.12-.49,11.68,11.68,0,0,0,.56-3.71,2.71,2.71,0,0,0-.37-1.3A8.35,8.35,0,0,1,8.22,13.17Zm9.13,1.31a2.67,2.67,0,0,0,.28-.19c.18-.16.35-.34.52-.51.41-.4.41-.45.12-.94l-.06-.1a.48.48,0,0,1,.32-.79l.39-.11a.38.38,0,0,0,.31-.4v-.87c0-.41-.07-.5-.48-.61L18.5,9.9a.48.48,0,0,1-.33-.72c.37-.75.51-.58-.2-1.27s-.46-.61-1.27-.17A.48.48,0,0,1,16,7.46c-.26-.86-.14-.8-1.07-.8s-.81,0-1,.79a.46.46,0,0,1-.66.3c-.77-.38-.77-.38-1.37.21s-.53.52-.16,1.17a.49.49,0,0,1-.35.79l-.36.1a.39.39,0,0,0-.31.43q0,.5,0,1a.4.4,0,0,0,.3.41c.12,0,.24.06.36.09a.48.48,0,0,1,.36.78l-.21.38a.39.39,0,0,0,.08.5l.53.54c.38.38.43.38.9.1l.12-.07a.47.47,0,0,1,.79.31,2.81,2.81,0,0,1,.08.31.44.44,0,0,0,.53.4h.49c.74,0,.74,0,.92-.72a.49.49,0,0,1,.8-.31Z"/><path class="cls-3" d="M7,7.14V9.07H6.22a.18.18,0,0,1-.1,0,5.76,5.76,0,0,1-1.19-1.9A3,3,0,1,1,10,8.46s-.11.09-.13.15c-.25.51-.69.46-1.15.4V7.12a.94.94,0,0,0,1-.43,1.26,1.26,0,0,0,.14-.63A.89.89,0,0,0,9,5.26c-.54,0-.81.33-1,1.2H7.63c0-.4,0-.8-.42-1a1.25,1.25,0,0,0-.62-.16.94.94,0,0,0-.82.91C5.77,6.74,6.16,7.05,7,7.14Z"/><path class="cls-4" d="M9.44,9.7v.54H6.27a.53.53,0,0,1,0-.12c0-.41,0-.42.39-.42Z"/><path class="cls-4" d="M9.43,10.9c0,.41-.13.58-.5.58H6.75c-.38,0-.52-.17-.49-.58Z"/><path class="cls-3" d="M7.64,7.14h.44c0,.6,0,1.18,0,1.77,0,.16-.1.18-.43.11Z"/><path class="cls-4" d="M7.21,12.12H8.45c.06.31,0,.38-.28.39H7.5C7.25,12.52,7.16,12.39,7.21,12.12Z"/><path class="cls-3" d="M7,6.46c-.39,0-.55,0-.55-.25a.27.27,0,0,1,.3-.31C6.93,5.9,7,6.09,7,6.46Z"/><path class="cls-3" d="M8.74,6.47c-.05-.38,0-.56.23-.57a.29.29,0,0,1,.32.3C9.29,6.41,9.12,6.49,8.74,6.47Z"/><path class="cls-1" d="M17.35,14.48l-.56-.32a.49.49,0,0,0-.8.31c-.18.72-.18.72-.92.72h-.49a.44.44,0,0,1-.53-.4,2.81,2.81,0,0,0-.08-.31.47.47,0,0,0-.79-.31l-.12.07c-.47.28-.52.28-.9-.1l-.53-.54a.39.39,0,0,1-.08-.5l.21-.38a.48.48,0,0,0-.36-.78c-.12,0-.24,0-.36-.09a.4.4,0,0,1-.3-.41q0-.49,0-1a.39.39,0,0,1,.31-.43l.36-.1a.49.49,0,0,0,.35-.79c-.37-.65-.37-.65.16-1.17s.6-.59,1.37-.21a.46.46,0,0,0,.66-.3c.19-.79.19-.79,1-.79s.81-.06,1.07.8a.48.48,0,0,0,.68.28c.81-.44.63-.47,1.27.17s.57.52.2,1.27a.48.48,0,0,0,.33.72l.25.06c.41.11.47.2.48.61v.87a.38.38,0,0,1-.31.4l-.39.11a.48.48,0,0,0-.32.79l.06.1c.29.49.29.54-.12.94-.17.17-.34.35-.52.51A2.67,2.67,0,0,1,17.35,14.48Zm-4.74-6.4a.83.83,0,0,1-.19.26c-.23.17-.22.35-.07.58a1.1,1.1,0,0,1,.19.5,1.13,1.13,0,0,1-.89,1.08c-.27.06-.3.19-.3.42s0,.39.31.45a.94.94,0,0,1,.57.28c.23.44.5.91.06,1.41-.25.29.13.38.23.55s.22.09.36,0,.44-.28.62-.24c.49.12,1,.25,1.06.92,0,.2.11.29.32.26s.48.1.53-.28a.74.74,0,0,1,.39-.67,1.12,1.12,0,0,1,1.4.07l.1,0c.5-.42.51-.42.22-.94a.57.57,0,0,1,0-.6,1.11,1.11,0,0,0,.12-.3.57.57,0,0,1,.52-.49c.49-.11.49-.13.45-.63,0-.08-.09-.21-.16-.22a.92.92,0,0,1-.9-.81s0-.05,0-.08a3.58,3.58,0,0,1,0-.57,1.78,1.78,0,0,1,.19-.36.28.28,0,0,0,0-.18.49.49,0,0,0-.78-.22l-.1.05a1.48,1.48,0,0,1-1.27-.28,1.46,1.46,0,0,1-.07-.19,1.61,1.61,0,0,1-.1-.36c0-.32-.25-.25-.45-.26s-.36,0-.38.25a.92.92,0,0,1-.7.82.78.78,0,0,1-.9-.07A2.29,2.29,0,0,0,12.61,8.08Z"/><path class="cls-5" d="M12.61,8.08a2.29,2.29,0,0,1,.36.21.78.78,0,0,0,.9.07.92.92,0,0,0,.7-.82c0-.27.2-.25.38-.25s.43-.06.45.26a1.61,1.61,0,0,0,.1.36,1.46,1.46,0,0,0,.07.19,1.48,1.48,0,0,0,1.27.28l.1-.05a.49.49,0,0,1,.78.22.28.28,0,0,1,0,.18,1.78,1.78,0,0,0-.19.36,3.58,3.58,0,0,0,0,.57s0,.05,0,.08a.92.92,0,0,0,.9.81c.07,0,.15.14.16.22,0,.5,0,.52-.45.63a.57.57,0,0,0-.52.49,1.11,1.11,0,0,1-.12.3.57.57,0,0,0,0,.6c.29.52.28.52-.22.94l-.1,0a1.12,1.12,0,0,0-1.4-.07.74.74,0,0,0-.39.67c-.05.38-.32.24-.53.28s-.3-.06-.32-.26c0-.67-.57-.8-1.06-.92-.18,0-.42.14-.62.24s-.26.16-.36,0-.48-.26-.23-.55c.44-.5.17-1-.06-1.41a.94.94,0,0,0-.57-.28c-.28-.06-.32-.21-.31-.45s0-.36.3-.42a1.13,1.13,0,0,0,.89-1.08,1.1,1.1,0,0,0-.19-.5c-.15-.23-.16-.41.07-.58A.83.83,0,0,0,12.61,8.08ZM17.05,11A2.08,2.08,0,1,0,15,13,2.07,2.07,0,0,0,17.05,11Z"/><path class="cls-1" d="M17.05,11a2.08,2.08,0,0,1-4.15-.05,2.08,2.08,0,0,1,4.15.05Zm-3.52,0A1.45,1.45,0,0,0,15,12.39,1.48,1.48,0,0,0,16.43,11a1.45,1.45,0,0,0-2.9,0Z"/><path class="cls-2" d="M13.53,10.92a1.45,1.45,0,0,1,2.9,0A1.48,1.48,0,0,1,15,12.39,1.45,1.45,0,0,1,13.53,10.92Z"/></svg>