<svg id="Layer_1" data-name="Layer 1" xmlns="http://www.w3.org/2000/svg" viewBox="0 0 25 25"><defs><style>.cls-1{fill:#006892;}.cls-2{fill:#e6f1ea;}.cls-3{fill:#ef535f;}</style></defs><title>Inonite _export_25px</title><path class="cls-1" d="M4.73,8.33A2.29,2.29,0,0,1,8.45,7.5,2.31,2.31,0,0,1,11,7.06c0-.14,0-.24,0-.34C11,5.34,11,4,11,2.59a2.25,2.25,0,1,1,4.49,0v.86c.16-.12.26-.21.37-.28A9.45,9.45,0,0,1,21.1,1.28a3,3,0,0,1,1.71.36,1.44,1.44,0,0,1,.66,1.78A3.6,3.6,0,0,1,22.13,5,10,10,0,0,1,19,6.58l.42.18a8.92,8.92,0,0,1,3,1.9,3,3,0,0,1,.81,1.25,1.46,1.46,0,0,1-1.09,2,5.22,5.22,0,0,1-2.66-.1,10.05,10.05,0,0,1-3.83-1.93l-.13-.07v.36c0,2.63,0,5.26,0,7.89a7,7,0,0,1-6.21,6.65,6.83,6.83,0,0,1-7-3.7,6.06,6.06,0,0,1-.79-3c0-2.53,0-5.06,0-7.59A2.22,2.22,0,0,1,4.62,8.29Zm-2,8.2A18.73,18.73,0,0,0,2.92,19a5.68,5.68,0,0,0,11.21-1.29c0-1,0-2,0-3a1.84,1.84,0,0,0-.73-1.52,3.13,3.13,0,0,0-1-.57,17,17,0,0,0-2.31-.58,5.8,5.8,0,0,0-1.44,0,.53.53,0,0,0-.45.45c-.11.5,0,.7.46.86s1.12.31,1.68.46A2.24,2.24,0,0,1,12,15.05a6.14,6.14,0,0,1,.23,3.55.61.61,0,0,1-.74.44.6.6,0,0,1-.52-.62c0-.17,0-.33,0-.5a15.4,15.4,0,0,0,0-1.8,1,1,0,0,0-.39-.74,8.51,8.51,0,0,0-1.5-.51c.12,1.39-.24,2.48-1.62,2.87a2.22,2.22,0,0,1-2.72-1.32C4.07,16.68,4.07,16.68,2.69,16.53Zm3.24-4.18c0,1.05,0,2.11,0,3.17a.92.92,0,0,0,.92,1,1,1,0,0,0,.93-1c0-.3,0-.6,0-.89a.41.41,0,0,0-.15-.28,2,2,0,0,1,0-3.12.43.43,0,0,0,.19-.4c0-.54,0-1.08,0-1.62a.93.93,0,1,0-1.86,0C6,10.25,5.93,11.3,5.93,12.35ZM21,10.71c.28,0,.5-.05.72-.1s.29-.2.18-.39a3.34,3.34,0,0,0-.37-.53A6.79,6.79,0,0,0,19.1,8.07a6.44,6.44,0,0,0-2.86-.65,3,3,0,0,0-.68.22,3.19,3.19,0,0,0,.32.64A8,8,0,0,0,21,10.71Zm-4.19-5.1A8.39,8.39,0,0,0,21.37,4a4.63,4.63,0,0,0,.8-.85A.21.21,0,0,0,22,2.72a4.53,4.53,0,0,0-.9-.12A7.92,7.92,0,0,0,17,4a6.07,6.07,0,0,0-1.13,1c-.24.27-.15.45.19.52S16.58,5.58,16.79,5.61ZM4.58,12.39h0c0-.66,0-1.32,0-2a1.25,1.25,0,0,0-.1-.51.86.86,0,0,0-1-.48.86.86,0,0,0-.69.91c0,1.37,0,2.73,0,4.09A1.1,1.1,0,0,0,3,15a.84.84,0,0,0,1,.3.89.89,0,0,0,.62-.85C4.58,13.77,4.58,13.08,4.58,12.39Zm7.7-4.19c0,1,0,1.88,0,2.81a.2.2,0,0,0,.09.16l1.74.81V8.2Zm1.86-3.54c0-.7,0-1.37,0-2.05a.93.93,0,1,0-1.85,0V4.44a1.92,1.92,0,0,0,0,.22Zm-3.2,6.13c0-.6,0-1.22,0-1.84a.87.87,0,0,0-.9-.77A.9.9,0,0,0,9.12,9c0,.56,0,1.13,0,1.69Zm1.35-3.94h1.82V6H12.29Z"/><path class="cls-2" d="M2.69,16.53c1.38.15,1.38.15,2.05-.11a2.22,2.22,0,0,0,2.72,1.32c1.38-.39,1.74-1.48,1.62-2.87a8.51,8.51,0,0,1,1.5.51,1,1,0,0,1,.39.74,15.4,15.4,0,0,1,0,1.8c0,.17,0,.33,0,.5a.6.6,0,0,0,.52.62.61.61,0,0,0,.74-.44A6.14,6.14,0,0,0,12,15.05a2.24,2.24,0,0,0-1.62-1.18c-.56-.15-1.13-.27-1.68-.46s-.57-.36-.46-.86a.53.53,0,0,1,.45-.45,5.8,5.8,0,0,1,1.44,0,17,17,0,0,1,2.31.58,3.13,3.13,0,0,1,1,.57,1.84,1.84,0,0,1,.73,1.52c0,1,0,2,0,3A5.68,5.68,0,0,1,2.92,19,18.73,18.73,0,0,1,2.69,16.53Z"/><path class="cls-2" d="M5.93,12.35c0-1,0-2.1,0-3.14a.93.93,0,1,1,1.86,0c0,.54,0,1.08,0,1.62a.43.43,0,0,1-.19.4,2,2,0,0,0,0,3.12.41.41,0,0,1,.15.28c0,.29,0,.59,0,.89a1,1,0,0,1-.93,1,.92.92,0,0,1-.92-1C5.93,14.46,5.93,13.4,5.93,12.35Z"/><path class="cls-3" d="M21,10.71a8,8,0,0,1-5.1-2.43,3.19,3.19,0,0,1-.32-.64,3,3,0,0,1,.68-.22,6.44,6.44,0,0,1,2.86.65,6.79,6.79,0,0,1,2.41,1.62,3.34,3.34,0,0,1,.37.53c.11.19.05.35-.18.39S21.26,10.67,21,10.71Z"/><path class="cls-3" d="M16.79,5.61c-.21,0-.49-.05-.76-.11s-.43-.25-.19-.52A6.07,6.07,0,0,1,17,4,7.92,7.92,0,0,1,21.13,2.6a4.53,4.53,0,0,1,.9.12.21.21,0,0,1,.14.38,4.63,4.63,0,0,1-.8.85A8.39,8.39,0,0,1,16.79,5.61Z"/><path class="cls-2" d="M4.58,12.39c0,.69,0,1.38,0,2.08a.89.89,0,0,1-.62.85A.84.84,0,0,1,3,15a1.1,1.1,0,0,1-.2-.6c0-1.36,0-2.72,0-4.09a.86.86,0,0,1,.69-.91.86.86,0,0,1,1,.48,1.25,1.25,0,0,1,.1.51c0,.66,0,1.32,0,2Z"/><path class="cls-2" d="M12.28,8.2h1.84V12l-1.74-.81a.2.2,0,0,1-.09-.16C12.28,10.08,12.28,9.15,12.28,8.2Z"/><path class="cls-2" d="M14.14,4.66H12.31a1.92,1.92,0,0,1,0-.22V2.6a.93.93,0,1,1,1.85,0C14.14,3.29,14.14,4,14.14,4.66Z"/><path class="cls-2" d="M10.94,10.79l-1.83-.14c0-.56,0-1.13,0-1.69A.9.9,0,0,1,10,8.18a.87.87,0,0,1,.9.77C11,9.57,10.94,10.19,10.94,10.79Z"/><path class="cls-3" d="M12.29,6.85V6h1.82v.84Z"/></svg>