<?xml version="1.0" encoding="utf-8"?>
<!-- Generator: Adobe Illustrator 24.0.1, SVG Export Plug-In . SVG Version: 6.00 Build 0)  -->
<svg version="1.1" id="Layer_1" xmlns="http://www.w3.org/2000/svg" xmlns:xlink="http://www.w3.org/1999/xlink" x="0px" y="0px"
	 viewBox="0 0 25 25" style="enable-background:new 0 0 25 25;" xml:space="preserve">
<style type="text/css">
	.st0{fill:#C7E0D1;}
	.st1{fill:#E6F1EA;}
	.st2{fill:#FAAF40;}
	.st3{fill:#E9DD7F;}
	.st4{fill:#03675F;}
	.st5{fill:#FFFFFF;}
	.st6{fill:none;}
	.st7{fill:none;stroke:#231F20;stroke-width:2;stroke-linecap:round;stroke-miterlimit:10;}
	.st8{fill:none;stroke:#03675F;stroke-width:2;stroke-linecap:round;stroke-linejoin:round;stroke-miterlimit:10;}
</style>
<g>
	<path class="st3" d="M11.37,9.26h12.17c0.6,0,1.09,0.49,1.09,1.09v6.8c0,0.6-0.49,1.09-1.09,1.09h-3.72l-0.05,2.62l-3.07-2.62
		h-5.33c-0.6,0-1.09-0.49-1.09-1.09v-6.8C10.28,9.75,10.77,9.26,11.37,9.26z"/>
	<g>
		<g>
			<path class="st4" d="M22.12,11.84h-9.2c-0.2,0-0.37-0.17-0.37-0.37c0-0.2,0.17-0.37,0.37-0.37h9.2c0.2,0,0.37,0.17,0.37,0.37
				C22.49,11.68,22.32,11.84,22.12,11.84z"/>
		</g>
		<g>
			<path class="st4" d="M22.12,13.89h-9.2c-0.2,0-0.37-0.17-0.37-0.37c0-0.2,0.17-0.37,0.37-0.37h9.2c0.2,0,0.37,0.17,0.37,0.37
				C22.49,13.72,22.32,13.89,22.12,13.89z"/>
		</g>
		<g>
			<path class="st4" d="M22.12,15.76h-9.2c-0.2,0-0.37-0.17-0.37-0.37c0-0.2,0.17-0.37,0.37-0.37h9.2c0.2,0,0.37,0.17,0.37,0.37
				C22.49,15.59,22.32,15.76,22.12,15.76z"/>
		</g>
	</g>
	<path class="st5" d="M15,3.72H1.57c-0.66,0-1.2,0.54-1.2,1.2v7.5c0,0.66,0.54,1.2,1.2,1.2h4.1l0.05,2.89l3.39-2.89H15
		c0.66,0,1.2-0.54,1.2-1.2v-7.5C16.2,4.26,15.66,3.72,15,3.72z"/>
	<path class="st4" d="M23.54,8.89h-6.97V4.92c0-0.87-0.71-1.57-1.57-1.57H1.57C0.71,3.35,0,4.06,0,4.92v7.5C0,13.29,0.71,14,1.57,14
		h3.74l0.06,3.31L9.26,14h0.66v3.15c0,0.81,0.66,1.46,1.46,1.46h5.19l3.56,3.04l0.05-3.04h3.36c0.81,0,1.46-0.66,1.46-1.46v-6.8
		C25,9.55,24.34,8.89,23.54,8.89z M8.98,13.26l-2.9,2.47l-0.04-2.47H1.57c-0.46,0-0.83-0.37-0.83-0.83v-7.5
		c0-0.46,0.37-0.83,0.83-0.83H15c0.46,0,0.83,0.37,0.83,0.83v3.97v0.74v2.79c0,0.46-0.37,0.83-0.83,0.83h-4.34H9.91H8.98z
		 M24.26,17.15c0,0.4-0.32,0.72-0.72,0.72h-4.08l-0.04,2.2l-2.58-2.2h-5.46c-0.4,0-0.72-0.32-0.72-0.72V14H15
		c0.87,0,1.57-0.71,1.57-1.57V9.63h6.97c0.4,0,0.72,0.32,0.72,0.72V17.15z"/>
	<g>
		<path class="st2" d="M12.38,6.14l-2.01,1.5V6.65c0-0.52-0.43-0.95-0.95-0.95H5.1c-0.52,0-0.95,0.43-0.95,0.95v3.92
			c0,0.52,0.43,0.95,0.95,0.95h4.32c0.52,0,0.95-0.43,0.95-0.95V9.59l2.01,1.5c0.24,0.18,0.53-0.04,0.53-0.4V6.54
			C12.92,6.19,12.62,5.97,12.38,6.14z"/>
	</g>
</g>
</svg>
