<?xml version="1.0" encoding="utf-8"?>
<!-- Generator: Adobe Illustrator 24.0.1, SVG Export Plug-In . SVG Version: 6.00 Build 0)  -->
<svg version="1.1" id="Layer_1" xmlns="http://www.w3.org/2000/svg" xmlns:xlink="http://www.w3.org/1999/xlink" x="0px" y="0px"
	 viewBox="0 0 25 25" style="enable-background:new 0 0 25 25;" xml:space="preserve">
<style type="text/css">
	.st0{fill:#C7E0D1;}
	.st1{fill:#E6F1EA;}
	.st2{fill:#FAAF40;}
	.st3{fill:#E9DD7F;}
	.st4{fill:#03675F;}
	.st5{fill:#FFFFFF;}
	.st6{fill:none;}
	.st7{fill:none;stroke:#231F20;stroke-width:2;stroke-linecap:round;stroke-miterlimit:10;}
	.st8{fill:none;stroke:#03675F;stroke-width:2;stroke-linecap:round;stroke-linejoin:round;stroke-miterlimit:10;}
</style>
<g>
	<path class="st1" d="M8.53,12.77c-1,0-1.78-0.91-1.57-1.95c0.12-0.56,0.55-1.03,1.1-1.19c0.49-0.15,0.94-0.06,1.3,0.17V8.09
		c0-0.37,0-1.4,0-1.4s-0.99,0-1.4,0H1.81c-0.77,0-1.4,0.62-1.4,1.4v6.15c0,0.39-0.01,1.41-0.01,1.41s1.02-0.01,1.41-0.01h1.71
		C3.3,16,3.21,16.45,3.36,16.94c0.17,0.55,0.63,0.98,1.19,1.09c1.03,0.21,1.94-0.57,1.94-1.57c0-0.3-0.09-0.58-0.24-0.83h1.71
		c0.34,0,1.4,0.01,1.4,0.01s0-0.98,0-1.41v-1.71C9.12,12.68,8.83,12.77,8.53,12.77z"/>
	<path class="st3" d="M6.48,16.47c0,1-0.91,1.78-1.95,1.57c-0.56-0.12-1.03-0.55-1.19-1.1c-0.15-0.49-0.06-0.94,0.17-1.3H1.8
		c-0.37,0-1.4,0-1.4,0s0,0.99,0,1.4v6.15c0,0.77,0.62,1.4,1.4,1.4h6.15c0.39,0,1.41,0.01,1.41,0.01s-0.01-1.02-0.01-1.41v-1.71
		c0.36,0.22,0.82,0.31,1.3,0.16c0.55-0.17,0.98-0.63,1.09-1.19c0.21-1.03-0.57-1.94-1.57-1.94c-0.3,0-0.58,0.09-0.83,0.24v-1.71
		c0-0.34,0.01-1.4,0.01-1.4s-0.98,0-1.41,0H6.24C6.39,15.89,6.48,16.17,6.48,16.47z"/>
	<path class="st0" d="M10.19,18.52c1,0,1.78,0.91,1.57,1.95c-0.12,0.56-0.55,1.03-1.1,1.19c-0.49,0.15-0.94,0.06-1.3-0.17v1.71
		c0,0.37,0,1.4,0,1.4s0.99,0,1.4,0h6.15c0.77,0,1.4-0.62,1.4-1.4v-6.15c0-0.39,0.01-1.41,0.01-1.41s-1.02,0.01-1.41,0.01H15.2
		c0.22-0.36,0.31-0.82,0.16-1.3c-0.17-0.55-0.63-0.98-1.19-1.09c-1.03-0.21-1.94,0.57-1.94,1.57c0,0.3,0.09,0.58,0.24,0.83h-1.71
		c-0.34,0-1.4-0.01-1.4-0.01s0,0.98,0,1.41v1.71C9.6,18.61,9.88,18.52,10.19,18.52z"/>
	<path class="st2" d="M15.87,11.06c0-1,0.91-1.78,1.95-1.57c0.56,0.12,1.03,0.55,1.19,1.1c0.15,0.49,0.06,0.94-0.17,1.3h1.71
		c0.37,0,1.4,0,1.4,0s0-0.99,0-1.4V4.34c0-0.77-0.62-1.4-1.4-1.4H14.4c-0.39,0-1.41-0.01-1.41-0.01S13,3.96,13,4.34v1.71
		c-0.36-0.22-0.82-0.31-1.3-0.16c-0.55,0.17-0.98,0.63-1.09,1.19c-0.21,1.03,0.57,1.94,1.57,1.94c0.3,0,0.58-0.09,0.83-0.24v1.71
		c0,0.34-0.01,1.4-0.01,1.4s0.98,0,1.41,0h1.71C15.96,11.64,15.87,11.36,15.87,11.06z"/>
	<circle class="st5" cx="21.12" cy="3.88" r="3.47"/>
	<path class="st6" d="M17.25,3.88c0-0.18,0.02-0.35,0.04-0.52H14.4c-0.22,0-0.67,0-0.99-0.01c0,0.33,0.01,0.77,0.01,0.99v1.71
		c0,0.15-0.08,0.28-0.21,0.36c-0.13,0.07-0.29,0.07-0.41-0.01c-0.21-0.13-0.55-0.25-0.97-0.12c-0.41,0.13-0.73,0.47-0.81,0.88
		c-0.08,0.37,0.01,0.73,0.24,1.01c0.36,0.45,1.03,0.58,1.54,0.26c0.13-0.08,0.28-0.08,0.41-0.01c0.13,0.07,0.21,0.21,0.21,0.36v1.71
		c0,0.2,0,0.65-0.01,0.99h2.11c-0.03-0.14-0.05-0.28-0.05-0.42c0-0.61,0.27-1.18,0.74-1.56s1.09-0.53,1.7-0.41
		c0.7,0.15,1.29,0.69,1.5,1.38c0.1,0.34,0.11,0.68,0.04,1.01h2.1V7.73c-0.14,0.01-0.27,0.02-0.41,0.02
		C18.99,7.75,17.25,6.01,17.25,3.88z"/>
	<g>
		<path class="st4" d="M18.3,15.23c0,0-1.02,0.01-1.4,0.01h-1.11c0.07-0.33,0.06-0.68-0.04-1.01c-0.21-0.69-0.8-1.23-1.5-1.37
			c-0.61-0.12-1.22,0.03-1.69,0.41c-0.47,0.38-0.74,0.95-0.74,1.56c0,0.14,0.02,0.28,0.05,0.42h-1.11c-0.2,0-0.65,0-0.99-0.01v-2.71
			c0-0.15-0.08-0.28-0.21-0.36c-0.13-0.07-0.29-0.07-0.41,0.01c-0.52,0.32-1.18,0.19-1.55-0.26c-0.23-0.28-0.32-0.64-0.24-1.01
			c0.09-0.41,0.41-0.76,0.81-0.88c0.43-0.13,0.76,0,0.97,0.13c0.13,0.08,0.28,0.08,0.41,0.01c0.13-0.07,0.21-0.21,0.21-0.36v-3.1
			c0-0.23-0.18-0.41-0.41-0.41H1.81c-0.99,0-1.8,0.81-1.8,1.8v6.15c0,0.38-0.01,1.4-0.01,1.4c0,0,0,0,0,0c0,0,0,0,0,0v7.54
			c0,0.99,0.81,1.8,1.8,1.8h6.15c0.38,0,1.4,0.01,1.4,0.01c0,0,0,0,0,0h7.54c0.99,0,1.8-0.81,1.8-1.8v-6.15
			c0-0.38,0.01-1.4,0.01-1.4c0-0.11-0.04-0.22-0.12-0.29S18.41,15.23,18.3,15.23z M0.83,14.24V8.09c0-0.54,0.44-0.99,0.99-0.99h7.14
			v2.1C8.62,9.13,8.27,9.14,7.94,9.24c-0.69,0.21-1.23,0.8-1.38,1.5c-0.13,0.61,0.02,1.22,0.41,1.69c0.47,0.58,1.25,0.86,1.99,0.7
			v2.1H8.92c-0.33,0-0.76-0.01-0.95-0.01H6.26c-0.08,0-0.15,0.02-0.21,0.06c-0.06,0.04-0.12,0.09-0.16,0.16
			c-0.07,0.13-0.07,0.29,0.01,0.41c0.12,0.19,0.18,0.4,0.18,0.62c0,0.27-0.09,0.52-0.25,0.73c-0.05,0.07-0.11,0.13-0.18,0.18
			C5.36,17.62,5,17.71,4.63,17.63c-0.41-0.08-0.76-0.4-0.88-0.81c-0.13-0.42-0.01-0.76,0.12-0.97c0.08-0.13,0.08-0.28,0.01-0.41
			c-0.07-0.13-0.21-0.21-0.36-0.21H1.81c-0.22,0-0.67,0-0.99,0.01C0.82,14.9,0.83,14.46,0.83,14.24z M9.15,21.13
			c-0.13,0.07-0.21,0.21-0.21,0.36v1.71c0,0.22,0,0.66,0.01,0.99c-0.33,0-0.77-0.01-0.99-0.01H1.8c-0.54,0-0.99-0.44-0.99-0.99
			v-7.14h2.1c-0.07,0.33-0.06,0.68,0.04,1.01c0.21,0.69,0.8,1.23,1.5,1.38c0.61,0.13,1.22-0.02,1.69-0.41
			c0.12-0.1,0.22-0.21,0.32-0.32c0.28-0.35,0.44-0.79,0.44-1.25c0-0.14-0.02-0.28-0.04-0.41h2.07c0.01,0,0.01,0,0.02,0
			c0,0.34-0.01,0.78-0.01,0.99v1.71c0,0.11,0.05,0.22,0.12,0.29c0.03,0.03,0.06,0.06,0.1,0.08c0.13,0.07,0.29,0.07,0.41-0.01
			c0.44-0.27,0.99-0.21,1.36,0.09c0.06,0.05,0.12,0.1,0.17,0.16c0.23,0.28,0.32,0.64,0.24,1.01c-0.08,0.41-0.4,0.76-0.81,0.88
			c-0.42,0.13-0.76,0.01-0.97-0.12C9.43,21.06,9.28,21.05,9.15,21.13z M17.89,17.05v6.15c0,0.54-0.44,0.99-0.99,0.99H9.77v-2.1
			c0.33,0.07,0.68,0.06,1.01-0.04c0.69-0.21,1.23-0.8,1.38-1.5c0.12-0.61-0.02-1.22-0.41-1.69c-0.12-0.15-0.26-0.28-0.42-0.38
			c-0.45-0.32-1.02-0.44-1.57-0.33v-2.09c0.34,0,0.78,0.01,0.99,0.01h1.71c0.15,0,0.28-0.08,0.36-0.21
			c0.07-0.13,0.07-0.29-0.01-0.41c-0.12-0.19-0.18-0.4-0.18-0.62c0-0.36,0.16-0.7,0.44-0.93c0.28-0.23,0.64-0.32,1.01-0.24
			c0.41,0.08,0.76,0.4,0.88,0.81c0.13,0.42,0.01,0.76-0.12,0.97c-0.08,0.13-0.08,0.28-0.01,0.41c0.07,0.13,0.21,0.21,0.36,0.21h1.71
			c0.22,0,0.67,0,0.99-0.01C17.89,16.38,17.89,16.82,17.89,17.05z"/>
		<path class="st4" d="M21.12,0c-1.67,0-3.09,1.06-3.63,2.54H14.4c-0.38,0-1.4-0.01-1.4-0.01c-0.12,0-0.22,0.04-0.29,0.12
			c-0.08,0.08-0.12,0.18-0.12,0.29c0,0,0.01,1.02,0.01,1.4v1.11c-0.33-0.07-0.68-0.06-1.02,0.04c-0.69,0.21-1.23,0.8-1.37,1.5
			c-0.12,0.61,0.03,1.22,0.41,1.69c0.47,0.58,1.25,0.86,1.98,0.7v1.11c0,0.34-0.01,1.39-0.01,1.39c0,0.11,0.04,0.21,0.12,0.29
			c0.08,0.08,0.18,0.12,0.29,0.12h3.12c0.15,0,0.28-0.08,0.36-0.21c0.07-0.13,0.07-0.29-0.01-0.41c-0.12-0.19-0.18-0.4-0.18-0.62
			c0-0.36,0.16-0.7,0.44-0.93c0.28-0.23,0.65-0.32,1.01-0.24c0.41,0.09,0.76,0.41,0.88,0.82c0.13,0.43,0,0.76-0.13,0.97
			c-0.08,0.13-0.08,0.28-0.01,0.41c0.07,0.13,0.21,0.21,0.36,0.21h3.1c0.23,0,0.41-0.18,0.41-0.41V7.55C23.89,7.03,25,5.58,25,3.88
			C25,1.74,23.26,0,21.12,0z M21.54,11.48h-2.1c0.07-0.33,0.06-0.68-0.04-1.01c-0.21-0.69-0.8-1.23-1.5-1.38
			c-0.61-0.13-1.22,0.02-1.7,0.41s-0.74,0.95-0.74,1.56c0,0.14,0.02,0.28,0.05,0.42H13.4c0-0.34,0.01-0.78,0.01-0.99V8.79
			c0-0.15-0.08-0.28-0.21-0.36c-0.13-0.07-0.29-0.07-0.41,0.01c-0.52,0.31-1.18,0.18-1.54-0.26c-0.23-0.28-0.32-0.64-0.24-1.01
			c0.08-0.41,0.4-0.76,0.81-0.88c0.42-0.13,0.76-0.01,0.97,0.12c0.13,0.08,0.28,0.08,0.41,0.01c0.13-0.07,0.21-0.21,0.21-0.36V4.34
			c0-0.22,0-0.67-0.01-0.99c0.33,0,0.77,0.01,0.99,0.01h2.89c-0.02,0.17-0.04,0.34-0.04,0.52c0,2.14,1.74,3.88,3.88,3.88
			c0.14,0,0.28-0.01,0.41-0.02V11.48z M22.35,6.68c-0.26,0.11-0.53,0.19-0.82,0.23c-0.14,0.02-0.27,0.03-0.41,0.03
			c-1.69,0-3.06-1.37-3.06-3.06c0-0.18,0.02-0.35,0.05-0.52c0.05-0.29,0.14-0.56,0.26-0.82c0.5-1.02,1.54-1.73,2.75-1.73
			c1.69,0,3.06,1.37,3.06,3.06C24.18,5.13,23.43,6.2,22.35,6.68z"/>
		<path class="st4" d="M22.36,2.39L22.01,2.8l-1.06,1.24l-0.84-0.82l-0.19-0.19c-0.16-0.16-0.42-0.15-0.58,0.01
			c-0.16,0.16-0.15,0.42,0.01,0.58l1.35,1.31c0.08,0.07,0.18,0.11,0.28,0.11c0.01,0,0.01,0,0.02,0c0.11-0.01,0.22-0.06,0.29-0.14
			l1.69-1.98c0.15-0.17,0.13-0.43-0.05-0.58C22.76,2.2,22.5,2.22,22.36,2.39z"/>
	</g>
</g>
</svg>
