<?xml version="1.0" encoding="utf-8"?>
<!-- Generator: Adobe Illustrator 24.0.1, SVG Export Plug-In . SVG Version: 6.00 Build 0)  -->
<svg version="1.1" id="Layer_1" xmlns="http://www.w3.org/2000/svg" xmlns:xlink="http://www.w3.org/1999/xlink" x="0px" y="0px"
	 viewBox="0 0 25 25" style="enable-background:new 0 0 25 25;" xml:space="preserve">
<style type="text/css">
	.st0{fill:#C7E0D1;}
	.st1{fill:#E6F1EA;}
	.st2{fill:#FAAF40;}
	.st3{fill:#E9DD7F;}
	.st4{fill:#03675F;}
	.st5{fill:#FFFFFF;}
	.st6{fill:none;}
	.st7{fill:none;stroke:#231F20;stroke-width:2;stroke-linecap:round;stroke-miterlimit:10;}
	.st8{fill:none;stroke:#03675F;stroke-width:2;stroke-linecap:round;stroke-linejoin:round;stroke-miterlimit:10;}
</style>
<g>
	<path class="st2" d="M5.36,19.12c-2.52,0.01-4.55-1.98-4.55-4.43c0-2.44,2.02-4.44,4.5-4.44c2.54,0,4.58,1.96,4.58,4.43
		C9.89,17.14,7.89,19.11,5.36,19.12z M1.7,14.68c-0.01,1.96,1.63,3.56,3.64,3.57c2.02,0.01,3.67-1.59,3.67-3.57
		c0-1.96-1.63-3.56-3.64-3.57C3.35,11.1,1.71,12.7,1.7,14.68z"/>
	<path class="st2" d="M19.63,19.12c-2.54-0.01-4.53-1.99-4.52-4.48c0.01-2.45,2.05-4.41,4.59-4.4c2.49,0.01,4.5,2.01,4.49,4.47
		C24.18,17.15,22.14,19.13,19.63,19.12z M23.3,14.69c0-1.98-1.64-3.58-3.66-3.57c-2.01,0.01-3.65,1.61-3.65,3.57
		c0,1.97,1.64,3.58,3.66,3.57C21.67,18.25,23.3,16.65,23.3,14.69z"/>
	<path class="st0" d="M15.45,11.36c0.02-0.34,0.05-0.69,0.06-1.03c0.02-0.56,0-1.12,0.03-1.68c0.07-1.28,1.12-2.45,2.42-2.71
		c1.73-0.34,3.28,0.65,3.73,2.32c0.16,0.59,0.46,1.14,0.7,1.72c0.03,0.07,0.06,0.13,0.07,0.23c-1.16-0.65-2.39-0.89-3.7-0.68
		C17.45,9.73,16.36,10.37,15.45,11.36z"/>
	<path class="st0" d="M2.52,10.17C2.71,9.75,2.91,9.33,3.08,8.9C3.23,8.51,3.34,8.1,3.5,7.72c0.55-1.28,1.87-2,3.29-1.82
		c1.33,0.17,2.44,1.24,2.64,2.56C9.46,8.63,9.46,8.8,9.46,8.97c0.02,0.68,0.04,1.36,0.06,2.04c0,0.12,0.01,0.23,0,0.36
		c-0.88-0.99-1.95-1.63-3.27-1.85c-1.31-0.21-2.55,0.01-3.7,0.69C2.55,10.2,2.53,10.19,2.52,10.17z"/>
	<path class="st1" d="M10.26,9.9c1.5,0,2.97,0,4.45,0c0,0.14,0.01,0.28,0,0.42c-0.06,0.91-0.12,1.83-0.2,2.74
		c-0.03,0.37-0.11,0.73-0.19,1.09c-0.01,0.04-0.13,0.1-0.2,0.1c-0.62,0.01-1.25,0-1.87,0c-0.46,0-0.93,0-1.39,0
		c-0.13,0-0.17-0.04-0.2-0.16c-0.24-1.12-0.25-2.25-0.34-3.39C10.3,10.44,10.28,10.18,10.26,9.9z M12.5,13.33
		c0.77-0.01,1.4-0.62,1.39-1.37c0-0.75-0.64-1.37-1.4-1.37c-0.77,0.01-1.4,0.63-1.39,1.38C11.1,12.72,11.73,13.33,12.5,13.33z"/>
	<path class="st4" d="M1.7,14.68c0.01-1.98,1.65-3.58,3.66-3.57c2.01,0.01,3.65,1.61,3.64,3.57c0,1.97-1.65,3.57-3.67,3.57
		C3.33,18.24,1.7,16.64,1.7,14.68z M2.51,14.69c-0.01,1.52,1.25,2.76,2.82,2.77c1.58,0.01,2.85-1.21,2.85-2.76
		c0.01-1.53-1.25-2.78-2.8-2.79C3.79,11.89,2.52,13.11,2.51,14.69z"/>
	<path class="st4" d="M23.3,14.69c0,1.96-1.63,3.56-3.65,3.56c-2.02,0-3.66-1.6-3.66-3.57c0-1.96,1.64-3.56,3.65-3.57
		C21.66,11.11,23.3,12.7,23.3,14.69z M22.48,14.7c0-1.56-1.25-2.8-2.84-2.8c-1.56,0-2.84,1.24-2.84,2.76c0,1.56,1.25,2.79,2.84,2.79
		C21.22,17.45,22.48,16.22,22.48,14.7z"/>
	<path class="st5" d="M2.51,14.69c0.01-1.57,1.27-2.79,2.87-2.78c1.55,0.01,2.81,1.27,2.8,2.79c-0.01,1.54-1.28,2.76-2.85,2.76
		C3.77,17.44,2.51,16.21,2.51,14.69z"/>
	<path class="st5" d="M22.48,14.7c0,1.52-1.27,2.75-2.84,2.75c-1.59,0-2.84-1.23-2.84-2.79c0-1.52,1.28-2.76,2.84-2.76
		C21.23,11.9,22.48,13.14,22.48,14.7z"/>
	<path class="st5" d="M12.5,11.39c0.32,0,0.6,0.27,0.59,0.59c-0.01,0.31-0.28,0.56-0.59,0.56c-0.31,0-0.58-0.26-0.59-0.57
		C11.9,11.66,12.18,11.39,12.5,11.39z"/>
	<g>
		<path class="st4" d="M24.52,12.54c-0.19-0.42-0.46-0.8-0.66-1.22c-0.29-0.61-0.55-1.23-0.82-1.86c-0.19-0.45-0.45-0.89-0.56-1.36
			c-0.39-1.65-1.9-2.94-3.57-3.01C17.02,5.01,15.4,6.1,14.9,7.81c-0.12,0.4-0.15,0.83-0.23,1.26c-1.44,0-2.9,0-4.38,0
			c0-0.07-0.01-0.13-0.01-0.18c0-0.57-0.13-1.11-0.38-1.63C9.22,5.85,7.76,5.01,6.07,5.09C4.6,5.15,3.19,6.19,2.68,7.58
			c-0.12,0.33-0.21,0.68-0.35,1c-0.24,0.57-0.49,1.14-0.74,1.7c-0.22,0.49-0.4,1.01-0.69,1.47c-0.77,1.21-1.07,2.5-0.81,3.89
			c0.55,3.01,3.71,4.92,6.73,4.07c2.08-0.58,3.58-2.29,3.84-4.42c0.03-0.21,0.1-0.26,0.31-0.26c1.02,0.01,2.05,0.01,3.07,0.01
			c0.08,0,0.16,0,0.25,0c0.02,0.13,0.04,0.24,0.05,0.35c0.44,3.17,3.65,5.21,6.79,4.31C24.26,18.82,25.87,15.44,24.52,12.54z
			 M3.08,8.9C3.23,8.51,3.34,8.1,3.5,7.72c0.55-1.28,1.87-2,3.29-1.82c1.33,0.17,2.44,1.24,2.64,2.56C9.46,8.63,9.46,8.8,9.46,8.97
			c0.02,0.68,0.04,1.36,0.06,2.04c0,0.12,0.01,0.23,0,0.36c-0.88-0.99-1.95-1.63-3.27-1.85c-1.31-0.21-2.55,0.01-3.7,0.69
			c-0.01-0.02-0.02-0.03-0.03-0.05C2.71,9.75,2.91,9.33,3.08,8.9z M5.36,19.12c-2.52,0.01-4.55-1.98-4.55-4.43
			c0-2.44,2.02-4.44,4.5-4.44c2.54,0,4.58,1.96,4.58,4.43C9.89,17.14,7.89,19.11,5.36,19.12z M14.71,10.32
			c-0.06,0.91-0.12,1.83-0.2,2.74c-0.03,0.37-0.11,0.73-0.19,1.09c-0.01,0.04-0.13,0.1-0.2,0.1c-0.62,0.01-1.25,0-1.87,0
			c-0.46,0-0.93,0-1.39,0c-0.13,0-0.17-0.04-0.2-0.16c-0.24-1.12-0.25-2.25-0.34-3.39c-0.02-0.26-0.04-0.52-0.06-0.8
			c1.5,0,2.97,0,4.45,0C14.71,10.04,14.72,10.18,14.71,10.32z M15.52,10.33c0.02-0.56,0-1.12,0.03-1.68
			c0.07-1.28,1.12-2.45,2.42-2.71c1.73-0.34,3.28,0.65,3.73,2.32c0.16,0.59,0.46,1.14,0.7,1.72c0.03,0.07,0.06,0.13,0.07,0.23
			c-1.16-0.65-2.39-0.89-3.7-0.68c-1.32,0.21-2.4,0.85-3.31,1.84C15.47,11.02,15.5,10.67,15.52,10.33z M19.63,19.12
			c-2.54-0.01-4.53-1.99-4.52-4.48c0.01-2.45,2.05-4.41,4.59-4.4c2.49,0.01,4.5,2.01,4.49,4.47C24.18,17.15,22.14,19.13,19.63,19.12
			z"/>
		<path class="st4" d="M12.49,10.59c-0.77,0.01-1.4,0.63-1.39,1.38c0,0.75,0.63,1.37,1.4,1.36c0.77-0.01,1.4-0.62,1.39-1.37
			C13.89,11.2,13.26,10.58,12.49,10.59z M12.5,12.53c-0.31,0-0.58-0.26-0.59-0.57c-0.01-0.31,0.27-0.58,0.59-0.58
			c0.32,0,0.6,0.27,0.59,0.59C13.08,12.28,12.81,12.54,12.5,12.53z"/>
		<path class="st4" d="M5.34,12.25c-0.16,0-0.28,0.05-0.38,0.15c-0.1,0.1-0.14,0.24-0.14,0.41c0,0.13,0.01,0.34,0.03,0.64L4.96,15
			c0.02,0.2,0.05,0.35,0.1,0.44c0.05,0.1,0.13,0.15,0.25,0.15c0.12,0,0.2-0.05,0.25-0.15c0.05-0.1,0.08-0.24,0.1-0.43l0.14-1.58
			c0.02-0.15,0.02-0.29,0.02-0.43c0-0.24-0.03-0.42-0.1-0.55C5.65,12.32,5.53,12.25,5.34,12.25z"/>
		<path class="st4" d="M5.31,16.15c-0.14,0-0.25,0.05-0.35,0.14c-0.1,0.09-0.14,0.21-0.14,0.34c0,0.15,0.05,0.27,0.15,0.35
			c0.1,0.08,0.22,0.13,0.35,0.13c0.13,0,0.25-0.04,0.34-0.13c0.1-0.09,0.15-0.2,0.15-0.35c0-0.13-0.05-0.25-0.15-0.34
			C5.57,16.19,5.45,16.15,5.31,16.15z"/>
		<path class="st4" d="M19.62,15.93c-0.12,0-0.22,0.04-0.3,0.12c-0.08,0.08-0.12,0.17-0.12,0.29c0,0.13,0.04,0.23,0.13,0.3
			c0.08,0.07,0.18,0.11,0.3,0.11c0.11,0,0.21-0.04,0.29-0.11c0.08-0.07,0.13-0.17,0.13-0.3c0-0.11-0.04-0.21-0.12-0.29
			C19.83,15.97,19.73,15.93,19.62,15.93z"/>
		<path class="st4" d="M20.4,12.76c-0.21-0.1-0.44-0.15-0.71-0.15c-0.29,0-0.54,0.06-0.76,0.17c-0.22,0.12-0.38,0.26-0.5,0.44
			c-0.11,0.18-0.17,0.35-0.17,0.53c0,0.08,0.04,0.16,0.11,0.23c0.07,0.07,0.16,0.11,0.26,0.11c0.18,0,0.3-0.1,0.36-0.31
			c0.07-0.2,0.15-0.35,0.25-0.45c0.1-0.1,0.25-0.15,0.45-0.15c0.17,0,0.32,0.05,0.43,0.15c0.11,0.1,0.17,0.22,0.17,0.37
			c0,0.07-0.02,0.14-0.05,0.21c-0.04,0.06-0.08,0.12-0.13,0.17s-0.14,0.13-0.26,0.23c-0.14,0.12-0.24,0.22-0.32,0.3
			c-0.08,0.08-0.14,0.18-0.19,0.29c-0.05,0.11-0.07,0.24-0.07,0.4c0,0.12,0.03,0.21,0.1,0.28c0.07,0.06,0.15,0.09,0.24,0.09
			c0.19,0,0.3-0.09,0.33-0.28c0.02-0.09,0.04-0.15,0.05-0.19c0.01-0.04,0.02-0.07,0.04-0.11c0.02-0.04,0.05-0.07,0.09-0.12
			c0.04-0.04,0.09-0.09,0.15-0.15c0.23-0.2,0.39-0.34,0.48-0.43c0.09-0.08,0.16-0.19,0.23-0.3c0.06-0.12,0.1-0.25,0.1-0.41
			c0-0.2-0.06-0.38-0.17-0.55C20.76,12.99,20.6,12.86,20.4,12.76z"/>
	</g>
</g>
</svg>
