<svg id="Layer_1" data-name="Layer 1" xmlns="http://www.w3.org/2000/svg" viewBox="0 0 25 25"><defs><style>.cls-1{fill:#03675f;}.cls-2{fill:#e9dd7f;}.cls-3{fill:#e6f1ea;}.cls-4{fill:#faaf40;}.cls-5{fill:#fff;}.cls-6{fill:#6ab98b;}</style></defs><title>Inonite _export_25px_9</title><path class="cls-1" d="M12.27,23.9H6A3.1,3.1,0,0,1,3,22a3.33,3.33,0,0,1-.28-1.32q0-8.33,0-16.64A3.14,3.14,0,0,1,6,.87h4.83c1.16,0,2.32,0,3.48,0A3.35,3.35,0,0,1,16.8,1.92c1.34,1.36,2.69,2.7,4.05,4.05a3.37,3.37,0,0,1,1,2.49c0,4,0,8.08,0,12.12a3.18,3.18,0,0,1-3.32,3.32C16.47,23.91,14.37,23.9,12.27,23.9ZM4,12.36v8.21a1.9,1.9,0,0,0,2,2.05H18.55a2.46,2.46,0,0,0,.67-.08,1.84,1.84,0,0,0,1.37-1.87c0-3.52,0-7,0-10.54V8.21c0-.23-.07-.31-.31-.31H17.12a2.2,2.2,0,0,1-2.28-2.28V2.74c0-.59,0-.59-.58-.59H6A1.89,1.89,0,0,0,4,4.2ZM16.14,3.19s0,.12,0,.2V5.6a.94.94,0,0,0,1,1h2.18l.22,0Z"/><path class="cls-2" d="M4,12.36V4.2A1.89,1.89,0,0,1,6,2.15h8.23c.58,0,.58,0,.58.59V5.63a2.2,2.2,0,0,0,2.28,2.28h3.16c.24,0,.32.08.31.31v1.92c0,3.51,0,7,0,10.54a1.84,1.84,0,0,1-1.37,1.87,2.46,2.46,0,0,1-.67.08H6a1.9,1.9,0,0,1-2-2.05Zm8.31,5.15c-1.38,0-2.75,0-4.13,0a.62.62,0,0,0-.66.6.64.64,0,0,0,.6.67h6c.72,0,1.44,0,2.16,0a1.07,1.07,0,0,0,.55-.16.58.58,0,0,0,.21-.67.63.63,0,0,0-.64-.44C15,17.5,13.65,17.51,12.28,17.51Zm0-3.85H8.15a.62.62,0,0,0-.66.63.63.63,0,0,0,.65.64h8.07a1.74,1.74,0,0,0,.32,0,.64.64,0,0,0-.17-1.26Zm0-2.56h4.16a.64.64,0,0,0,0-1.27H8.21a.68.68,0,0,0-.62.3.62.62,0,0,0,0,.64.66.66,0,0,0,.63.34ZM10,7.26h1.86a.64.64,0,1,0,0-1.28Q10,6,8.16,6a.64.64,0,0,0-.67.66.63.63,0,0,0,.7.62Z"/><path class="cls-3" d="M16.14,3.19l3.42,3.42-.22,0H17.16a.94.94,0,0,1-1-1V3.39C16.12,3.31,16.14,3.23,16.14,3.19Z"/><path class="cls-1" d="M12.28,17.51c1.37,0,2.75,0,4.13,0a.63.63,0,0,1,.64.44.58.58,0,0,1-.21.67,1.07,1.07,0,0,1-.55.16c-.72,0-1.44,0-2.16,0h-6a.64.64,0,0,1-.6-.67.62.62,0,0,1,.66-.6C9.53,17.5,10.9,17.51,12.28,17.51Z"/><path class="cls-1" d="M12.31,13.66h4a.64.64,0,0,1,.17,1.26,1.74,1.74,0,0,1-.32,0H8.14a.63.63,0,0,1-.65-.64.62.62,0,0,1,.66-.63Z"/><path class="cls-1" d="M12.29,11.1H8.19a.66.66,0,0,1-.63-.34.62.62,0,0,1,0-.64.68.68,0,0,1,.62-.3h8.26a.64.64,0,0,1,0,1.27H12.29Z"/><path class="cls-1" d="M10,7.26H8.19a.63.63,0,0,1-.7-.62A.64.64,0,0,1,8.16,6Q10,6,11.91,6a.64.64,0,1,1,0,1.28Z"/><circle class="cls-4" cx="5.91" cy="4.15" r="3.65"/><path class="cls-1" d="M5.91,8.29a4.15,4.15,0,1,1,4.15-4.14A4.15,4.15,0,0,1,5.91,8.29ZM5.91,1A3.15,3.15,0,1,0,9.06,4.15,3.15,3.15,0,0,0,5.91,1Z"/><path class="cls-5" d="M6.71,5.15l-.15-.4H5.27l-.15.41A1.15,1.15,0,0,1,5,5.48a.25.25,0,0,1-.2.08.33.33,0,0,1-.22-.09.27.27,0,0,1-.09-.2.59.59,0,0,1,0-.13L4.54,5l.82-2.06.08-.22a1.23,1.23,0,0,1,.1-.2.5.5,0,0,1,.15-.14.51.51,0,0,1,.44,0,.64.64,0,0,1,.15.13.61.61,0,0,1,.09.18c0,.06.06.14.1.24L7.3,4.93a1.06,1.06,0,0,1,.09.34.28.28,0,0,1-.09.2.29.29,0,0,1-.22.09.28.28,0,0,1-.13,0,.16.16,0,0,1-.09-.07l-.08-.14ZM5.44,4.27h.94L5.91,3Z"/><circle class="cls-6" cx="19.09" cy="20.85" r="3.65"/><path class="cls-1" d="M19.09,25a4.15,4.15,0,1,1,4.14-4.15A4.15,4.15,0,0,1,19.09,25Zm0-7.29a3.15,3.15,0,1,0,3.14,3.14A3.15,3.15,0,0,0,19.09,17.71Z"/><path class="cls-5" d="M18,21.54l1.63-1.95h-1.4a.34.34,0,0,1-.22-.06.21.21,0,0,1-.08-.17.22.22,0,0,1,.08-.18.29.29,0,0,1,.22-.07H20c.24,0,.35.11.35.33a.49.49,0,0,1-.06.25,2,2,0,0,1-.23.3L18.57,21.8h1.67a.37.37,0,0,1,.23.06.21.21,0,0,1,.07.17.25.25,0,0,1-.07.19.37.37,0,0,1-.23.06H18.18a.46.46,0,0,1-.31-.09.33.33,0,0,1-.11-.25.3.3,0,0,1,0-.1.41.41,0,0,1,0-.09l.08-.1Z"/></svg>