<svg width="785" height="125" viewBox="0 0 785 125" fill="none" xmlns="http://www.w3.org/2000/svg">
<g clip-path="url(#clip0_204_221)">
<path opacity="0.2" d="M647.193 0.926079C647.193 6.68133 648.326 12.3802 650.529 17.6974C652.731 23.0145 655.959 27.8458 660.029 31.9154C664.099 35.985 668.93 39.2131 674.247 41.4156C679.564 43.618 685.263 44.7516 691.018 44.7516C696.774 44.7516 702.472 43.618 707.79 41.4156C713.107 39.2131 717.938 35.985 722.008 31.9154C726.077 27.8458 729.305 23.0145 731.508 17.6974C733.71 12.3802 734.844 6.68131 734.844 0.926064L691.018 0.926077L647.193 0.926079Z" fill="white"/>
<path opacity="0.1" d="M646.799 73.3216C646.799 80.0715 645.469 86.7552 642.886 92.9913C640.303 99.2273 636.517 104.894 631.744 109.666C626.971 114.439 621.305 118.225 615.069 120.808C608.833 123.391 602.149 124.721 595.399 124.721C588.649 124.721 581.966 123.391 575.73 120.808C569.494 118.225 563.827 114.439 559.054 109.666C554.282 104.894 550.496 99.2273 547.913 92.9912C545.329 86.7552 544 80.0714 544 73.3216L595.399 73.3216H646.799Z" fill="white"/>
<rect opacity="0.1" x="734.832" y="44.5142" width="87.9637" height="87.9648" transform="rotate(90 734.832 44.5142)" fill="white"/>
<path opacity="0.07" d="M642.352 169.224L691.594 121.329L734.783 76.7923L734.783 169.224L642.352 169.224Z" fill="white"/>
<circle opacity="0.07" cx="780.952" cy="127.948" r="46.0516" transform="rotate(90 780.952 127.948)" fill="white"/>
<rect opacity="0.2" x="827.261" y="-10" width="92.4318" height="92.433" transform="rotate(90 827.261 -10)" fill="white"/>
<path opacity="0.2" d="M816.406 0.436951L772.954 42.7L734.843 81.9998L734.843 0.436947L816.406 0.436951Z" fill="white"/>
<path opacity="0.1" d="M-3.99996 -3.00001C4.7986 -3.00001 13.511 -1.267 21.6398 2.10007C29.7686 5.46714 37.1546 10.4023 43.3762 16.6238C49.5977 22.8454 54.5329 30.2314 57.8999 38.3602C61.267 46.489 63 55.2014 63 64C63 72.7986 61.267 81.511 57.8999 89.6398C54.5329 97.7686 49.5977 105.155 43.3761 111.376C37.1546 117.598 29.7686 122.533 21.6398 125.9C13.511 129.267 4.79856 131 -4 131L-3.99997 64L-3.99996 -3.00001Z" fill="white"/>
</g>
<defs>
<clipPath id="clip0_204_221">
<rect width="785" height="125" rx="16" fill="white"/>
</clipPath>
</defs>
</svg>
