<?xml version="1.0" encoding="UTF-8"?>
<svg id="Layer_2" data-name="Layer 2" width="150" height="150" xmlns="http://www.w3.org/2000/svg" viewBox="0 0 103 194">
  <defs>
    <style>
      .cls-1 {
        fill: transparent;
      }

      .cls-1, .cls-2, .cls-3 {
        stroke-width: 0px;
      }

      .cls-2 {
        fill: #2d2d2d;
      }

      .cls-3 {
        fill: transparent;
      }
    </style>
  </defs>
  <g id="Layer_1-2" data-name="Layer 1">
    <g>
      <path class="cls-3" d="M4.78,0h98.22v194h-10.82c1.71-1.97,3.35-4.01,5.16-5.89,2.98-3.1,5.03-5.18,2.58-10.35-1.34-2.84-2.55-5.74-3.91-8.58-.68-1.42-1.54-2.76-2.43-4.32-3.78,3.58-2.07,7.07-.59,10.68-.55-.07-1-.02-1.32-.19-4.58-2.53-9.27-4.89-13.65-7.72-2.84-1.83-5.34-4.26-7.81-6.61-6.19-5.91-11.88-12.32-16.84-19.29-4.48-6.3-8.84-12.74-12.58-19.5-4.68-8.45-9.08-17.12-12.85-26.01-3.62-8.55-6.58-17.42-9.29-26.32C12.84,50.82,9.18,31.27,6.73,11.49c-.48-3.85-1.29-7.66-1.95-11.49Z"/>
      <path class="cls-1" d="M90.17,194H0V0h2.77c-.39,1.85-1.28,3.75-1.09,5.54,1.95,18.3,4.86,36.44,9.31,54.32,3.25,13.04,7.17,25.85,12.17,38.32,4.55,11.34,9.75,22.37,16.18,32.76,3.96,6.4,8.09,12.71,12.49,18.82,3.19,4.43,6.82,8.54,10.45,12.63,4.54,5.12,9.51,9.81,15.29,13.57,3.17,2.06,6.01,4.63,9.78,5.72,1.63.47,3.09,1.56,4.92,2.52-3.79,2.83-4.06,6.04-2.02,9.63.02.03-.05.12-.08.18Z"/>
      <path class="cls-2" d="M90.17,194c.03-.06.1-.14.08-.18-2.03-3.59-1.77-6.8,2.02-9.63-1.83-.96-3.28-2.05-4.92-2.52-3.78-1.09-6.62-3.66-9.78-5.72-5.78-3.76-10.75-8.44-15.29-13.57-3.62-4.09-7.26-8.2-10.45-12.63-4.39-6.11-8.53-12.42-12.49-18.82-6.44-10.39-11.63-21.41-16.18-32.76-5-12.48-8.92-25.29-12.17-38.32C6.55,41.98,3.63,23.84,1.69,5.54c-.19-1.79.7-3.69,1.09-5.54h2c.66,3.83,1.47,7.64,1.95,11.49,2.45,19.78,6.11,39.33,11.92,58.41,2.71,8.9,5.67,17.77,9.29,26.32,3.76,8.89,8.17,17.56,12.85,26.01,3.74,6.75,8.1,13.2,12.58,19.5,4.96,6.97,10.65,13.37,16.84,19.29,2.47,2.36,4.96,4.78,7.81,6.61,4.39,2.83,9.08,5.19,13.65,7.72.32.18.76.12,1.32.19-1.48-3.6-3.2-7.1.59-10.68.89,1.57,1.75,2.9,2.43,4.32,1.35,2.84,2.56,5.74,3.91,8.58,2.45,5.17.4,7.25-2.58,10.35-1.81,1.88-3.45,3.92-5.16,5.89h-2Z"/>
    </g>
  </g>
</svg>