<?xml version="1.0" encoding="utf-8"?>
<!-- Generator: Adobe Illustrator 24.0.1, SVG Export Plug-In . SVG Version: 6.00 Build 0)  -->
<svg version="1.1" id="Layer_1" xmlns="http://www.w3.org/2000/svg" xmlns:xlink="http://www.w3.org/1999/xlink" x="0px" y="0px"
	 viewBox="0 0 25 25" style="enable-background:new 0 0 25 25;" xml:space="preserve">
<style type="text/css">
	.st0{fill:#C7E0D1;}
	.st1{fill:#E6F1EA;}
	.st2{fill:#FAAF40;}
	.st3{fill:#E9DD7F;}
	.st4{fill:#03675F;}
	.st5{fill:#FFFFFF;}
	.st6{fill:none;}
	.st7{fill:none;stroke:#231F20;stroke-width:2;stroke-linecap:round;stroke-miterlimit:10;}
	.st8{fill:none;stroke:#03675F;stroke-width:2;stroke-linecap:round;stroke-linejoin:round;stroke-miterlimit:10;}
</style>
<g>
	<path class="st1" d="M8.06,6.58l-0.1-1.7l0.82-1.02l2.55-1.35l3.1-0.35c0,0,1.77,0.72,1.9,0.8c0.12,0.07,1,0.95,1,0.95l0.12,1.27
		l-0.42,0.87l-1.4,1.55l-2.25,0.8l-0.9,0.02L11.83,8.8l-1.4,0.45L9.61,8.3L9.48,7.58H8.76L8.06,6.58z"/>
	<path class="st0" d="M14.48,10.82c0,0-0.05-0.65-0.07-0.77c-0.02-0.12-0.5-0.47-0.5-0.47l-0.77-0.02c0,0-0.57,0.1-0.6,0.25
		c-0.02,0.15-0.3,0.7-0.3,0.7s-0.05,0.35-0.05,0.6s0,0.67,0,0.67s-0.03,0.42,0.17,0.5c0.2,0.08,0.75,0.2,0.93,0.23
		c0.17,0.02,0.82,0.02,0.82,0.02l2-0.22l0.52-0.55l-0.02-0.6l-0.27-0.67l-0.87-0.4l-0.77,0.37L14.48,10.82z"/>
	<path class="st2" d="M6.08,7.05V8.7l-1.3,1.02l0.12,0.5l1.27,0.32l0.75,1.8l0.72-0.37l0.67-0.95l1.25-0.07l0.55-0.17l-0.12-0.6
		l-0.85-1L9.63,7.6c0,0-0.15-0.22-0.22-0.22c-0.07,0-1.2,0.32-1.2,0.32L7.48,7.85L6.51,6.8L6.08,7.05z"/>
	<path class="st3" d="M4.36,12.49l-0.14,1.52l0.23,1.7l0.74,1.84c0,0,0.87,1.01,0.97,1.24c0.09,0.23,0.69,1.01,0.69,1.01l0.18,0.92
		l0.32,1.2l-0.41,1.79L6.7,24.63l7.59,0.05l0.28-1.52l2.21,0.55l2.21-0.28l0.41-0.92l0.32-1.2l0.32-1.29l-0.23-1.38l1.15-0.87
		l0.14-0.32l-2.12-3.13l0.18-1.56l-0.28-0.23l-1.66,0.64l-4.69,0.55l-5.56-0.41L4.36,12.49z"/>
	<path class="st4" d="M13.83,1.85c0.41-0.01,1.13,0.1,1.83,0.35c0.68,0.24,1.29,0.58,1.74,1.16c0.67,0.86,0.7,1.91,0.11,2.85
		c-0.51,0.8-1.24,1.34-2.07,1.76c-0.85,0.42-1.75,0.66-2.7,0.76c-0.17,0.02-0.33,0.07-0.48,0.17c-0.54,0.34-1.14,0.5-1.76,0.55
		c-0.24,0.02-0.41-0.14-0.43-0.36c-0.02-0.23,0.14-0.4,0.38-0.43c0.58-0.08,1.13-0.23,1.61-0.6c0.11-0.08,0.28-0.1,0.42-0.11
		c0.99-0.09,1.93-0.34,2.81-0.81c0.64-0.35,1.21-0.79,1.58-1.43c0.44-0.77,0.28-1.58-0.4-2.14c-0.52-0.43-1.12-0.65-1.77-0.78
		C13.55,2.56,12.42,2.65,11.3,3c-0.89,0.27-1.7,0.69-2.35,1.37C8.56,4.77,8.28,5.23,8.29,5.81c0,0.16,0.04,0.33,0.09,0.49
		c0.07,0.26-0.02,0.47-0.24,0.55C7.91,6.93,7.69,6.81,7.6,6.56C7.33,5.7,7.52,4.91,8.04,4.2c0.54-0.75,1.28-1.25,2.11-1.63
		C11.21,2.08,12.33,1.86,13.83,1.85z"/>
	<path class="st4" d="M11.69,10.91c-0.01-0.95,0.61-1.73,1.46-1.88c0.5-0.09,1.12,0.17,1.45,0.65c0.19,0.27,0.19,0.27,0.52,0.18
		c0.97-0.29,1.95,0.43,1.96,1.45c0,0.16-0.02,0.34-0.1,0.47c-0.08,0.14-0.25,0.22-0.44,0.14c-0.16-0.07-0.27-0.25-0.28-0.45
		c-0.01-0.26-0.02-0.53-0.26-0.72c-0.29-0.24-0.72-0.2-1.07,0.1c-0.05,0.05-0.11,0.1-0.17,0.14c-0.25,0.16-0.55,0.02-0.61-0.26
		c-0.03-0.14-0.06-0.28-0.12-0.41c-0.12-0.28-0.34-0.49-0.66-0.49c-0.33,0-0.57,0.19-0.74,0.47c-0.26,0.45-0.16,0.89,0.05,1.32
		c0.05,0.1,0.07,0.23,0.06,0.34c-0.03,0.2-0.17,0.29-0.4,0.32c-0.17,0.02-0.29-0.07-0.36-0.22C11.82,11.68,11.68,11.29,11.69,10.91z
		"/>
	<path class="st4" d="M18.12,10.49c-0.3-0.06-0.69-0.12-1.07-0.2c-0.24-0.05-0.37-0.28-0.32-0.5c0.06-0.22,0.28-0.34,0.52-0.27
		c0.48,0.14,0.98,0.21,1.47,0.11c0.19-0.04,0.38-0.11,0.55-0.21c0.36-0.22,0.45-0.58,0.29-1.01c-0.18-0.46-0.51-0.81-0.91-1.09
		c-0.24-0.17-0.5-0.3-0.76-0.45c-0.24-0.13-0.34-0.34-0.25-0.54c0.1-0.23,0.33-0.3,0.59-0.19c0.8,0.36,1.48,0.87,1.92,1.65
		c0.32,0.57,0.41,1.17,0.07,1.76c-0.29,0.52-0.78,0.76-1.35,0.87C18.67,10.46,18.44,10.46,18.12,10.49z"/>
	<path class="st0" d="M8.02,1.53c0.21,0.11,0.41,0.22,0.61,0.33c0.24,0.13,0.32,0.35,0.21,0.57C8.74,2.64,8.5,2.7,8.26,2.57
		c-0.2-0.1-0.4-0.21-0.62-0.32C7.53,2.47,7.42,2.67,7.31,2.87C7.18,3.1,6.98,3.18,6.78,3.09C6.54,2.98,6.46,2.75,6.59,2.51
		C6.67,2.34,6.76,2.17,6.86,2C6.91,1.91,6.9,1.85,6.8,1.8C6.62,1.72,6.45,1.63,6.29,1.53c-0.22-0.12-0.3-0.35-0.2-0.55
		C6.2,0.77,6.42,0.7,6.65,0.82C6.82,0.9,6.99,0.98,7.14,1.07c0.11,0.07,0.18,0.06,0.24-0.07c0.08-0.17,0.17-0.33,0.26-0.49
		C7.76,0.3,7.98,0.22,8.19,0.33c0.2,0.1,0.28,0.32,0.17,0.55C8.26,1.09,8.14,1.29,8.02,1.53z"/>
	<path class="st3" d="M2.66,4.58c0-0.66,0.51-1.16,1.17-1.16C4.47,3.43,5,3.95,5,4.59c0,0.34-0.13,0.63-0.38,0.86
		c-0.1,0.09-0.13,0.16-0.09,0.29c0.03,0.1,0.03,0.22,0.02,0.33c-0.02,0.17-0.13,0.27-0.3,0.29C4.08,6.4,3.9,6.37,3.84,6.2
		c-0.1-0.29-0.19-0.58-0.22-0.88C3.59,5.14,3.73,5.01,3.92,4.94C4.06,4.9,4.16,4.8,4.18,4.64C4.19,4.49,4.15,4.38,4.02,4.3
		C3.9,4.21,3.78,4.21,3.65,4.28c-0.14,0.08-0.21,0.2-0.19,0.36c0.03,0.31-0.09,0.51-0.33,0.53C2.85,5.19,2.68,5.02,2.66,4.69
		C2.66,4.65,2.66,4.62,2.66,4.58z"/>
	<path class="st2" d="M23.19,12.5c0.13-0.07,0.24-0.13,0.36-0.19c0.25-0.13,0.49-0.08,0.61,0.13c0.11,0.2,0.03,0.43-0.21,0.57
		c-0.12,0.07-0.24,0.13-0.37,0.21c0.07,0.14,0.14,0.26,0.2,0.39c0.12,0.23,0.06,0.48-0.15,0.59c-0.2,0.11-0.43,0.02-0.56-0.2
		c-0.06-0.11-0.1-0.28-0.2-0.33c-0.07-0.04-0.22,0.07-0.34,0.11c-0.04,0.01-0.08,0.03-0.12,0.05c-0.23,0.1-0.46,0.02-0.54-0.18
		c-0.09-0.22,0.01-0.47,0.23-0.57c0.37-0.17,0.36-0.16,0.18-0.54c-0.06-0.12-0.1-0.29-0.07-0.41c0.03-0.11,0.17-0.22,0.29-0.25
		c0.17-0.04,0.35,0.02,0.45,0.2C23.03,12.21,23.1,12.34,23.19,12.5z"/>
	<path class="st2" d="M2.2,12.87C2.11,12.94,2.05,13,1.98,13.05c-0.2,0.16-0.45,0.15-0.6-0.03c-0.15-0.18-0.13-0.4,0.07-0.59
		c0.18-0.17,0.18-0.17,0.02-0.38c-0.15-0.19-0.15-0.44,0.02-0.58c0.17-0.15,0.42-0.12,0.59,0.06c0.18,0.19,0.18,0.19,0.39,0.03
		c0.17-0.14,0.36-0.15,0.51-0.05c0.15,0.1,0.24,0.31,0.17,0.45c-0.04,0.08-0.11,0.15-0.18,0.22c-0.16,0.14-0.18,0.2-0.03,0.34
		c0.26,0.25,0.16,0.46-0.01,0.62c-0.18,0.17-0.42,0.13-0.61-0.09C2.3,12.99,2.25,12.93,2.2,12.87z"/>
	<path class="st2" d="M21.58,1.9c0.06,0.1,0.11,0.19,0.16,0.28c0.1,0.2,0.03,0.43-0.15,0.53c-0.19,0.11-0.4,0.06-0.54-0.13
		c-0.01-0.01-0.01-0.02-0.02-0.03c-0.15-0.22-0.15-0.22-0.38-0.09c-0.21,0.12-0.44,0.07-0.56-0.1c-0.13-0.19-0.09-0.42,0.11-0.57
		c0.08-0.06,0.16-0.11,0.25-0.17c-0.14-0.28-0.38-0.56,0.01-0.81c0.14-0.09,0.3-0.09,0.42,0.02c0.11,0.1,0.19,0.23,0.3,0.36
		c0.06-0.04,0.13-0.08,0.2-0.12c0.22-0.13,0.46-0.09,0.59,0.11c0.13,0.19,0.07,0.42-0.15,0.57C21.73,1.8,21.66,1.85,21.58,1.9z"/>
	<path class="st3" d="M22.31,4.04c-0.01,0.04-0.04,0.13-0.08,0.2c-0.24,0.39-0.49,0.78-0.74,1.17c-0.1,0.16-0.24,0.26-0.44,0.21
		c-0.17-0.04-0.29-0.15-0.32-0.33C20.72,5.2,20.74,5.08,20.79,5c0.25-0.41,0.51-0.82,0.78-1.23c0.11-0.17,0.29-0.23,0.47-0.17
		C22.2,3.66,22.31,3.81,22.31,4.04z"/>
	<path class="st4" d="M16.42,4.5c-0.01,0.35-0.33,0.65-0.67,0.65c-0.36-0.01-0.66-0.33-0.65-0.68c0.01-0.37,0.32-0.66,0.68-0.64
		C16.13,3.84,16.43,4.15,16.42,4.5z"/>
	<path class="st4" d="M10.22,5.9c-0.01,0.37-0.31,0.66-0.68,0.65C9.19,6.54,8.89,6.23,8.9,5.88c0.01-0.35,0.32-0.64,0.67-0.64
		C9.93,5.25,10.22,5.55,10.22,5.9z"/>
	<path class="st4" d="M13.3,5.19c0,0.39-0.26,0.65-0.65,0.65C12.29,5.84,12,5.55,12,5.19c0-0.37,0.29-0.66,0.66-0.66
		C13.03,4.54,13.3,4.82,13.3,5.19z"/>
	<path class="st0" d="M1.29,7.91C1,7.9,0.78,7.68,0.79,7.39c0.01-0.27,0.26-0.52,0.53-0.5C1.6,6.9,1.84,7.16,1.83,7.42
		C1.81,7.71,1.57,7.92,1.29,7.91z"/>
	<path class="st3" d="M16.31,0c0.28,0,0.5,0.22,0.5,0.5c0,0.28-0.24,0.52-0.53,0.51c-0.28-0.01-0.51-0.24-0.5-0.52
		C15.79,0.21,16.01,0,16.31,0z"/>
	<path class="st0" d="M23.39,7.81c0,0.3-0.21,0.51-0.5,0.52c-0.29,0-0.52-0.22-0.52-0.5c-0.01-0.27,0.23-0.52,0.51-0.52
		C23.17,7.31,23.39,7.52,23.39,7.81z"/>
	<path class="st2" d="M3.79,1.7c-0.28,0-0.52-0.22-0.52-0.51c0-0.28,0.23-0.51,0.51-0.51c0.3,0,0.51,0.21,0.51,0.5
		C4.3,1.48,4.08,1.69,3.79,1.7z"/>
	<path class="st3" d="M4.43,6.63c0.24,0,0.43,0.18,0.43,0.41c0,0.23-0.19,0.43-0.42,0.42c-0.23,0-0.42-0.19-0.42-0.43
		C4.01,6.81,4.2,6.63,4.43,6.63z"/>
	<path class="st3" d="M21.01,6.06c0,0.22-0.19,0.41-0.41,0.41c-0.22,0.01-0.42-0.2-0.42-0.42c0-0.23,0.18-0.4,0.41-0.4
		C20.83,5.65,21.01,5.82,21.01,6.06z"/>
	<path class="st4" d="M21.43,17.16c-0.11-0.31-0.27-0.6-0.46-0.87c-0.46-0.65-0.94-1.27-1.42-1.9c-0.1-0.13-0.11-0.24-0.05-0.38
		c0.09-0.2,0.18-0.4,0.14-0.64c-0.06-0.35-0.11-0.7-0.16-1.04c-0.08-0.49-0.47-0.89-0.95-1c-0.17-0.04-0.37,0.07-0.44,0.24
		c-0.09,0.23-0.05,0.38,0.14,0.49c0.1,0.06,0.2,0.11,0.35,0.19c-0.15,0.07-0.25,0.14-0.37,0.18c-0.64,0.23-1.3,0.37-1.97,0.44
		c-0.48,0.05-0.96,0.15-1.44,0.18c-0.85,0.06-1.71,0.1-2.56,0.12c-0.46,0.01-0.92-0.01-1.38-0.02c-0.5-0.01-0.99-0.01-1.48-0.05
		c-0.57-0.04-1.14-0.12-1.71-0.17c-0.66-0.06-1.3-0.18-1.93-0.37c-0.23-0.07-0.45-0.15-0.67-0.24c-0.09-0.03-0.11-0.09-0.04-0.18
		c0.11-0.13,0.1-0.28,0-0.41c-0.13-0.17-0.36-0.23-0.52-0.16c-0.27,0.12-0.38,0.37-0.42,0.63c-0.08,0.46-0.15,0.94-0.16,1.4
		c-0.01,0.55,0.02,1.11,0.1,1.65c0.24,1.56,0.89,2.95,1.93,4.15c0.34,0.39,0.65,0.8,0.86,1.28c0.26,0.6,0.19,1.24,0.17,1.86
		c-0.03,0.63-0.26,1.2-0.54,1.76c0,0.01,0,0.02-0.01,0.03c-0.08,0.07-0.13,0.17-0.13,0.29c0,0.22,0.18,0.39,0.39,0.39h7.58
		c0.22,0,0.39-0.17,0.39-0.39c0-0.02-0.01-0.04-0.01-0.05c0-0.02,0.01-0.03,0.02-0.05c0.05-0.26,0.1-0.53,0.15-0.8
		c0.02-0.12,0.08-0.13,0.18-0.1c0.36,0.08,0.71,0.17,1.07,0.23c0.73,0.14,1.46,0.22,2.2,0.12c0.42-0.06,0.82-0.18,1.15-0.46
		c0.5-0.41,0.63-0.95,0.57-1.57c-0.01-0.12-0.04-0.27,0.02-0.34c0.23-0.31,0.25-0.63,0.17-0.99c-0.02-0.08,0.03-0.19,0.06-0.27
		c0.05-0.12,0.13-0.22,0.17-0.33c0.1-0.28,0.06-0.55-0.07-0.82c-0.17-0.33-0.16-0.32,0.16-0.51c0.22-0.14,0.45-0.28,0.64-0.45
		C21.43,17.94,21.57,17.56,21.43,17.16z M20.34,17.81c-0.22,0.14-0.44,0.27-0.66,0.4c-0.15,0.09-0.24,0.22-0.29,0.39
		c-0.07,0.29,0.01,0.54,0.13,0.8c0.16,0.33,0.16,0.33-0.09,0.59c-0.23,0.24-0.25,0.35-0.12,0.66c0.03,0.07,0.04,0.14,0.07,0.2
		c0.04,0.11,0.01,0.17-0.1,0.23c-0.19,0.11-0.25,0.25-0.2,0.47c0.02,0.1,0.05,0.2,0.07,0.3c0.14,0.67-0.08,1.06-0.72,1.25
		c-0.6,0.18-1.2,0.11-1.8,0.02c-1.09-0.16-2.14-0.46-3.17-0.84c-0.26-0.1-0.49-0.01-0.58,0.22c-0.08,0.22,0.03,0.43,0.3,0.53
		c0.24,0.09,0.48,0.17,0.73,0.25c0.11,0.04,0.16,0.07,0.13,0.22c-0.06,0.24-0.1,0.48-0.13,0.72H7.33c0.13-0.29,0.24-0.59,0.33-0.9
		c0.18-0.65,0.15-1.33,0.12-2c-0.01-0.26-0.08-0.52-0.16-0.77c-0.2-0.62-0.59-1.14-1.01-1.62c-1.41-1.62-2-3.51-1.89-5.64
		c0.01-0.16,0.05-0.2,0.2-0.13c0.54,0.24,1.11,0.36,1.68,0.46c0.42,0.08,0.84,0.12,1.26,0.15c0.93,0.08,1.86,0.17,2.8,0.19
		c1.04,0.03,2.09,0,3.13-0.04c1.03-0.04,2.07-0.11,3.08-0.32c0.41-0.09,0.83-0.19,1.24-0.29c0.22-0.06,0.44-0.13,0.71-0.21
		c0,0.12,0.02,0.23,0,0.33c-0.04,0.2-0.11,0.39-0.17,0.58c-0.08,0.21-0.07,0.41,0.07,0.59c0.24,0.32,0.47,0.63,0.71,0.95
		c0.36,0.49,0.73,0.98,1.08,1.49C20.76,17.42,20.72,17.57,20.34,17.81z"/>
	<path class="st4" d="M10.37,10.08c-0.08-0.11-0.16-0.21-0.24-0.32c-0.02-0.07-0.04-0.13-0.08-0.18c-0.1-0.13-0.2-0.25-0.29-0.38
		C9.72,9.15,9.68,9.08,9.69,9.04c0.04-0.15,0.08-0.3,0.12-0.45c0.01-0.02,0.01-0.03,0.01-0.05c0.04-0.14,0.08-0.28,0.14-0.41
		c0.01-0.02,0.01-0.05,0.02-0.08C10,8.04,10,8.02,10.01,8c0.01-0.02,0-0.03,0.01-0.05c0-0.02,0.01-0.05,0.01-0.07
		c0.04-0.23-0.01-0.45-0.16-0.63C9.86,7.23,9.86,7.22,9.85,7.21C9.84,7.2,9.83,7.2,9.83,7.19c0,0,0,0,0-0.01
		C9.82,7.18,9.81,7.18,9.8,7.17C9.75,7.12,9.7,7.08,9.64,7.05C9.62,7.04,9.61,7.04,9.59,7.03c-0.05-0.02-0.1-0.04-0.16-0.06
		c-0.01,0-0.02,0-0.03,0C9.26,6.95,9.12,6.95,8.99,7C8.67,7.11,8.35,7.22,8.03,7.35C8.01,7.35,8,7.35,7.99,7.36
		C7.86,7.37,7.76,7.33,7.64,7.23C7.37,7.02,7.09,6.8,6.79,6.63C6.47,6.46,6.12,6.55,5.9,6.78C5.72,6.94,5.64,7.16,5.65,7.42
		C5.66,7.71,5.66,8.01,5.69,8.3c0.01,0.13-0.01,0.22-0.07,0.3C5.61,8.61,5.59,8.63,5.57,8.64C5.28,8.84,5,9.04,4.72,9.25
		C4.5,9.42,4.4,9.64,4.41,9.91c0,0.01,0,0.03,0,0.04c0,0.03,0,0.05,0.01,0.08c0,0.01,0.01,0.02,0.01,0.03
		c0.05,0.26,0.23,0.5,0.52,0.59c0.34,0.11,0.68,0.21,1.02,0.3c0.01,0,0.01,0,0.02,0.01c0.07,0.03,0.13,0.1,0.16,0.16
		c0.09,0.2,0.14,0.41,0.22,0.6c0,0.01,0.01,0.01,0.01,0.02c0.04,0.13,0.09,0.27,0.13,0.4c0.11,0.3,0.32,0.48,0.65,0.52
		c0.31,0.03,0.56-0.08,0.74-0.34c0.19-0.28,0.37-0.56,0.56-0.83c0.01-0.01,0.01-0.02,0.02-0.03c0,0,0,0,0.01-0.01
		c0.02-0.03,0.06-0.06,0.1-0.08c0,0,0,0,0,0c0.01-0.01,0.03-0.01,0.05-0.02c0.31-0.01,0.62-0.03,0.93,0
		c0.32,0.03,0.67-0.11,0.85-0.39C10.58,10.71,10.56,10.34,10.37,10.08z M9.33,10.52c-0.04-0.01-0.08-0.01-0.12-0.01
		c-0.22,0-0.44,0.01-0.66,0.01c-0.09,0-0.17,0.02-0.25,0.05c-0.15,0.05-0.27,0.13-0.37,0.26c-0.14,0.19-0.28,0.39-0.41,0.59
		c-0.02,0.04-0.03,0.08-0.05,0.12c-0.06,0.09-0.13,0.18-0.2,0.29c-0.12-0.35-0.22-0.64-0.31-0.95c-0.03-0.11-0.08-0.21-0.14-0.3
		c-0.09-0.16-0.22-0.28-0.4-0.34c-0.19-0.07-0.39-0.12-0.58-0.18C5.67,10,5.5,9.95,5.29,9.88c0.15-0.12,0.28-0.21,0.4-0.3
		c0.14-0.1,0.28-0.21,0.42-0.31C6.3,9.14,6.41,8.98,6.46,8.8C6.5,8.69,6.52,8.58,6.51,8.44C6.5,8.26,6.49,8.07,6.49,7.89
		c0-0.13,0-0.27,0-0.44C6.56,7.48,6.61,7.5,6.65,7.53C6.87,7.69,7.09,7.84,7.31,8c0.22,0.17,0.45,0.24,0.7,0.19
		c0.09-0.01,0.18-0.03,0.27-0.07C8.57,8.01,8.87,7.91,9.2,7.8c0,0.03-0.01,0.05-0.01,0.07C9.08,8.21,8.98,8.53,8.88,8.85
		C8.84,8.98,8.83,9.11,8.85,9.23c0,0.03,0.02,0.07,0.03,0.1C8.88,9.36,8.89,9.38,8.89,9.4c0.04,0.1,0.09,0.2,0.16,0.29
		c0.18,0.21,0.34,0.44,0.5,0.66c0.03,0.05,0.06,0.1,0.11,0.17C9.56,10.52,9.45,10.52,9.33,10.52z"/>
</g>
</svg>
