<?xml version="1.0" encoding="utf-8"?>
<!-- Generator: Adobe Illustrator 24.0.1, SVG Export Plug-In . SVG Version: 6.00 Build 0)  -->
<svg version="1.1" id="Layer_1" xmlns="http://www.w3.org/2000/svg" xmlns:xlink="http://www.w3.org/1999/xlink" x="0px" y="0px"
	 viewBox="0 0 25 25" style="enable-background:new 0 0 25 25;" xml:space="preserve">
<style type="text/css">
	.st0{fill:#C7E0D1;}
	.st1{fill:#E6F1EA;}
	.st2{fill:#FAAF40;}
	.st3{fill:#E9DD7F;}
	.st4{fill:#03675F;}
	.st5{fill:#FFFFFF;}
	.st6{fill:none;}
	.st7{fill:none;stroke:#231F20;stroke-width:2;stroke-linecap:round;stroke-miterlimit:10;}
	.st8{fill:none;stroke:#03675F;stroke-width:2;stroke-linecap:round;stroke-linejoin:round;stroke-miterlimit:10;}
</style>
<g>
	<g>
		<rect x="0.5" y="6.57" class="st1" width="18.61" height="13.53"/>
	</g>
	<g>
		<g>
			<path class="st4" d="M10.34,18.15c-0.09,0-0.16,0.01-0.23,0.01c-2.21,0-4.42,0-6.63,0c-0.19,0-0.24-0.06-0.24-0.25
				c0.01-1.34,0.73-2.38,1.96-2.81c0.17-0.06,0.29-0.05,0.42,0.09c0.37,0.4,0.76,0.78,1.16,1.19c0.1-0.09,0.18-0.16,0.25-0.24
				c0.33-0.32,0.65-0.65,0.97-0.98c0.1-0.11,0.2-0.13,0.33-0.09c1.17,0.36,2,1.44,2.01,2.67C10.34,17.88,10.34,18,10.34,18.15z"/>
		</g>
		<g>
			<path class="st4" d="M8.92,12.07c0.05,1.15-0.88,2.12-2.07,2.18C5.7,14.3,4.7,13.36,4.66,12.19c-0.04-1.17,0.89-2.16,2.07-2.2
				C7.89,9.94,8.87,10.87,8.92,12.07z"/>
		</g>
		<g>
			<path class="st4" d="M4.31,10.73c-0.44-0.1-0.76-0.65-0.72-1.12C3.64,9.1,4.04,8.66,4.53,8.58C5.06,8.5,5.59,8.79,5.78,9.27
				c0.04,0.1,0.08,0.18-0.07,0.24c-0.59,0.23-1.03,0.64-1.36,1.18C4.34,10.71,4.32,10.72,4.31,10.73z"/>
		</g>
	</g>
	<path class="st3" d="M23.59,1.61H12.34c-0.55,0-1.01,0.45-1.01,1.01v8.96c0,0.55,0.45,1.01,1.01,1.01h3.44l0.04,2.42l2.84-2.42
		h4.93c0.55,0,1.01-0.45,1.01-1.01V2.62C24.6,2.06,24.15,1.61,23.59,1.61z"/>
	<path class="st6" d="M23.59,2.01H12.34c-0.34,0-0.61,0.27-0.61,0.61v8.96c0,0.34,0.27,0.61,0.61,0.61h3.83l0.04,1.97l2.31-1.97
		h5.08c0.34,0,0.61-0.27,0.61-0.61V2.62C24.2,2.28,23.93,2.01,23.59,2.01z M18.37,10.22c-0.13,0.12-0.29,0.18-0.46,0.18
		c-0.18,0-0.34-0.06-0.47-0.18c-0.14-0.12-0.2-0.28-0.2-0.49c0-0.19,0.07-0.34,0.2-0.47c0.13-0.13,0.29-0.19,0.48-0.19
		c0.19,0,0.34,0.06,0.47,0.19c0.13,0.13,0.19,0.29,0.19,0.47C18.57,9.94,18.51,10.11,18.37,10.22z M20.04,6.1
		c-0.1,0.19-0.22,0.35-0.37,0.49c-0.14,0.14-0.39,0.37-0.76,0.7c-0.1,0.09-0.18,0.17-0.24,0.24c-0.06,0.07-0.11,0.13-0.14,0.19
		c-0.03,0.06-0.05,0.12-0.07,0.17c-0.02,0.06-0.04,0.16-0.07,0.31c-0.06,0.31-0.23,0.46-0.53,0.46c-0.15,0-0.28-0.05-0.39-0.15
		c-0.11-0.1-0.16-0.25-0.16-0.45c0-0.25,0.04-0.47,0.12-0.65c0.08-0.18,0.18-0.34,0.31-0.48c0.13-0.14,0.3-0.3,0.52-0.49
		c0.19-0.17,0.33-0.29,0.41-0.38c0.08-0.08,0.16-0.18,0.21-0.28c0.06-0.1,0.09-0.22,0.09-0.34c0-0.24-0.09-0.44-0.27-0.6
		c-0.18-0.16-0.4-0.25-0.68-0.25c-0.33,0-0.57,0.08-0.72,0.25c-0.15,0.16-0.29,0.41-0.39,0.73c-0.1,0.34-0.29,0.5-0.57,0.5
		c-0.17,0-0.31-0.06-0.42-0.18c-0.11-0.12-0.17-0.24-0.17-0.38c0-0.28,0.09-0.57,0.27-0.86c0.18-0.29,0.45-0.53,0.79-0.72
		c0.35-0.19,0.75-0.29,1.22-0.29c0.43,0,0.81,0.08,1.14,0.24c0.33,0.16,0.58,0.38,0.76,0.65c0.18,0.27,0.27,0.57,0.27,0.89
		C20.19,5.69,20.14,5.91,20.04,6.1z"/>
	<g>
		<path class="st4" d="M17.07,21.8c-0.11-0.24-0.18-0.39-0.23-0.47h-1.6c0.37,0.73,0.7,1.42,1.06,2.1c0.18,0.34,0.6,0.45,0.93,0.28
			c0.33-0.17,0.48-0.58,0.32-0.92C17.4,22.45,17.22,22.13,17.07,21.8z"/>
		<path class="st4" d="M2.06,22.77c-0.17,0.35-0.02,0.77,0.31,0.94c0.33,0.17,0.75,0.06,0.93-0.28c0.36-0.68,0.69-1.37,1.06-2.1
			H2.82C2.79,21.36,2.28,22.32,2.06,22.77z"/>
		<path class="st4" d="M23.59,1.21H12.34c-0.78,0-1.41,0.63-1.41,1.41v8.96c0,0.78,0.63,1.41,1.41,1.41h3.05l0.05,2.88l3.37-2.88
			h4.78c0.78,0,1.41-0.63,1.41-1.41V2.62C25,1.84,24.37,1.21,23.59,1.21z M24.2,11.58c0,0.34-0.27,0.61-0.61,0.61h-5.08l-2.31,1.97
			l-0.04-1.97h-3.83c-0.34,0-0.61-0.27-0.61-0.61V2.62c0-0.34,0.27-0.61,0.61-0.61h11.25c0.34,0,0.61,0.27,0.61,0.61V11.58z"/>
		<path class="st4" d="M18.61,19.43c0,0.1-0.08,0.18-0.18,0.18H1.17C1.08,19.6,1,19.52,1,19.43V7.24c0-0.1,0.08-0.18,0.18-0.18h8.82
			v-1H7.53L9.14,4.8c0.17-0.14,0.2-0.39,0.07-0.56c-0.14-0.17-0.39-0.2-0.56-0.07l-2.4,1.89H6.23L2.22,3.28
			C2.04,3.15,1.79,3.2,1.66,3.38c-0.13,0.18-0.08,0.43,0.1,0.56l3.07,2.13H1.17C0.53,6.07,0,6.59,0,7.24v12.18
			c0,0.65,0.53,1.17,1.17,1.17h17.25c0.65,0,1.17-0.53,1.17-1.17v-4.99h-1V19.43z"/>
		<g>
			<path class="st4" d="M17.91,9.07c-0.19,0-0.35,0.06-0.48,0.19c-0.13,0.13-0.2,0.29-0.2,0.47c0,0.21,0.07,0.38,0.2,0.49
				c0.14,0.12,0.29,0.18,0.47,0.18c0.18,0,0.33-0.06,0.46-0.18s0.2-0.28,0.2-0.49c0-0.19-0.06-0.34-0.19-0.47
				C18.26,9.13,18.1,9.07,17.91,9.07z"/>
			<path class="st4" d="M19.16,3.89c-0.33-0.16-0.71-0.24-1.14-0.24c-0.46,0-0.87,0.1-1.22,0.29c-0.35,0.19-0.61,0.43-0.79,0.72
				c-0.18,0.29-0.27,0.58-0.27,0.86c0,0.14,0.06,0.26,0.17,0.38c0.11,0.12,0.25,0.18,0.42,0.18c0.28,0,0.47-0.17,0.57-0.5
				c0.11-0.32,0.24-0.56,0.39-0.73c0.15-0.16,0.4-0.25,0.72-0.25c0.28,0,0.51,0.08,0.68,0.25c0.18,0.16,0.27,0.36,0.27,0.6
				c0,0.12-0.03,0.23-0.09,0.34c-0.06,0.1-0.13,0.2-0.21,0.28c-0.08,0.08-0.22,0.21-0.41,0.38c-0.22,0.19-0.39,0.35-0.52,0.49
				c-0.13,0.14-0.23,0.3-0.31,0.48c-0.08,0.18-0.12,0.4-0.12,0.65c0,0.2,0.05,0.35,0.16,0.45c0.11,0.1,0.24,0.15,0.39,0.15
				c0.3,0,0.47-0.15,0.53-0.46c0.03-0.15,0.06-0.25,0.07-0.31c0.02-0.06,0.04-0.12,0.07-0.17c0.03-0.06,0.08-0.12,0.14-0.19
				c0.06-0.07,0.14-0.15,0.24-0.24c0.37-0.33,0.62-0.56,0.76-0.7c0.14-0.14,0.26-0.3,0.37-0.49c0.1-0.19,0.15-0.41,0.15-0.66
				c0-0.32-0.09-0.62-0.27-0.89C19.74,4.27,19.49,4.05,19.16,3.89z"/>
		</g>
	</g>
</g>
</svg>
