<?xml version="1.0" encoding="utf-8"?>
<!-- Generator: Adobe Illustrator 24.0.1, SVG Export Plug-In . SVG Version: 6.00 Build 0)  -->
<svg version="1.1" id="Layer_1" xmlns="http://www.w3.org/2000/svg" xmlns:xlink="http://www.w3.org/1999/xlink" x="0px" y="0px"
	 viewBox="0 0 25 25" style="enable-background:new 0 0 25 25;" xml:space="preserve">
<style type="text/css">
	.st0{fill:#C7E0D1;}
	.st1{fill:#E6F1EA;}
	.st2{fill:#FAAF40;}
	.st3{fill:#E9DD7F;}
	.st4{fill:#03675F;}
	.st5{fill:#FFFFFF;}
	.st6{fill:none;}
	.st7{fill:none;stroke:#231F20;stroke-width:2;stroke-linecap:round;stroke-miterlimit:10;}
	.st8{fill:none;stroke:#03675F;stroke-width:2;stroke-linecap:round;stroke-linejoin:round;stroke-miterlimit:10;}
</style>
<g>
	<path class="st1" d="M19.14,12.18c0,2.87-1.78,5.31-4.29,6.29c-0.76,0.3-1.6,0.47-2.47,0.47c-0.87,0-1.71-0.16-2.47-0.47
		c-2.52-0.98-4.29-3.43-4.29-6.29c0-3.73,3.03-6.76,6.76-6.76C16.11,5.42,19.14,8.45,19.14,12.18z"/>
	<rect x="9.91" y="20.82" class="st3" width="4.94" height="1.78"/>
	<path class="st3" d="M14.84,18.47v2.34H9.91v-2.34c0.76,0.3,1.6,0.47,2.47,0.47C13.25,18.94,14.08,18.78,14.84,18.47z"/>
	<path class="st1" d="M14.2,22.6c0,1.01-0.82,1.82-1.82,1.82c-1.01,0-1.82-0.82-1.82-1.82H14.2z"/>
	<g>
		<line class="st2" x1="20.6" y1="7.66" x2="23.08" y2="6.23"/>
		<line class="st2" x1="1.8" y1="18.47" x2="4.13" y2="17.13"/>
	</g>
	<line class="st2" x1="12.35" y1="3.44" x2="12.35" y2="0.58"/>
	<line class="st2" x1="3.24" y1="12.6" x2="0.38" y2="12.68"/>
	<line class="st2" x1="24.62" y1="12.03" x2="21.93" y2="12.1"/>
	<g>
		<line class="st2" x1="4.03" y1="8" x2="1.5" y2="6.66"/>
		<line class="st2" x1="23.2" y1="18.15" x2="20.82" y2="16.89"/>
	</g>
	<line class="st2" x1="7.75" y1="4.39" x2="6.3" y2="1.93"/>
	<polygon class="st1" points="14.24,12.26 14.24,12.18 12.35,9.03 10.47,12.18 10.47,12.36 12.35,13.52 	"/>
	<polygon class="st2" points="12.35,13.52 10.47,12.36 10.47,18.94 14.24,18.94 14.24,12.26 	"/>
	<g>
		<line class="st2" x1="17.21" y1="4.23" x2="18.66" y2="1.77"/>
		<g>
			<path class="st4" d="M12.38,5.04c-3.94,0-7.14,3.2-7.14,7.14c0,2.74,1.53,5.18,3.93,6.38H8.73v0.76h0.79v1.11H8.73v0.76h0.79
				v1.78h0.68c0.18,1.03,1.08,1.82,2.17,1.82c1.08,0,1.99-0.79,2.17-1.82h0.68V21.2h0.8v-0.76h-0.8v-1.11h0.79v-0.76h-0.44
				c2.41-1.2,3.93-3.64,3.93-6.38C19.52,8.24,16.32,5.04,12.38,5.04z M11.96,10.43h0.39h0.39l0.99,1.65l-1.37,0.97l-1.38-0.98
				L11.96,10.43z M14.46,22.21h-4.17V21.2h4.17V22.21z M10.29,20.44v-1.11h4.17v1.11H10.29z M12.76,18.54v-4.83l1.09-0.77v5.44
				C13.49,18.46,13.13,18.52,12.76,18.54z M10.85,12.92L12,13.73v4.81c-0.27-0.02-0.54-0.04-0.81-0.09
				c-0.11-0.02-0.22-0.05-0.34-0.08V12.92z M12.38,24.04c-0.66,0-1.22-0.45-1.39-1.06h2.78C13.6,23.59,13.04,24.04,12.38,24.04z
				 M14.7,18.12c-0.03,0.01-0.06,0.02-0.09,0.03v-6.07l-2.26-3.79l-2.26,3.79v6.06c-0.01-0.01-0.03-0.01-0.04-0.01l0,0
				C7.59,17.16,6,14.83,6,12.18C6,8.66,8.86,5.8,12.38,5.8c3.52,0,6.38,2.86,6.38,6.38C18.76,14.83,17.17,17.16,14.7,18.12z"/>
			<path class="st2" d="M20.79,7.99l2.48-1.43c0.18-0.11,0.25-0.34,0.14-0.52c-0.11-0.18-0.34-0.25-0.52-0.14l-2.48,1.43
				c-0.18,0.11-0.25,0.34-0.14,0.52c0.07,0.12,0.2,0.19,0.33,0.19C20.67,8.04,20.73,8.02,20.79,7.99z"/>
			<path class="st2" d="M3.94,16.8l-2.33,1.34c-0.18,0.11-0.25,0.34-0.14,0.52c0.07,0.12,0.2,0.19,0.33,0.19
				c0.06,0,0.13-0.02,0.19-0.05l2.33-1.34c0.18-0.11,0.25-0.34,0.14-0.52C4.36,16.76,4.13,16.7,3.94,16.8z"/>
			<path class="st2" d="M12.35,3.82L12.35,3.82c0.21,0,0.38-0.17,0.38-0.38l0-2.86c0-0.21-0.17-0.38-0.38-0.38h0
				c-0.21,0-0.38,0.17-0.38,0.38l0,2.86C11.97,3.65,12.14,3.82,12.35,3.82z"/>
			<path class="st2" d="M3.62,12.59c-0.01-0.21-0.19-0.38-0.39-0.37L0.37,12.3C0.16,12.3-0.01,12.48,0,12.69
				c0.01,0.21,0.18,0.37,0.38,0.37c0,0,0.01,0,0.01,0l2.86-0.08C3.46,12.98,3.63,12.8,3.62,12.59z"/>
			<path class="st2" d="M24.61,11.64l-2.69,0.07c-0.21,0.01-0.38,0.18-0.37,0.39c0.01,0.21,0.18,0.37,0.38,0.37c0,0,0.01,0,0.01,0
				l2.69-0.07c0.21-0.01,0.38-0.18,0.37-0.39C24.99,11.8,24.81,11.62,24.61,11.64z"/>
			<path class="st2" d="M1.32,7l2.53,1.34c0.06,0.03,0.12,0.04,0.18,0.04c0.14,0,0.27-0.07,0.34-0.2C4.46,8,4.39,7.76,4.21,7.67
				L1.68,6.33C1.49,6.23,1.26,6.3,1.16,6.49S1.13,6.9,1.32,7z"/>
			<path class="st2" d="M23.37,17.81L21,16.55c-0.19-0.1-0.42-0.03-0.52,0.16c-0.1,0.19-0.03,0.42,0.16,0.52l2.38,1.26
				c0.06,0.03,0.12,0.04,0.18,0.04c0.14,0,0.27-0.07,0.34-0.2C23.63,18.14,23.56,17.91,23.37,17.81z"/>
			<path class="st2" d="M7.42,4.59c0.07,0.12,0.2,0.19,0.33,0.19c0.07,0,0.13-0.02,0.19-0.05C8.13,4.62,8.19,4.38,8.08,4.2
				L6.63,1.74C6.52,1.55,6.28,1.49,6.1,1.6C5.92,1.71,5.86,1.94,5.97,2.12L7.42,4.59z"/>
			<path class="st2" d="M17.01,4.56c0.06,0.04,0.13,0.05,0.19,0.05c0.13,0,0.26-0.07,0.33-0.19l1.45-2.47
				c0.11-0.18,0.05-0.42-0.14-0.52c-0.18-0.11-0.42-0.05-0.52,0.14l-1.45,2.47C16.77,4.22,16.83,4.46,17.01,4.56z"/>
		</g>
	</g>
</g>
</svg>
