<?xml version="1.0" encoding="utf-8"?>
<!-- Generator: Adobe Illustrator 24.0.1, SVG Export Plug-In . SVG Version: 6.00 Build 0)  -->
<svg version="1.1" id="Layer_1" xmlns="http://www.w3.org/2000/svg" xmlns:xlink="http://www.w3.org/1999/xlink" x="0px" y="0px"
	 viewBox="0 0 25 25" style="enable-background:new 0 0 25 25;" xml:space="preserve">
<style type="text/css">
	.st0{fill:#C7E0D1;}
	.st1{fill:#E6F1EA;}
	.st2{fill:#FAAF40;}
	.st3{fill:#E9DD7F;}
	.st4{fill:#03675F;}
	.st5{fill:#FFFFFF;}
	.st6{fill:none;}
	.st7{fill:none;stroke:#231F20;stroke-width:2;stroke-linecap:round;stroke-miterlimit:10;}
	.st8{fill:none;stroke:#03675F;stroke-width:2;stroke-linecap:round;stroke-linejoin:round;stroke-miterlimit:10;}
</style>
<g>
	<path class="st0" d="M2.93,4.59c0.56,0.44,1.09,0.87,1.62,1.29c0.13,0.1,0.26,0.19,0.38,0.31C5.5,6.75,6.19,7.05,6.98,7.18
		c0.41,0.07,0.81,0.2,1.22,0.29c0.61,0.14,1.16-0.18,1.34-0.78C9.8,5.87,9.6,6.03,10.45,5.66c0.69-0.3,0.92-0.87,0.65-1.58
		c-0.14-0.37,0.04-0.63,0.43-0.65c0.6-0.02,1.21-0.03,1.81-0.06c0.2-0.01,0.36,0.05,0.5,0.2c0.46,0.46,0.95,0.52,1.52,0.2
		c0.43-0.24,0.87-0.48,1.3-0.72c0.05-0.03,0.11-0.05,0.21-0.09c-0.11,0.53-0.23,1.02-0.32,1.51c-0.07,0.4-0.16,0.81-0.15,1.21
		c0.02,0.53,0.32,0.95,0.77,1.23c0.41,0.26,0.57,0.61,0.53,1.08c-0.12,1.59,1.2,2.71,2.77,2.35c0.02,0,0.04,0,0.07-0.01
		c0.15,0.47-0.12,2.57-0.61,3.67c-1.25-2.48-3.2-3.62-5.95-2.86c-1.82,0.5-2.9,1.82-3.28,3.67c-0.36,1.75,0.34,3.98,2.53,5.16
		c-1.18,0.43-3.56,0.5-5.26-0.07c0.03-0.08,0.06-0.15,0.09-0.22c0.31-0.63,0.61-1.27,0.94-1.9c0.25-0.47,0.33-0.94,0.16-1.44
		c-0.23-0.66-0.05-1.14,0.5-1.58c0.67-0.53,0.82-1.21,0.51-1.88c-0.07-0.14-0.17-0.28-0.27-0.4c-0.19-0.24-0.27-0.49-0.2-0.8
		c0.18-0.85-0.11-1.44-0.88-1.84C8.56,9.73,8.3,9.59,8.04,9.47c-0.7-0.32-1.44-0.11-1.9,0.5c-0.33,0.44-0.7,0.84-1.07,1.25
		c-0.2,0.22-0.48,0.3-0.77,0.21c-1.07-0.36-2.14-0.74-3.2-1.12c-0.07-0.02-0.13-0.16-0.13-0.25C1.04,8.37,1.52,6.81,2.4,5.38
		C2.56,5.11,2.75,4.86,2.93,4.59z M13.52,7.91c-0.36,0-0.69,0.14-0.93,0.43c-0.2,0.24-0.4,0.5-0.57,0.77
		c-0.29,0.46-0.28,0.93,0.03,1.38c0.29,0.42,0.71,0.58,1.22,0.51c0.35-0.05,0.7-0.1,1.06-0.14c0.73-0.08,1.18-0.77,1.08-1.49
		C15.27,8.45,14.2,8,13.52,7.91z"/>
	<path class="st1" d="M0.98,11.01c0.38,0.13,0.73,0.25,1.08,0.37c0.61,0.21,1.21,0.42,1.82,0.64c0.7,0.25,1.3,0.12,1.79-0.44
		c0.36-0.41,0.71-0.82,1.05-1.24c0.25-0.31,0.64-0.43,1-0.27c0.31,0.14,0.62,0.3,0.92,0.46c0.37,0.2,0.52,0.55,0.42,0.96
		c-0.13,0.54-0.02,1.02,0.35,1.45c0.36,0.42,0.33,0.87-0.08,1.25c-0.15,0.14-0.3,0.27-0.45,0.41C8.45,15,8.3,15.48,8.41,16.05
		c0.04,0.2,0.09,0.39,0.13,0.59c0.05,0.26,0.03,0.5-0.09,0.74c-0.35,0.7-0.7,1.4-1.03,2.11c-0.08,0.18-0.16,0.2-0.33,0.12
		c-3.21-1.4-5.2-3.82-5.95-7.24c-0.08-0.36-0.1-0.74-0.15-1.11C0.97,11.19,0.98,11.12,0.98,11.01z"/>
	<path class="st1" d="M3.4,4.06c3.23-3.89,9.18-4.39,12.93-1.61c-0.31,0.17-0.61,0.34-0.91,0.51C15.38,2.98,15.34,3,15.3,3.03
		c-0.6,0.33-0.59,0.31-1.13-0.08C13.98,2.8,13.72,2.7,13.49,2.7c-0.7-0.01-1.4,0.01-2.09,0.05c-0.75,0.04-1.23,0.83-0.95,1.55
		c0.16,0.42,0.09,0.59-0.32,0.76c-0.15,0.06-0.3,0.13-0.45,0.19C9.33,5.4,9.12,5.66,9.02,6.02C8.98,6.17,8.94,6.33,8.89,6.49
		C8.8,6.74,8.61,6.86,8.35,6.8c-0.7-0.17-1.4-0.34-2.1-0.51C6.17,6.26,6.09,6.22,6.02,6.17C5.17,5.5,4.32,4.82,3.47,4.14
		C3.45,4.12,3.42,4.09,3.4,4.06z"/>
	<path class="st2" d="M11.33,15.68c0.01-2.26,1.84-4.09,4.09-4.09c2.26,0,4.09,1.85,4.09,4.11c-0.01,2.27-1.83,4.09-4.11,4.08
		C13.14,19.78,11.32,17.94,11.33,15.68z M15.41,19.05c1.86,0.01,3.37-1.49,3.37-3.35c0.01-1.84-1.5-3.36-3.33-3.37
		c-1.87-0.01-3.39,1.49-3.4,3.35C12.05,17.54,13.55,19.04,15.41,19.05z"/>
	<path class="st1" d="M17.53,3.36c0.27,0.29,0.53,0.55,0.76,0.83c1.24,1.49,1.99,3.2,2.24,5.12c0.03,0.2-0.03,0.34-0.22,0.35
		c-0.28,0.02-0.59,0.07-0.84-0.02c-0.3-0.11-0.57-0.33-0.82-0.54c-0.21-0.18-0.27-0.44-0.27-0.72c0.01-0.32,0.03-0.64-0.02-0.95
		c-0.08-0.45-0.34-0.81-0.74-1.06c-0.46-0.29-0.64-0.69-0.51-1.23c0.12-0.55,0.23-1.11,0.35-1.66C17.47,3.46,17.49,3.44,17.53,3.36z
		"/>
	<path class="st3" d="M20.46,19.95c0.16,0.09,0.35,0.14,0.47,0.26c0.98,0.97,1.96,1.94,2.93,2.92c0.3,0.3,0.29,0.73,0.01,1
		c-0.29,0.28-0.72,0.27-1.04-0.04c-0.88-0.88-1.76-1.76-2.65-2.64c-0.1-0.1-0.2-0.19-0.29-0.3c-0.19-0.23-0.22-0.49-0.09-0.76
		C19.92,20.14,20.14,20,20.46,19.95z"/>
	<path class="st1" d="M13.5,8.55c0.47,0.05,1.11,0.52,1.21,0.91c0.09,0.38-0.13,0.68-0.52,0.72c-0.33,0.03-0.66,0.08-0.99,0.13
		c-0.25,0.04-0.45-0.02-0.59-0.23c-0.14-0.21-0.14-0.43,0.01-0.63c0.15-0.22,0.3-0.44,0.47-0.63C13.2,8.7,13.36,8.64,13.5,8.55z"/>
	<path class="st1" d="M15.44,13.02c1.48,0.01,2.67,1.21,2.65,2.7c-0.01,1.46-1.22,2.66-2.69,2.65c-1.5-0.01-2.68-1.22-2.66-2.74
		C12.76,14.19,13.97,13.01,15.44,13.02z M13.32,15.66c0.01,0.44,0.11,0.83,0.34,1.17c0.14,0.22,0.33,0.28,0.51,0.17
		c0.18-0.11,0.21-0.3,0.08-0.53c-0.4-0.67-0.28-1.38,0.3-1.88c0.21-0.18,0.25-0.37,0.11-0.54c-0.14-0.17-0.33-0.17-0.55,0.02
		C13.58,14.49,13.34,15.03,13.32,15.66z"/>
	<g>
		<path class="st4" d="M24.28,22.58c-0.94-0.94-1.88-1.88-2.81-2.81c-0.47-0.47-1.01-0.6-1.64-0.35c-0.06,0.02-0.16,0.02-0.2-0.01
			c-0.21-0.17-0.4-0.36-0.59-0.54c0.03-0.06,0.04-0.09,0.06-0.1c0.81-1,1.17-2.14,1.1-3.41c-0.01-0.11,0.03-0.23,0.08-0.33
			c1.03-2.22,1.29-4.53,0.73-6.92c-1.02-4.33-4.67-7.57-9.06-8.03c-3-0.32-5.7,0.47-7.97,2.45c-2.99,2.61-4.16,5.94-3.54,9.86
			c0.29,1.85,1.1,3.5,2.33,4.92c1.78,2.07,4.02,3.29,6.73,3.64c1.61,0.21,3.19,0.03,4.72-0.5c0.12-0.04,0.27-0.05,0.4-0.03
			c0.55,0.08,1.1,0.09,1.64-0.01c0.85-0.16,1.6-0.52,2.29-1.1c0.2,0.2,0.39,0.39,0.56,0.58c0.04,0.04,0.06,0.13,0.04,0.18
			c-0.29,0.68-0.11,1.24,0.4,1.75c0.92,0.9,1.82,1.82,2.73,2.73c0.59,0.59,1.45,0.62,2.02,0.06C24.88,24.05,24.86,23.17,24.28,22.58
			z M17.11,5.15c0.12-0.55,0.23-1.11,0.35-1.66c0.01-0.03,0.03-0.05,0.06-0.13c0.27,0.29,0.53,0.55,0.76,0.83
			c1.24,1.49,1.99,3.2,2.24,5.12c0.03,0.2-0.03,0.34-0.22,0.35c-0.28,0.02-0.59,0.07-0.84-0.02c-0.3-0.11-0.57-0.33-0.82-0.54
			c-0.21-0.18-0.27-0.44-0.27-0.72c0.01-0.32,0.03-0.64-0.02-0.95c-0.08-0.45-0.34-0.81-0.74-1.06C17.16,6.09,16.99,5.68,17.11,5.15
			z M16.33,2.45c-0.31,0.17-0.61,0.34-0.91,0.51C15.38,2.98,15.34,3,15.3,3.03c-0.6,0.33-0.59,0.31-1.13-0.08
			C13.98,2.8,13.72,2.7,13.49,2.7c-0.7-0.01-1.4,0.01-2.09,0.05c-0.75,0.04-1.23,0.83-0.95,1.55c0.16,0.42,0.09,0.59-0.32,0.76
			c-0.15,0.06-0.3,0.13-0.45,0.19C9.33,5.4,9.12,5.66,9.02,6.02C8.98,6.17,8.94,6.33,8.89,6.48C8.8,6.74,8.61,6.86,8.35,6.8
			c-0.7-0.17-1.4-0.34-2.1-0.51C6.17,6.26,6.09,6.22,6.02,6.17C5.17,5.5,4.32,4.82,3.47,4.14C3.45,4.12,3.42,4.09,3.4,4.06
			C6.63,0.17,12.58-0.33,16.33,2.45z M7.08,19.61c-3.21-1.4-5.2-3.82-5.95-7.24c-0.08-0.36-0.1-0.74-0.15-1.11
			c-0.01-0.07,0-0.15,0-0.26c0.38,0.13,0.73,0.25,1.08,0.37c0.61,0.21,1.21,0.42,1.82,0.64c0.7,0.25,1.3,0.12,1.79-0.44
			c0.36-0.41,0.71-0.82,1.05-1.24c0.25-0.31,0.64-0.43,1-0.27c0.31,0.14,0.61,0.3,0.92,0.46c0.37,0.2,0.52,0.55,0.42,0.96
			c-0.13,0.54-0.02,1.02,0.35,1.45c0.36,0.42,0.33,0.87-0.08,1.25c-0.15,0.14-0.3,0.27-0.45,0.41C8.45,15,8.3,15.48,8.41,16.05
			c0.04,0.2,0.09,0.39,0.13,0.59c0.05,0.26,0.03,0.5-0.09,0.74c-0.35,0.7-0.7,1.4-1.03,2.11C7.33,19.67,7.25,19.69,7.08,19.61z
			 M7.99,19.91c0.03-0.08,0.06-0.15,0.09-0.22c0.31-0.63,0.61-1.27,0.94-1.9c0.25-0.47,0.33-0.94,0.16-1.44
			c-0.23-0.66-0.05-1.14,0.5-1.58c0.67-0.53,0.82-1.21,0.51-1.88c-0.07-0.14-0.17-0.28-0.27-0.4c-0.19-0.24-0.27-0.49-0.2-0.8
			c0.18-0.85-0.11-1.44-0.88-1.84C8.56,9.73,8.3,9.59,8.04,9.47c-0.7-0.32-1.44-0.11-1.9,0.5c-0.33,0.44-0.7,0.84-1.07,1.25
			c-0.2,0.22-0.48,0.3-0.77,0.21c-1.07-0.36-2.14-0.74-3.2-1.12c-0.07-0.02-0.13-0.16-0.13-0.25C1.04,8.37,1.52,6.81,2.4,5.38
			c0.16-0.26,0.34-0.51,0.53-0.79c0.56,0.44,1.09,0.87,1.62,1.29c0.13,0.1,0.26,0.19,0.38,0.31C5.5,6.75,6.19,7.05,6.98,7.18
			c0.41,0.07,0.81,0.2,1.22,0.29c0.61,0.14,1.16-0.18,1.34-0.78C9.8,5.87,9.6,6.03,10.45,5.66c0.69-0.3,0.92-0.87,0.65-1.58
			c-0.14-0.37,0.04-0.63,0.43-0.65c0.6-0.02,1.21-0.03,1.81-0.06c0.2-0.01,0.36,0.05,0.5,0.2c0.46,0.46,0.95,0.52,1.52,0.2
			c0.43-0.24,0.87-0.48,1.3-0.72c0.05-0.03,0.11-0.05,0.21-0.09c-0.11,0.53-0.23,1.02-0.32,1.51c-0.07,0.4-0.16,0.81-0.15,1.21
			c0.02,0.53,0.32,0.95,0.77,1.23c0.41,0.26,0.57,0.61,0.53,1.08c-0.12,1.59,1.2,2.71,2.77,2.35c0.02,0,0.04,0,0.07-0.01
			c0.15,0.47-0.12,2.57-0.61,3.67c-1.25-2.48-3.2-3.62-5.95-2.86c-1.82,0.5-2.9,1.82-3.28,3.67c-0.36,1.75,0.34,3.98,2.53,5.16
			C12.07,20.42,9.69,20.49,7.99,19.91z M15.39,19.79c-2.26-0.01-4.07-1.84-4.07-4.1c0.01-2.26,1.84-4.09,4.09-4.09
			c2.26,0,4.09,1.85,4.09,4.11C19.5,17.98,17.67,19.79,15.39,19.79z M23.87,24.14c-0.29,0.28-0.72,0.27-1.04-0.04
			c-0.88-0.88-1.76-1.76-2.65-2.64c-0.1-0.1-0.2-0.19-0.29-0.3c-0.19-0.23-0.22-0.49-0.09-0.76c0.13-0.26,0.34-0.39,0.66-0.44
			c0.16,0.09,0.35,0.14,0.47,0.26c0.98,0.97,1.96,1.94,2.93,2.92C24.15,23.43,24.15,23.86,23.87,24.14z"/>
		<path class="st4" d="M13.27,10.99c0.35-0.05,0.7-0.1,1.06-0.14c0.73-0.08,1.18-0.77,1.08-1.49c-0.13-0.9-1.2-1.36-1.88-1.45
			c-0.36,0-0.69,0.14-0.93,0.43c-0.2,0.24-0.4,0.5-0.57,0.77c-0.29,0.46-0.28,0.93,0.03,1.38C12.34,10.9,12.76,11.06,13.27,10.99z
			 M12.62,9.45c0.15-0.22,0.3-0.44,0.47-0.63c0.11-0.12,0.27-0.18,0.41-0.27c0.47,0.05,1.11,0.52,1.21,0.91
			c0.09,0.38-0.13,0.68-0.52,0.72c-0.33,0.03-0.66,0.08-0.99,0.13c-0.25,0.04-0.45-0.02-0.59-0.23C12.47,9.87,12.47,9.65,12.62,9.45
			z"/>
		<path class="st4" d="M15.45,12.33c-1.87-0.01-3.39,1.49-3.4,3.35c-0.01,1.85,1.5,3.36,3.36,3.36c1.86,0.01,3.37-1.49,3.37-3.35
			C18.79,13.86,17.29,12.34,15.45,12.33z M15.41,18.37c-1.5-0.01-2.68-1.22-2.66-2.74c0.01-1.44,1.23-2.62,2.69-2.61
			c1.48,0.01,2.67,1.21,2.65,2.7C18.08,17.18,16.87,18.38,15.41,18.37z"/>
		<path class="st4" d="M14.09,14.06c-0.51,0.42-0.76,0.97-0.78,1.6c0.01,0.44,0.11,0.83,0.34,1.17c0.14,0.22,0.33,0.28,0.51,0.17
			c0.18-0.11,0.21-0.3,0.08-0.53c-0.4-0.67-0.28-1.38,0.3-1.88c0.21-0.18,0.25-0.37,0.11-0.54C14.5,13.88,14.31,13.88,14.09,14.06z"
			/>
	</g>
</g>
</svg>
