<?xml version="1.0" encoding="utf-8"?>
<!-- Generator: Adobe Illustrator 24.0.1, SVG Export Plug-In . SVG Version: 6.00 Build 0)  -->
<svg version="1.1" id="Layer_1" xmlns="http://www.w3.org/2000/svg" xmlns:xlink="http://www.w3.org/1999/xlink" x="0px" y="0px"
	 viewBox="0 0 25 25" style="enable-background:new 0 0 25 25;" xml:space="preserve">
<style type="text/css">
	.st0{fill:#C7E0D1;}
	.st1{fill:#E6F1EA;}
	.st2{fill:#FAAF40;}
	.st3{fill:#E9DD7F;}
	.st4{fill:#03675F;}
	.st5{fill:#FFFFFF;}
	.st6{fill:none;}
	.st7{fill:none;stroke:#231F20;stroke-width:2;stroke-linecap:round;stroke-miterlimit:10;}
	.st8{fill:none;stroke:#03675F;stroke-width:2;stroke-linecap:round;stroke-linejoin:round;stroke-miterlimit:10;}
</style>
<g>
	<path class="st1" d="M22.46,13.43c-0.02,0-0.03,0.01-0.04,0.01c-0.6-0.01-1.19-0.01-1.79-0.06c-0.47-0.04-0.89-0.24-1.27-0.51
		c-0.11-0.08-0.18-0.06-0.29,0.01c-0.31,0.18-0.65,0.33-0.97,0.49c-0.06,0.03-0.15,0.1-0.15,0.15c0,0.63-0.04,1.27,0.04,1.9
		c0.13,1.05,1.08,1.8,2.13,1.74c1.06-0.05,1.91-0.9,1.97-1.96c0.01-0.16,0.19-0.28,0.2-0.44c0.01-0.27-0.01-0.51,0.23-0.5
		c0.01,0,0.02,0,0.03,0.01l-0.03-0.69L22.46,13.43z M19.19,15.09c-0.22,0-0.41-0.19-0.41-0.42c0-0.23,0.19-0.42,0.41-0.42
		c0.22,0,0.41,0.19,0.41,0.42C19.6,14.9,19.41,15.09,19.19,15.09z M20.85,15.09c-0.22,0-0.41-0.19-0.41-0.42
		c0-0.23,0.19-0.42,0.41-0.41c0.22,0,0.41,0.19,0.41,0.42C21.26,14.9,21.07,15.1,20.85,15.09z"/>
	<path class="st2" d="M23.7,13.39c-0.14-1.61-1.5-3-3.11-3.22c-1.97-0.27-3.72,0.89-4.19,2.8c-0.07,0.27-0.08,0.54-0.1,0.82
		c-0.03,0.3-0.18,0.47-0.43,0.47c-0.06,0-0.11-0.01-0.16-0.03v0.9c0.08-0.03,0.17-0.04,0.27-0.02c0.22,0.06,0.31,0.22,0.31,0.43
		c0.01,0.43,0.11,0.84,0.29,1.23c0.13,0.28,0.28,0.45,0.62,0.4c0.23-0.03,0.47-0.01,0.75-0.01c-0.06-0.08-0.09-0.13-0.13-0.17
		c-0.46-0.53-0.7-1.14-0.71-1.84c-0.01-0.69-0.01-1.37,0-2.06c0-0.32,0.14-0.47,0.46-0.49c0.47-0.02,0.84-0.21,1.16-0.54
		c0.09-0.1,0.19-0.2,0.31-0.25c0.16-0.07,0.32-0.02,0.45,0.1c0.52,0.49,1.14,0.71,1.85,0.69c0.36-0.01,0.72-0.01,1.07,0
		c0.3,0,0.48,0.16,0.48,0.41c0,0.25-0.16,0.4-0.45,0.42l0.04,0.14l0.03,0.69c0.22,0.02,0.36,0.19,0.38,0.44
		c0.05,0.89-0.16,1.69-0.77,2.35c-0.01,0.02-0.02,0.04-0.03,0.05c0.3,0.07,0.6,0.14,0.91,0.19c0.05,0.01,0.13-0.06,0.17-0.11
		c0.34-0.45,0.54-0.97,0.55-1.54C23.76,14.91,23.77,14.14,23.7,13.39z"/>
	<g>
		<path class="st1" d="M15.35,19.32c-0.58-0.2-1.1-0.35-1.61-0.56c-0.49-0.2-0.74-0.6-0.75-1.12c-0.01-0.97-0.01-1.94,0-2.91
			c0-0.29,0.18-0.48,0.43-0.47c0.23,0.01,0.4,0.2,0.4,0.47c0,0.77,0,1.54,0,2.3c0,0.36,0.09,0.48,0.45,0.54
			c0.24,0.05,0.49,0.08,0.73,0.13c0.06,0.01,0.14,0.07,0.15,0.12C15.21,18.31,15.28,18.79,15.35,19.32z"/>
	</g>
	<g>
		<path class="st5" d="M19.39,17.96c0.42,0,0.85,0,1.23,0c-0.19,0.19-0.41,0.41-0.62,0.63C19.81,18.39,19.59,18.17,19.39,17.96z"/>
	</g>
	<g>
		<path class="st0" d="M18.68,19.44c-0.06-0.38-0.12-0.71-0.17-1c0.23,0.23,0.47,0.48,0.72,0.73C19.1,19.23,18.91,19.32,18.68,19.44
			z"/>
	</g>
	<g>
		<path class="st0" d="M21.53,18.4c-0.05,0.32-0.11,0.66-0.17,1.03c-0.22-0.11-0.41-0.2-0.58-0.29
			C21.03,18.9,21.27,18.66,21.53,18.4z"/>
	</g>
	<g>
		<path class="st2" d="M7.91,8.8C7.63,8.59,7.38,8.4,7.13,8.21C6.84,8,6.74,7.99,6.44,8.18c-0.64,0.4-1.35,0.63-2.1,0.69
			c-0.12,0.01-0.25,0-0.38,0C3.91,8.13,4.89,7.28,5.83,7.23C6.8,7.17,7.87,7.96,7.91,8.8z"/>
	</g>
	<g>
		<path class="st1" d="M10.08,18c0,0.25,0.01,0.47-0.01,0.69c0,0.04-0.08,0.12-0.12,0.12c-0.33,0.01-0.65,0.01-0.98,0
			c-0.05,0-0.09-0.08-0.13-0.13c-0.01-0.01,0-0.04,0-0.07C8.82,18,8.82,18,9.43,18C9.64,18,9.85,18,10.08,18z"/>
	</g>
	<g>
		<path class="st1" d="M2.42,18.82c-0.01,0-0.03,0-0.04,0c-0.61,0-0.68-0.08-0.56-0.7C1.82,18.07,1.91,18,1.96,18
			c0.31-0.01,0.62-0.01,0.94,0c0.05,0,0.1,0.09,0.15,0.14c0,0,0,0.01,0,0.02C3.08,18.82,3.08,18.82,2.42,18.82z"/>
	</g>
	<g>
		<path class="st1" d="M5.94,14.42c-0.2-0.2-0.43-0.42-0.62-0.6c0.4,0,0.85,0,1.25,0C6.37,14,6.15,14.22,5.94,14.42z"/>
	</g>
	<g>
		<path class="st6" d="M11.17,18.82c-0.21,0.01-0.27-0.06-0.26-0.26c0.01-0.89,0.01-1.78,0-2.66c-0.02-1.4-0.99-2.55-2.36-2.82
			C8.39,13.05,8.22,13.03,8,13c0.42-0.46,0.7-0.94,0.78-1.51c0.05-0.32,0.06-0.64,0.06-0.96C8.83,9.91,8.86,9.28,8.75,8.66
			C8.5,7.23,7.13,6.28,5.61,6.42C4.22,6.54,3.07,7.78,3.04,9.19C3.04,9.46,3.12,9.62,3.33,9.68l0.01-0.81L3.33,9.68
			C3.39,9.7,3.47,9.71,3.55,9.71c1.08,0.04,2.11-0.14,3.07-0.66c0.06-0.03,0.17-0.04,0.22-0.01c0.27,0.19,0.54,0.39,0.8,0.61
			c0.23,0.2,0.35,0.47,0.36,0.77c0.01,0.27,0.02,0.55-0.02,0.83C7.83,12.37,6.76,13.17,5.64,13c-0.99-0.15-1.71-0.94-1.77-1.94
			c0-0.04,0-0.09-0.01-0.13c-0.04-0.24-0.22-0.4-0.44-0.39c-0.04,0-0.08,0.02-0.12,0.03l0,0.38l0-0.38
			c-0.16,0.06-0.27,0.2-0.27,0.41c0,0.69,0.23,1.3,0.67,1.83c0.05,0.06,0.09,0.11,0.17,0.2c-0.12,0.01-0.19,0.02-0.26,0.02
			c-1.43,0.08-2.66,1.39-2.65,2.83c0,0.28,0.16,0.46,0.4,0.47c0.23,0.01,0.4-0.16,0.43-0.42c0.02-0.14,0.01-0.28,0.04-0.42
			c0.25-1.11,1.23-1.76,2.39-1.62c0.07,0.11,0.12,0.22,0.2,0.3c0.39,0.4,0.78,0.78,1.17,1.17c0.24,0.23,0.44,0.23,0.68-0.01
			c0.32-0.32,0.65-0.64,0.96-0.97c0.15-0.15,0.28-0.32,0.44-0.51c0.06,0,0.16,0,0.27,0c1.16,0.01,2.02,0.78,2.12,1.94
			c0.03,0.4,0.01,0.81,0.02,1.21c0,0.13-0.05,0.17-0.17,0.17c-0.23-0.01-0.46,0-0.69,0c-0.36,0-0.36,0-0.38-0.36
			c-0.01-0.3-0.2-0.49-0.45-0.46c-0.23,0.02-0.37,0.19-0.37,0.47c0,0.59-0.01,1.18,0,1.77c0,0.16-0.03,0.24-0.22,0.24
			c-1.24-0.01-2.48-0.01-3.72,0c-0.16,0-0.21-0.05-0.2-0.21c0.01-0.57,0-1.13,0-1.7c0-0.08,0-0.17-0.02-0.24
			c-0.04-0.21-0.21-0.34-0.42-0.33c-0.21,0.01-0.37,0.16-0.4,0.38c-0.01,0.08-0.01,0.16,0,0.25c0.02,0.16-0.05,0.2-0.21,0.2
			c-0.46-0.01-0.93,0-1.39,0c-0.02,0-0.04,0.01-0.06,0.01l0,0.22l0-0.22c-0.28,0.02-0.41,0.17-0.41,0.47c0,0.24,0,0.48,0,0.72
			c0,0.42,0,0.42-0.42,0.46c-0.25,0.02-0.41,0.19-0.41,0.42c0,0.13,0.06,0.24,0.16,0.31v-0.23v0.23c0.07,0.05,0.15,0.09,0.26,0.09
			c0.08,0,0.16,0,0.25,0c3.25,0,6.51,0,9.76,0c0.07,0,0.14-0.01,0.2,0.01c0.05,0.02,0.13,0.07,0.13,0.11
			c0.01,0.23,0.01,0.47,0.01,0.72c-0.14,0-0.23,0-0.33,0c-3.31,0-6.63,0-9.94,0c-0.14,0-0.25,0.04-0.33,0.09v0.14v-0.14
			c-0.1,0.07-0.16,0.17-0.16,0.31c-0.01,0.26,0.18,0.43,0.49,0.44c0.11,0,0.22,0.01,0.34,0.01c0,0.55,0,1.07,0,1.59
			c0,0.43,0,0.85,0,1.28c0,0.24,0.18,0.42,0.4,0.42c0.14,0,0.25-0.06,0.33-0.16H1.26h0.45c0.05-0.06,0.08-0.13,0.09-0.22
			c0.01-0.07,0.01-0.15,0.01-0.22c0-0.81,0-1.61,0-2.42c0-0.09,0-0.17,0-0.27c0.11,0,0.18-0.01,0.25-0.01c2.59,0,5.18,0,7.77,0
			c0.2,0,0.27,0.05,0.27,0.26c-0.01,0.84-0.01,1.69,0,2.53c0,0.12,0.03,0.25,0.09,0.35h0.45h-0.45c0,0.01,0,0.01,0.01,0.02
			c0.1,0.15,0.27,0.18,0.44,0.12c0.2-0.08,0.28-0.23,0.28-0.44c0-0.85,0-1.7,0-2.55c0-0.09,0-0.17,0-0.29c0.12,0,0.21,0,0.3,0
			c0.38,0,0.52-0.14,0.53-0.53c0-0.47,0-0.94,0-1.41C11.73,18.94,11.61,18.81,11.17,18.82z"/>
	</g>
	<g>
		<path class="st6" d="M22.5,24.61c0.15,0,0.26-0.06,0.33-0.16h-0.64C22.25,24.55,22.36,24.61,22.5,24.61z"/>
	</g>
	<g>
		<path class="st6" d="M5.11,10.95c0.23,0,0.41-0.18,0.41-0.41c0-0.23-0.18-0.41-0.41-0.41c-0.23,0-0.41,0.18-0.41,0.41
			C4.7,10.76,4.89,10.95,5.11,10.95z"/>
	</g>
	<g>
		<path class="st6" d="M6.78,10.95c0.22-0.01,0.41-0.2,0.41-0.42c-0.01-0.22-0.2-0.41-0.42-0.4c-0.23,0-0.41,0.2-0.41,0.42
			C6.36,10.77,6.56,10.95,6.78,10.95z"/>
	</g>
	<g>
		<path class="st6" d="M20.01,24.61c0.14,0,0.26-0.06,0.34-0.16H19.7C19.77,24.55,19.88,24.61,20.01,24.61z"/>
	</g>
	<g>
		<path class="st6" d="M20.85,14.26c-0.22,0-0.41,0.19-0.41,0.42c0,0.23,0.19,0.42,0.41,0.42c0.22,0,0.41-0.19,0.41-0.42
			C21.26,14.45,21.07,14.26,20.85,14.26z"/>
	</g>
	<g>
		<path class="st6" d="M24.7,18.82c-0.24-0.39-0.53-0.75-0.79-1.12c-0.04,0.02-0.05,0-0.04-0.01c0.01-0.03,0.03-0.05,0.05-0.08
			c0.46-0.67,0.67-1.42,0.66-2.24c-0.01-0.48,0-0.97,0-1.45c-0.01-2.81-2.29-4.87-5.08-4.6c-2.23,0.22-4.03,2.2-4.02,4.45
			c0,0.23,0.09,0.39,0.24,0.46v-0.41v0.41c0.05,0.02,0.1,0.03,0.16,0.03c0.25,0.01,0.4-0.16,0.43-0.47c0.02-0.27,0.04-0.55,0.1-0.82
			c0.48-1.91,2.22-3.07,4.19-2.8c1.6,0.22,2.97,1.6,3.11,3.22c0.07,0.76,0.05,1.52,0.04,2.28c-0.01,0.56-0.21,1.08-0.55,1.54
			c-0.04,0.05-0.12,0.12-0.17,0.11c-0.3-0.05-0.6-0.13-0.91-0.19c0.01-0.02,0.01-0.04,0.03-0.05c0.61-0.67,0.83-1.47,0.77-2.35
			c-0.02-0.26-0.17-0.44-0.4-0.45c-0.24-0.01-0.42,0.18-0.43,0.45c-0.01,0.16,0,0.33-0.01,0.49c-0.06,1.06-0.91,1.91-1.97,1.96
			c-1.05,0.05-2-0.7-2.13-1.74c-0.07-0.63-0.04-1.27-0.04-1.9c0-0.05,0.09-0.12,0.15-0.15c0.32-0.17,0.65-0.31,0.97-0.49
			c0.11-0.07,0.18-0.09,0.29-0.01c0.38,0.27,0.81,0.47,1.27,0.51c0.59,0.05,1.19,0.05,1.79,0.06c0.32,0.01,0.5-0.16,0.49-0.42
			c0-0.25-0.18-0.41-0.48-0.41c-0.36,0-0.72-0.01-1.07,0c-0.71,0.02-1.34-0.2-1.85-0.69c-0.13-0.13-0.29-0.18-0.45-0.1
			c-0.12,0.05-0.22,0.15-0.31,0.25c-0.32,0.33-0.7,0.52-1.16,0.54c-0.32,0.01-0.45,0.17-0.46,0.49c0,0.69-0.01,1.37,0,2.06
			c0.01,0.7,0.25,1.31,0.71,1.84c0.04,0.04,0.07,0.09,0.13,0.17c-0.28,0-0.52-0.03-0.75,0.01c-0.34,0.05-0.49-0.12-0.62-0.4
			c-0.18-0.39-0.28-0.8-0.29-1.23c-0.01-0.22-0.1-0.38-0.31-0.43c-0.1-0.02-0.19-0.02-0.27,0.02v0.39v-0.39
			c-0.15,0.06-0.25,0.2-0.23,0.39c0.05,0.48,0.14,0.96,0.21,1.47c-0.24-0.04-0.51-0.11-0.78-0.12c-0.25-0.01-0.28-0.12-0.28-0.34
			c0.01-0.62,0.01-1.24,0-1.86c-0.01-0.68-0.55-1.22-1.22-1.23c-0.67-0.01-1.24,0.51-1.25,1.18c-0.02,1.04-0.02,2.09,0,3.13
			c0.02,0.82,0.58,1.56,1.36,1.83c0.23,0.08,0.47,0.15,0.7,0.23c0.63,0.24,1.31,0.34,1.88,0.75c0.14,0.1,0.2,0.21,0.2,0.38
			c-0.01,1.07-0.01,2.13,0,3.2c0,0.29,0.16,0.46,0.4,0.47c0.14,0,0.25-0.06,0.33-0.16h-0.58h0.58c0.05-0.08,0.09-0.17,0.09-0.29
			c0.01-1.22,0-2.43,0-3.65c0-0.19-0.08-0.33-0.24-0.43c-0.09-0.05-0.17-0.12-0.26-0.17c-0.29-0.14-0.45-0.34-0.44-0.68
			c0-0.18-0.05-0.35-0.07-0.53c-0.04-0.26-0.07-0.53-0.11-0.81c0.07,0,0.11,0,0.16,0c0.42,0.03,0.83,0.07,1.25,0.09
			c0.15,0.01,0.21,0.05,0.23,0.2c0.1,0.62,0.21,1.23,0.3,1.85c0.03,0.2,0.11,0.37,0.32,0.41c0.12,0.02,0.27-0.02,0.38-0.07
			c0.32-0.14,0.62-0.3,0.97-0.48c0,0.14,0,0.23,0,0.32c0,1.27,0,2.54,0,3.81c0,0.07,0,0.15,0.01,0.22c0.01,0.08,0.04,0.14,0.09,0.2
			h0.65c0.03-0.04,0.06-0.09,0.07-0.15c0.02-0.09,0.02-0.19,0.02-0.29c0-1.27,0-2.54,0-3.81c0-0.08,0.01-0.17,0.01-0.29
			c0.27,0.14,0.52,0.24,0.75,0.38c0.62,0.37,0.87,0.14,0.94-0.5c0.07-0.58,0.19-1.16,0.29-1.74c0.06,0,0.11,0,0.15,0.01
			c0.79,0.22,1.34,0.72,1.5,1.52c0.1,0.52,0.06,1.07,0.06,1.6c0,0.04-0.09,0.11-0.14,0.11c-0.31,0.01-0.63,0-0.94,0.01
			c-0.12,0-0.16-0.06-0.15-0.17c0-0.06,0-0.12,0-0.18c0-0.3-0.15-0.48-0.4-0.49c-0.26-0.01-0.42,0.18-0.42,0.49c0,1.05,0,2.1,0,3.16
			c0,0.14,0.04,0.24,0.09,0.32h0.64c0.06-0.08,0.09-0.19,0.09-0.33c0-0.59,0.01-1.18,0-1.77c0-0.16,0.04-0.23,0.21-0.22
			c0.28,0.01,0.55,0.01,0.83,0c0.18-0.01,0.21,0.06,0.21,0.22c-0.01,0.59,0,1.18,0,1.77c0,0.13,0.03,0.24,0.09,0.33h0.36h-0.36
			c0.07,0.11,0.19,0.17,0.33,0.16c0.25-0.01,0.4-0.19,0.4-0.49c0-1.37,0-2.73,0-4.1C24.99,19.6,24.92,19.18,24.7,18.82z"/>
	</g>
	<g>
		<path class="st6" d="M19.19,14.26c-0.22,0-0.41,0.19-0.41,0.42c0,0.23,0.19,0.42,0.41,0.42c0.22,0,0.41-0.19,0.41-0.42
			C19.61,14.46,19.41,14.26,19.19,14.26z"/>
	</g>
	<g>
		<path class="st1" d="M24.16,22.35c0-0.16-0.03-0.23-0.21-0.22c-0.28,0.01-0.55,0.01-0.83,0c-0.17-0.01-0.21,0.06-0.21,0.22
			c0.01,0.59,0,1.18,0,1.77c0,0.14-0.03,0.25-0.09,0.33h1.42c-0.06-0.08-0.09-0.19-0.09-0.33C24.16,23.53,24.15,22.94,24.16,22.35z"
			/>
	</g>
	<g>
		<path class="st0" d="M22.09,20.97c0-0.31,0.17-0.5,0.42-0.49c0.25,0.01,0.4,0.19,0.4,0.49c0,0.06,0,0.12,0,0.18
			c-0.01,0.11,0.03,0.17,0.15,0.17c0.31,0,0.63,0,0.94-0.01c0.05,0,0.14-0.07,0.14-0.11c-0.01-0.54,0.04-1.08-0.06-1.6
			c-0.16-0.81-0.7-1.31-1.5-1.52c-0.04-0.01-0.09-0.01-0.15-0.01c-0.1,0.58-0.22,1.16-0.29,1.74c-0.08,0.63-0.32,0.87-0.94,0.5
			c-0.23-0.14-0.48-0.24-0.75-0.38c-0.01,0.12-0.01,0.2-0.01,0.29c0,1.27,0,2.54,0,3.81c0,0.1,0,0.2-0.02,0.29
			c-0.01,0.06-0.04,0.11-0.07,0.15h1.84c-0.06-0.08-0.09-0.19-0.09-0.32C22.09,23.07,22.09,22.02,22.09,20.97z"/>
	</g>
	<g>
		<path class="st1" d="M4.11,12.25c0.01,0.04,0.54,0.6,1.53,0.75c1.12,0.17,2.19-0.62,2.34-1.74C8.02,10.98,8.01,10.7,8,10.43
			c-0.01-0.3-0.13-0.57-0.36-0.77c-0.25-0.22-0.52-0.42-0.8-0.61C6.79,9.01,6.68,9.02,6.62,9.05c-0.96,0.53-1.99,0.7-3.07,0.66
			c-0.09,0-0.16-0.01-0.23-0.03l-0.01,0.89c0.04-0.01,0.07-0.03,0.12-0.03C3.65,10.52,4.08,12.01,4.11,12.25z M6.76,10.13
			c0.23,0,0.42,0.18,0.42,0.4c0.01,0.22-0.19,0.42-0.41,0.42c-0.22,0.01-0.42-0.18-0.42-0.4C6.35,10.32,6.54,10.13,6.76,10.13z
			 M5.11,10.13c0.23,0,0.41,0.18,0.41,0.41c0,0.23-0.19,0.41-0.41,0.41c-0.22,0-0.41-0.19-0.41-0.41
			C4.7,10.31,4.88,10.13,5.11,10.13z"/>
	</g>
	<g>
		<path class="st3" d="M10.09,21.57c0-0.21-0.06-0.26-0.27-0.26c-2.59,0.01-5.18,0-7.77,0c-0.07,0-0.15,0.01-0.25,0.01
			c0,0.1,0,0.18,0,0.27c0,0.81,0,1.61,0,2.42c0,0.07,0,0.15-0.01,0.22c-0.01,0.09-0.05,0.16-0.09,0.22h8.48
			c-0.06-0.1-0.09-0.23-0.09-0.35C10.08,23.25,10.08,22.41,10.09,21.57z"/>
	</g>
	<g>
		<path class="st1" d="M16.47,1.95c-0.45-0.3-0.94-0.51-1.47-0.63c-2.65-0.61-5.23,1.61-5,4.33c0.11,1.36,0.74,2.42,1.87,3.18
			c0.16,0.11,0.25,0.23,0.28,0.43c0.1,0.67,0.42,1.3,0.84,1.64C12.99,10.84,13,10.8,13,10.76c0.01-0.3,0.01-0.61,0.03-0.91
			c0.02-0.27,0.19-0.4,0.47-0.4c0.38,0.01,0.76,0.04,1.14,0c1.73-0.17,3.23-1.58,3.55-3.28c0.2-1.12,0.01-2.15-0.61-3.1
			c-0.12-0.19-0.14-0.37-0.06-0.51l-0.61-0.6C16.77,2.04,16.61,2.04,16.47,1.95z"/>
	</g>
	<g>
		<path class="st0" d="M2.84,17.17c0.15,0,0.22-0.04,0.21-0.2c-0.01-0.08-0.01-0.16,0-0.25c0.02-0.22,0.19-0.38,0.4-0.38
			c0.2-0.01,0.37,0.12,0.42,0.33c0.02,0.08,0.02,0.16,0.02,0.24c0,0.57,0.01,1.13,0,1.7c0,0.16,0.05,0.21,0.2,0.21
			c1.24-0.01,2.48-0.01,3.72,0c0.19,0,0.22-0.08,0.22-0.24c-0.01-0.59-0.01-1.18,0-1.77c0-0.28,0.14-0.45,0.37-0.47
			c0.26-0.02,0.44,0.16,0.45,0.46c0.02,0.36,0.02,0.36,0.38,0.36c0.23,0,0.46,0,0.69,0c0.12,0,0.18-0.04,0.17-0.17
			c-0.01-0.4,0.02-0.81-0.02-1.21c-0.1-1.15-0.96-1.93-2.12-1.94c-0.1,0-0.21,0-0.27,0c-0.16,0.19-0.29,0.36-0.44,0.51
			c-0.32,0.33-0.64,0.65-0.96,0.97c-0.24,0.24-0.44,0.24-0.68,0.01c-0.39-0.39-0.78-0.78-1.17-1.17c-0.08-0.08-0.13-0.19-0.2-0.3
			c-1.16-0.14-2.14,0.51-2.39,1.62c-0.03,0.14-0.14,0.26-0.16,0.4c-0.03,0.27-0.08,0.45-0.31,0.44l0.01,0.84
			c0.02,0,0.04-0.01,0.06-0.01C1.91,17.16,2.37,17.16,2.84,17.17z"/>
	</g>
	<g>
		<path class="st0" d="M19.61,24.03c0-1.27,0-2.54,0-3.81c0-0.09,0-0.18,0-0.32c-0.35,0.17-0.65,0.33-0.97,0.48
			c-0.12,0.05-0.26,0.09-0.38,0.07c-0.21-0.04-0.28-0.21-0.32-0.41c-0.1-0.62-0.21-1.23-0.3-1.85c-0.02-0.15-0.08-0.19-0.23-0.2
			c-0.42-0.02-0.83-0.06-1.25-0.09c-0.04,0-0.09,0-0.16,0c0.04,0.28,0.07,0.54,0.11,0.81c0.02,0.18,0.08,0.35,0.07,0.53
			c-0.01,0.34,0.15,0.54,0.44,0.68c0.09,0.04,0.17,0.12,0.26,0.17c0.16,0.1,0.24,0.24,0.24,0.43c0,1.22,0,2.43,0,3.65
			c0,0.12-0.04,0.21-0.09,0.29h2.67c-0.04-0.06-0.08-0.12-0.09-0.2C19.6,24.18,19.61,24.1,19.61,24.03z"/>
	</g>
	<g>
		<path class="st3" d="M10.58,20.47c0.1,0,0.19,0,0.33,0c0-0.25,0.01-0.48-0.01-0.72c0-0.04-0.08-0.09-0.13-0.11
			c-0.06-0.02-0.13-0.01-0.2-0.01c-3.25,0-6.51,0-9.76,0c-0.08,0-0.16,0-0.25,0c-0.1-0.01-0.19-0.04-0.26-0.09v1.02
			c0.08-0.06,0.19-0.09,0.33-0.09C3.95,20.47,7.26,20.47,10.58,20.47z"/>
	</g>
	<g>
		<path class="st4" d="M6.78,10.95c0.22-0.01,0.41-0.2,0.41-0.42c-0.01-0.22-0.2-0.41-0.42-0.4c-0.23,0-0.41,0.2-0.41,0.42
			C6.36,10.77,6.56,10.95,6.78,10.95z"/>
		<path class="st4" d="M5.11,10.95c0.23,0,0.41-0.18,0.41-0.41c0-0.23-0.18-0.41-0.41-0.41c-0.23,0-0.41,0.18-0.41,0.41
			C4.7,10.76,4.89,10.95,5.11,10.95z"/>
		<path class="st4" d="M19.19,14.26c-0.22,0-0.41,0.19-0.41,0.42c0,0.23,0.19,0.42,0.41,0.42c0.22,0,0.41-0.19,0.41-0.42
			C19.61,14.46,19.41,14.26,19.19,14.26z"/>
		<path class="st4" d="M20.85,14.26c-0.22,0-0.41,0.19-0.41,0.42c0,0.23,0.19,0.42,0.41,0.42c0.22,0,0.41-0.19,0.41-0.42
			C21.26,14.45,21.07,14.26,20.85,14.26z"/>
		<path class="st4" d="M24.99,24.14c0-0.01,0-0.01,0-0.02c0-1.37,0-2.73,0-4.1c0-0.42-0.07-0.84-0.29-1.21
			c-0.24-0.39-0.53-0.75-0.79-1.12c-0.04,0.02-0.05,0-0.04-0.01c0.01-0.03,0.03-0.05,0.05-0.08c0.46-0.67,0.67-1.42,0.66-2.24
			c-0.01-0.48,0-0.97,0-1.45c-0.01-2.81-2.29-4.87-5.08-4.6c-2.23,0.22-4.03,2.2-4.02,4.45c0,0,0,0,0,0c-0.03,0.45,0,1.68,0.01,1.74
			c0.05,0.48,0.14,0.96,0.21,1.47c-0.24-0.04-0.51-0.11-0.78-0.12c-0.25-0.01-0.29-0.12-0.28-0.34c0.01-0.62,0.01-1.24,0-1.86
			c-0.01-0.68-0.55-1.22-1.22-1.23c-0.67-0.01-1.24,0.51-1.25,1.18c-0.02,1.04-0.02,2.09,0,3.13c0.02,0.82,0.58,1.56,1.36,1.83
			c0.23,0.08,0.47,0.15,0.7,0.23c0.63,0.24,1.31,0.34,1.88,0.75c0.14,0.1,0.2,0.21,0.2,0.38c-0.01,1.07-0.01,2.13,0,3.2
			c0,0.29,0.16,0.46,0.4,0.47c0.06,0,0.11-0.01,0.16-0.03c0.04,0.01,0.07,0.02,0.11,0.02h3.01c0.01,0,0.02,0.01,0.03,0.01
			c0.01,0,0.03,0,0.04-0.01h2.42c0.01,0,0.02,0.01,0.03,0.01c0.01,0,0.02-0.01,0.03-0.01h2.02c0.01,0,0.02,0.01,0.03,0.01
			c0.07,0,0.13-0.02,0.18-0.05C24.9,24.5,25,24.37,25,24.2C25,24.18,24.99,24.16,24.99,24.14z M13.74,18.76
			c-0.49-0.2-0.74-0.6-0.75-1.12c-0.01-0.97-0.01-1.94,0-2.91c0-0.29,0.18-0.48,0.43-0.47c0.23,0.01,0.4,0.2,0.4,0.47
			c0,0.77,0,1.54,0,2.3c0,0.36,0.09,0.48,0.45,0.54c0.24,0.05,0.49,0.08,0.73,0.13c0.06,0.01,0.14,0.07,0.15,0.12
			c0.08,0.48,0.14,0.95,0.22,1.48C14.77,19.12,14.25,18.96,13.74,18.76z M16.28,13.89c0.01-0.03,0.02-0.06,0.02-0.1
			c0.02-0.27,0.04-0.55,0.1-0.82c0.48-1.91,2.22-3.07,4.19-2.8c1.6,0.22,2.97,1.6,3.11,3.22c0.07,0.76,0.05,1.52,0.04,2.28
			c-0.01,0.56-0.21,1.08-0.55,1.54c-0.04,0.05-0.12,0.12-0.17,0.11c-0.3-0.05-0.6-0.13-0.91-0.19c0.01-0.02,0.01-0.04,0.03-0.05
			c0.59-0.64,0.81-1.41,0.77-2.25c0.07-0.82,0.04-1.6,0.03-1.74c0-0.07-0.03-0.13-0.06-0.18c-0.05-0.18-0.21-0.28-0.46-0.29
			c-0.36,0-0.72-0.01-1.07,0c-0.71,0.02-1.34-0.2-1.85-0.69c-0.13-0.13-0.29-0.18-0.45-0.1c-0.12,0.05-0.22,0.15-0.31,0.25
			c-0.32,0.33-0.7,0.52-1.16,0.54c-0.32,0.01-0.45,0.17-0.46,0.49c0,0.69-0.01,1.37,0,2.06c0.01,0.7,0.25,1.31,0.71,1.84
			c0.04,0.04,0.07,0.09,0.13,0.17c-0.28,0-0.52-0.03-0.75,0.01c-0.16,0.02-0.28-0.01-0.37-0.07c-0.01-0.03-0.01-0.06-0.03-0.09
			C16.27,15.99,16.22,14.75,16.28,13.89z M20.12,17.16c-1.05,0.05-2-0.7-2.13-1.74c-0.07-0.63-0.04-1.27-0.04-1.9
			c0-0.05,0.09-0.12,0.15-0.15c0.32-0.17,0.65-0.31,0.97-0.49c0.11-0.07,0.18-0.09,0.29-0.01c0.38,0.27,0.81,0.47,1.27,0.51
			c0.5,0.04,1.01,0.05,1.52,0.05c0.01,0.3,0,0.69-0.02,1.09c0,0.14-0.04,0.38-0.04,0.47c-0.05,0.46-0.14,0.88-0.29,1.12
			c0,0.01,0,0.01-0.01,0.02C21.45,16.72,20.84,17.12,20.12,17.16z M21.53,18.4c-0.05,0.32-0.11,0.66-0.17,1.03
			c-0.22-0.11-0.41-0.2-0.58-0.29C21.03,18.9,21.27,18.66,21.53,18.4z M19.24,19.16c-0.14,0.07-0.32,0.16-0.55,0.28
			c-0.06-0.38-0.12-0.71-0.17-1C18.74,18.66,18.99,18.91,19.24,19.16z M17.12,23.8c0-1.09,0-2.19,0-3.28c0-0.19-0.08-0.33-0.24-0.43
			c-0.09-0.05-0.17-0.12-0.26-0.17c-0.29-0.14-0.45-0.34-0.44-0.68c0-0.18-0.05-0.35-0.07-0.53c-0.04-0.26-0.07-0.53-0.11-0.81
			c0.07,0,0.11,0,0.16,0c0.42,0.03,0.83,0.07,1.25,0.09c0.15,0.01,0.21,0.05,0.23,0.2c0.1,0.62,0.21,1.23,0.3,1.85
			c0.03,0.2,0.11,0.37,0.32,0.41c0.12,0.02,0.27-0.02,0.38-0.07c0.32-0.14,0.62-0.3,0.97-0.48c0,0.14,0,0.23,0,0.32
			c0,1.19,0,2.38,0,3.57H17.12z M20,18.59c-0.19-0.2-0.41-0.42-0.61-0.63c0.42,0,0.85,0,1.23,0C20.44,18.15,20.22,18.37,20,18.59z
			 M22.51,20.48c-0.26-0.01-0.42,0.18-0.42,0.49c0,0.94,0,1.89,0,2.83h-1.65c0-1.2,0-2.39,0-3.59c0-0.08,0.01-0.17,0.01-0.29
			c0.27,0.14,0.52,0.24,0.75,0.38c0.62,0.37,0.87,0.14,0.94-0.5c0.07-0.58,0.19-1.16,0.29-1.74c0.06,0,0.11,0,0.15,0.01
			c0.79,0.22,1.34,0.72,1.5,1.52c0.1,0.52,0.06,1.07,0.06,1.6c0,0.04-0.09,0.11-0.14,0.11c-0.31,0.01-0.63,0-0.94,0.01
			c-0.12,0-0.16-0.06-0.15-0.17c0-0.06,0-0.12,0-0.18C22.91,20.66,22.76,20.48,22.51,20.48z M24.16,23.8h-1.24c0-0.48,0-0.96,0-1.45
			c0-0.16,0.04-0.23,0.21-0.22c0.28,0.01,0.55,0.01,0.83,0c0.18-0.01,0.21,0.06,0.21,0.22C24.15,22.84,24.16,23.32,24.16,23.8z"/>
		<path class="st4" d="M3.73,5.26c0.12,0.22,0.35,0.28,0.55,0.17C4.49,5.33,4.57,5.1,4.46,4.88c-0.19-0.39-0.4-0.78-0.6-1.17
			C3.77,3.54,3.62,3.48,3.46,3.5C3.16,3.54,3,3.82,3.12,4.07C3.31,4.48,3.52,4.87,3.73,5.26z"/>
		<path class="st4" d="M2.45,6.4c0.19,0.16,0.42,0.14,0.58-0.04C3.18,6.19,3.18,5.95,3,5.78C2.67,5.48,2.35,5.19,2.02,4.9
			C1.87,4.78,1.71,4.77,1.57,4.84C1.3,4.99,1.25,5.3,1.46,5.5C1.78,5.81,2.11,6.11,2.45,6.4z"/>
		<path class="st4" d="M0.64,7.64c0.37,0.12,0.75,0.25,1.12,0.37C2.04,8.1,2.27,8,2.35,7.76C2.42,7.53,2.3,7.31,2.02,7.22
			C1.66,7.1,1.29,6.98,0.92,6.86C0.85,6.83,0.78,6.82,0.75,6.81c-0.28,0-0.47,0.2-0.45,0.43C0.32,7.46,0.45,7.58,0.64,7.64z"/>
		<path class="st4" d="M11.17,18.82c-0.21,0.01-0.27-0.06-0.26-0.26c0.01-0.89,0.01-1.78,0-2.66c-0.02-1.4-0.99-2.55-2.36-2.82
			C8.39,13.05,8.22,13.03,8,13c0.42-0.46,0.7-0.94,0.78-1.51c0.05-0.32,0.06-0.64,0.06-0.96C8.83,9.91,8.86,9.28,8.75,8.66
			C8.5,7.23,7.13,6.28,5.61,6.42c-1.37,0.12-2.5,1.33-2.56,2.71C3.04,9.15,3.03,9.17,3.03,9.19c-0.01,0.06-0.13,1.1,0.04,2.07
			c0.06,0.57,0.27,1.09,0.65,1.54c0.05,0.06,0.09,0.11,0.17,0.2c-0.12,0.01-0.19,0.02-0.26,0.02c-1.43,0.08-2.66,1.39-2.65,2.83
			c0,0.03-0.01,0.15-0.01,0.19l0.02,1.51c0,0.03-0.01,0.05-0.01,0.09c0,0.24,0,0.48,0,0.72c0,0.42,0,0.42-0.42,0.46
			c-0.04,0-0.07,0.02-0.1,0.03c-0.02,0-0.04-0.01-0.06-0.01c-0.22,0-0.4,0.19-0.4,0.41l0.02,1.66c0,0.22,0.18,0.4,0.4,0.4
			c0,0,0,0,0.01,0c0.02,0,0.05-0.01,0.07-0.01c0.04,0.01,0.08,0.02,0.13,0.02c0.11,0,0.22,0.01,0.34,0.01c0,0.55,0,1.07,0,1.59
			c0,0.43,0,0.85,0,1.28c0,0.24,0.18,0.42,0.4,0.42c0.05,0,0.11-0.01,0.15-0.02c0.03,0.01,0.06,0.02,0.09,0.02h8.77
			c0.08,0.02,0.16,0.01,0.24-0.02c0.2-0.08,0.28-0.23,0.28-0.44c0-0.85,0-1.7,0-2.55c0-0.09,0-0.17,0-0.29c0.12,0,0.21,0,0.3,0
			c0.38,0,0.52-0.14,0.53-0.53c0-0.47,0-0.94,0-1.41C11.73,18.94,11.61,18.81,11.17,18.82z M5.83,7.23C6.8,7.17,7.87,7.96,7.91,8.8
			C7.63,8.59,7.38,8.4,7.13,8.21C6.84,8,6.74,7.99,6.44,8.18c-0.64,0.4-1.35,0.63-2.1,0.69c-0.12,0.01-0.25,0-0.38,0
			C3.91,8.13,4.89,7.28,5.83,7.23z M3.8,9.72c0.99,0,1.94-0.18,2.82-0.67c0.06-0.03,0.17-0.04,0.22,0c0.27,0.19,0.54,0.39,0.8,0.61
			c0.23,0.2,0.35,0.47,0.36,0.77c0.01,0.27,0.02,0.55-0.02,0.83C7.83,12.37,6.76,13.17,5.64,13c-0.69-0.11-1.25-0.53-1.54-1.12
			c-0.01-0.01,0-0.03-0.01-0.04c-0.04-0.08-0.08-0.17-0.11-0.27c-0.01-0.02-0.01-0.04-0.02-0.06c-0.01-0.05-0.03-0.1-0.04-0.15
			C3.9,11.27,3.74,10.81,3.8,9.72z M6.56,13.81c-0.19,0.18-0.42,0.4-0.63,0.6c-0.2-0.2-0.43-0.42-0.62-0.6
			C5.72,13.81,6.16,13.81,6.56,13.81z M1.85,15.49c0.25-1.11,1.23-1.76,2.39-1.62c0.07,0.11,0.12,0.22,0.2,0.3
			c0.39,0.4,0.78,0.78,1.17,1.17c0.24,0.23,0.44,0.23,0.68-0.01c0.32-0.32,0.65-0.64,0.96-0.97c0.15-0.15,0.28-0.32,0.44-0.51
			c0.06,0,0.16,0,0.27,0c1.16,0.01,2.02,0.78,2.12,1.94c0.03,0.4,0.01,0.81,0.02,1.21c0,0.13-0.05,0.17-0.17,0.17
			c-0.23-0.01-0.46,0-0.69,0c-0.36,0-0.36,0-0.38-0.36c-0.01-0.3-0.2-0.49-0.45-0.46c-0.23,0.02-0.37,0.19-0.37,0.47
			c0,0.59-0.01,1.18,0,1.77c0,0.16-0.03,0.24-0.22,0.24c-1.24-0.01-2.48-0.01-3.72,0c-0.16,0-0.21-0.05-0.2-0.21
			c0.01-0.57,0-1.13,0-1.7c0-0.08,0-0.17-0.02-0.24c-0.04-0.21-0.21-0.34-0.42-0.33c-0.21,0.01-0.37,0.16-0.4,0.38
			c-0.01,0.08-0.01,0.16,0,0.25c0.02,0.16-0.05,0.2-0.21,0.2c-0.35-0.01-0.7,0-1.05,0c0,0-0.02-0.82-0.01-1.1
			C1.78,15.82,1.82,15.62,1.85,15.49z M9.43,18c0.21,0,0.41,0,0.65,0c0,0.25,0.01,0.47-0.01,0.69c0,0.04-0.08,0.12-0.12,0.12
			c-0.33,0.01-0.65,0.01-0.98,0c-0.05,0-0.09-0.08-0.13-0.13c-0.01-0.01,0-0.04,0-0.07C8.82,18,8.82,18,9.43,18z M1.81,18.12
			C1.82,18.07,1.91,18,1.96,18c0.31-0.01,0.62-0.01,0.94,0c0.05,0,0.1,0.09,0.15,0.14c0,0,0,0.01,0,0.02
			c0.04,0.66,0.04,0.66-0.62,0.66c-0.01,0-0.03,0-0.04,0C1.77,18.82,1.7,18.74,1.81,18.12z M10.09,23.8H1.81c0-0.74,0-1.47,0-2.21
			c0-0.09,0-0.17,0-0.27c0.11,0,0.18-0.01,0.25-0.01c2.59,0,5.18,0,7.77,0c0.2,0,0.27,0.05,0.27,0.26
			C10.08,22.31,10.08,23.05,10.09,23.8z M10.91,20.47c-0.14,0-0.23,0-0.33,0c-3.25,0-6.5,0-9.75,0l-0.01-0.83c3.25,0,6.5,0,9.76,0
			c0.07,0,0.14-0.01,0.2,0.01c0.05,0.02,0.13,0.07,0.13,0.11C10.91,19.99,10.91,20.23,10.91,20.47z"/>
		<path class="st4" d="M13.29,12.22c0.21,0.15,0.41,0.3,0.67,0.12c0.19-0.13,0.21-0.3,0.08-0.67c-0.15-0.42-0.22-0.85-0.2-1.32
			c0.07,0,0.1,0,0.14,0c1.38,0.02,2.58-0.43,3.58-1.38c1.74-1.64,2.1-4.4,0.72-6.32c-0.45-0.64-0.62-0.87-1.41-1.42
			c-1.1-0.77-2.41-0.99-3.74-0.76c-2.09,0.36-3.85,2.3-3.99,4.4C9,6.76,9.7,8.28,11.21,9.41c0.07,0.05,0.13,0.16,0.15,0.25
			c0.12,0.51,0.33,0.99,0.64,1.42C12.35,11.55,12.82,11.89,13.29,12.22z M11.87,8.85c-1.13-0.76-1.76-1.82-1.87-3.18
			c-0.23-2.71,2.35-4.94,5-4.33c0.46,0.11,0.89,0.29,1.29,0.53c0.12,0.09,0.84,0.53,1.27,1.23c0.41,0.67,0.81,1.99,0.61,3.1
			c-0.31,1.7-1.82,3.11-3.55,3.28c-0.37,0.04-0.76,0-1.14,0c-0.28,0-0.45,0.13-0.47,0.4c-0.02,0.3-0.02,0.61-0.03,0.91
			c0,0.04-0.01,0.08-0.02,0.12c-0.41-0.34-0.74-0.96-0.84-1.64C12.12,9.08,12.03,8.95,11.87,8.85z"/>
		<path class="st2" d="M11.7,4.24h4.5c0.22,0,0.4-0.18,0.4-0.4c0-0.22-0.18-0.4-0.4-0.4h-4.5c-0.22,0-0.4,0.18-0.4,0.4
			C11.29,4.06,11.47,4.24,11.7,4.24z"/>
		<path class="st2" d="M11.7,5.58h4.5c0.22,0,0.4-0.18,0.4-0.4c0-0.22-0.18-0.4-0.4-0.4h-4.5c-0.22,0-0.4,0.18-0.4,0.4
			C11.29,5.4,11.47,5.58,11.7,5.58z"/>
		<path class="st2" d="M16.6,6.52c0-0.22-0.18-0.4-0.4-0.4h-4.5c-0.22,0-0.4,0.18-0.4,0.4c0,0.22,0.18,0.4,0.4,0.4h4.5
			C16.42,6.92,16.6,6.74,16.6,6.52z"/>
	</g>
	<path class="st4" d="M19.19,14.26c-0.22,0-0.41,0.19-0.41,0.42c0,0.23,0.19,0.42,0.41,0.42c0.22,0,0.41-0.19,0.41-0.42
		C19.61,14.46,19.41,14.26,19.19,14.26z"/>
	<path class="st4" d="M20.85,14.26c-0.22,0-0.41,0.19-0.41,0.41c0,0.23,0.19,0.42,0.41,0.42c0.22,0,0.41-0.19,0.41-0.42
		C21.26,14.45,21.07,14.26,20.85,14.26z"/>
</g>
</svg>
