<?xml version="1.0" encoding="utf-8"?>
<!-- Generator: Adobe Illustrator 24.0.1, SVG Export Plug-In . SVG Version: 6.00 Build 0)  -->
<svg version="1.1" id="Layer_1" xmlns="http://www.w3.org/2000/svg" xmlns:xlink="http://www.w3.org/1999/xlink" x="0px" y="0px"
	 viewBox="0 0 25 25" style="enable-background:new 0 0 25 25;" xml:space="preserve">
<style type="text/css">
	.st0{fill:#C7E0D1;}
	.st1{fill:#E6F1EA;}
	.st2{fill:#FAAF40;}
	.st3{fill:#E9DD7F;}
	.st4{fill:#03675F;}
	.st5{fill:#FFFFFF;}
	.st6{fill:none;}
	.st7{fill:none;stroke:#231F20;stroke-width:2;stroke-linecap:round;stroke-miterlimit:10;}
	.st8{fill:none;stroke:#03675F;stroke-width:2;stroke-linecap:round;stroke-linejoin:round;stroke-miterlimit:10;}
	.st9{fill:#6AB98B;}
	.st10{fill:#73C7E2;}
	.st11{fill:#29B473;}
	.st12{fill:#005E99;}
	.st13{fill:#ADDCF6;}
	.st14{fill:#EF535F;}
	.st15{fill:#006892;}
	.st16{fill:#97D2B2;}
	.st17{fill:#F7AEAB;}
</style>
<g>
	<path class="st12" d="M12.27,23.9c-2.09,0-4.18,0-6.26,0c-1.39,0-2.44-0.6-3.02-1.87c-0.19-0.4-0.28-0.88-0.29-1.33
		C2.68,15.16,2.68,9.61,2.69,4.07c0-1.85,1.38-3.19,3.26-3.2c1.61-0.01,3.22,0,4.83,0c1.16,0,2.32,0.01,3.48,0
		c1-0.01,1.83,0.34,2.54,1.05c1.34,1.36,2.69,2.71,4.05,4.05c0.7,0.69,1.03,1.51,1.03,2.49c-0.01,4.04,0,8.08,0,12.13
		c0,1.96-1.34,3.31-3.31,3.32C16.47,23.91,14.37,23.9,12.27,23.9z M3.97,12.36c0,2.74,0,5.47,0,8.21c0,1.28,0.78,2.05,2.05,2.06
		c4.18,0,8.35,0,12.53,0c0.22,0,0.45-0.02,0.67-0.08c0.85-0.24,1.37-0.95,1.37-1.88c0-3.51,0-7.02,0-10.53c0-0.64-0.01-1.28,0-1.92
		c0-0.23-0.08-0.31-0.32-0.31c-1.05,0.01-2.11,0.01-3.16,0c-1.34-0.01-2.27-0.93-2.28-2.28c0-0.96,0-1.93,0-2.89
		c0-0.58,0-0.58-0.58-0.58c-2.75,0-5.49,0-8.24,0c-1.28,0-2.05,0.77-2.05,2.05C3.97,6.92,3.97,9.64,3.97,12.36z M16.14,3.19
		c0,0.05-0.01,0.12-0.01,0.2c0,0.74,0,1.47,0,2.21c0,0.67,0.35,1.02,1.04,1.03c0.73,0,1.46,0,2.18,0c0.08,0,0.16-0.01,0.21-0.02
		C18.41,5.46,17.28,4.32,16.14,3.19z"/>
	<path class="st1" d="M3.97,12.36c0-2.72,0-5.44,0-8.16c0-1.28,0.77-2.05,2.05-2.05c2.75,0,5.49,0,8.24,0c0.58,0,0.58,0,0.58,0.58
		c0,0.96,0,1.93,0,2.89c0.01,1.35,0.93,2.28,2.28,2.28c1.05,0,2.11,0.01,3.16,0c0.24,0,0.32,0.08,0.32,0.31
		c-0.01,0.64,0,1.28,0,1.92c0,3.51,0,7.02,0,10.53c0,0.92-0.52,1.64-1.37,1.88c-0.21,0.06-0.44,0.08-0.67,0.08
		c-4.18,0-8.35,0-12.53,0c-1.28,0-2.05-0.78-2.05-2.06C3.97,17.83,3.97,15.09,3.97,12.36z M12.28,17.51c-1.38,0-2.75,0-4.13,0
		c-0.38,0-0.65,0.26-0.66,0.6c-0.02,0.35,0.23,0.63,0.6,0.67c0.1,0.01,0.2,0.01,0.3,0.01c1.92,0,3.83,0,5.75,0
		c0.72,0,1.44,0.01,2.16-0.01c0.19,0,0.39-0.06,0.55-0.16c0.22-0.13,0.28-0.44,0.2-0.67c-0.1-0.28-0.32-0.44-0.64-0.44
		C15.03,17.5,13.65,17.51,12.28,17.51z M12.31,13.66c-1.38,0-2.77,0-4.15,0c-0.39,0-0.67,0.27-0.67,0.63c0,0.36,0.27,0.63,0.66,0.65
		c0.07,0,0.14,0,0.22,0c2.62,0,5.23,0,7.85,0c0.11,0,0.22,0,0.32-0.01c0.36-0.06,0.61-0.4,0.54-0.74c-0.06-0.33-0.32-0.52-0.71-0.52
		C15.01,13.66,13.66,13.66,12.31,13.66z M12.29,11.1c0.81,0,1.62,0,2.43,0c0.58,0,1.15,0.01,1.73,0c0.37-0.01,0.63-0.29,0.63-0.64
		c0-0.34-0.26-0.6-0.61-0.63c-0.09-0.01-0.18,0-0.27,0c-1.89,0-3.78,0-5.66,0c-0.77,0-1.55,0-2.32,0c-0.26,0-0.48,0.07-0.62,0.3
		c-0.13,0.21-0.14,0.42-0.02,0.64c0.13,0.25,0.35,0.34,0.63,0.34C9.56,11.1,10.92,11.1,12.29,11.1z M10.02,7.26
		c0.62,0,1.24,0,1.86,0c0.43,0,0.72-0.26,0.72-0.63c0-0.36-0.28-0.64-0.69-0.65c-1.25-0.01-2.5-0.01-3.75,0
		c-0.41,0-0.68,0.29-0.68,0.65C7.49,7,7.77,7.26,8.19,7.26C8.8,7.26,9.41,7.26,10.02,7.26z"/>
	<path class="st5" d="M16.14,3.19c1.14,1.14,2.27,2.28,3.42,3.42c-0.05,0-0.13,0.02-0.21,0.02c-0.73,0-1.46,0-2.18,0
		c-0.68,0-1.03-0.35-1.04-1.03c0-0.74,0-1.47,0-2.21C16.12,3.31,16.14,3.23,16.14,3.19z"/>
	<path class="st12" d="M12.28,17.51c1.38,0,2.75,0,4.13,0c0.32,0,0.54,0.16,0.64,0.44c0.08,0.24,0.02,0.54-0.2,0.67
		c-0.16,0.1-0.37,0.16-0.55,0.16c-0.72,0.02-1.44,0.01-2.16,0.01c-1.92,0-3.83,0-5.75,0c-0.1,0-0.2,0-0.3-0.01
		c-0.37-0.05-0.62-0.32-0.6-0.67c0.02-0.35,0.29-0.6,0.66-0.6C9.53,17.5,10.9,17.51,12.28,17.51z"/>
	<path class="st12" d="M12.31,13.66c1.35,0,2.7,0,4.05,0c0.39,0,0.65,0.19,0.71,0.52c0.07,0.35-0.18,0.69-0.54,0.74
		c-0.11,0.02-0.22,0.01-0.32,0.01c-2.62,0-5.23,0-7.85,0c-0.07,0-0.14,0-0.22,0c-0.39-0.02-0.66-0.29-0.66-0.65
		c0-0.36,0.28-0.63,0.67-0.63C9.54,13.66,10.92,13.66,12.31,13.66z"/>
	<path class="st12" d="M12.29,11.1c-1.37,0-2.73,0-4.1,0c-0.28,0-0.49-0.1-0.63-0.34c-0.12-0.22-0.11-0.43,0.02-0.64
		c0.14-0.23,0.37-0.3,0.62-0.3c0.77,0,1.55,0,2.32,0c1.89,0,3.78,0,5.66,0c0.09,0,0.18,0,0.27,0c0.36,0.03,0.61,0.3,0.61,0.63
		c0,0.35-0.26,0.63-0.63,0.64c-0.58,0.01-1.15,0-1.73,0C13.91,11.1,13.1,11.1,12.29,11.1z"/>
	<path class="st12" d="M10.02,7.26c-0.61,0-1.22,0-1.83,0c-0.41,0-0.69-0.26-0.7-0.62C7.48,6.27,7.76,5.99,8.16,5.98
		c1.25-0.01,2.5-0.01,3.75,0c0.41,0,0.69,0.29,0.69,0.65c0,0.37-0.29,0.63-0.72,0.63C11.26,7.26,10.64,7.26,10.02,7.26z"/>
	<g>
		<g>
			<circle class="st11" cx="5.91" cy="4.15" r="3.65"/>
			<path class="st12" d="M5.91,8.29c-2.29,0-4.15-1.86-4.15-4.15C1.77,1.86,3.63,0,5.91,0s4.15,1.86,4.15,4.15
				C10.06,6.43,8.2,8.29,5.91,8.29z M5.91,1C4.18,1,2.77,2.41,2.77,4.15s1.41,3.14,3.14,3.14c1.73,0,3.14-1.41,3.14-3.14
				S7.65,1,5.91,1z"/>
		</g>
		<g>
			<path class="st5" d="M6.71,5.15l-0.15-0.4H5.27L5.12,5.16C5.06,5.32,5.01,5.42,4.96,5.48C4.92,5.53,4.85,5.56,4.76,5.56
				c-0.08,0-0.15-0.03-0.21-0.09c-0.06-0.06-0.09-0.13-0.09-0.2c0-0.04,0.01-0.09,0.02-0.13c0.01-0.05,0.04-0.11,0.07-0.19
				l0.81-2.06c0.02-0.06,0.05-0.13,0.08-0.21s0.07-0.15,0.1-0.21c0.04-0.05,0.09-0.1,0.14-0.13C5.75,2.3,5.82,2.28,5.91,2.28
				C6,2.28,6.07,2.3,6.13,2.33c0.06,0.03,0.11,0.08,0.14,0.13c0.04,0.05,0.07,0.11,0.09,0.17C6.4,2.7,6.43,2.78,6.47,2.88L7.3,4.93
				c0.06,0.16,0.1,0.27,0.1,0.34c0,0.07-0.03,0.14-0.09,0.2C7.24,5.53,7.17,5.56,7.08,5.56c-0.05,0-0.09-0.01-0.13-0.03
				C6.91,5.52,6.88,5.49,6.86,5.46C6.84,5.43,6.81,5.38,6.78,5.32S6.73,5.2,6.71,5.15z M5.44,4.27h0.95L5.91,2.96L5.44,4.27z"/>
		</g>
	</g>
	<g>
		<g>
			<circle class="st10" cx="19.09" cy="20.85" r="3.65"/>
			<path class="st12" d="M19.09,25c-2.29,0-4.15-1.86-4.15-4.15c0-2.29,1.86-4.15,4.15-4.15s4.15,1.86,4.15,4.15
				C23.23,23.14,21.37,25,19.09,25z M19.09,17.71c-1.73,0-3.14,1.41-3.14,3.14S17.35,24,19.09,24s3.14-1.41,3.14-3.14
				S20.82,17.71,19.09,17.71z"/>
		</g>
		<g>
			<path class="st5" d="M18,21.54l1.63-1.95h-1.4c-0.1,0-0.17-0.02-0.22-0.06s-0.07-0.1-0.07-0.17c0-0.07,0.02-0.13,0.07-0.18
				c0.05-0.05,0.12-0.07,0.22-0.07h1.8c0.23,0,0.35,0.11,0.35,0.33c0,0.1-0.02,0.19-0.06,0.25c-0.04,0.06-0.12,0.16-0.24,0.3
				l-1.52,1.81h1.68c0.1,0,0.17,0.02,0.22,0.06c0.05,0.04,0.07,0.1,0.07,0.17c0,0.08-0.02,0.14-0.07,0.18s-0.12,0.07-0.22,0.07
				h-2.06c-0.14,0-0.25-0.03-0.32-0.09c-0.07-0.06-0.11-0.15-0.11-0.25c0-0.04,0.01-0.07,0.02-0.1c0.01-0.03,0.03-0.06,0.05-0.09
				c0.02-0.03,0.05-0.06,0.08-0.1C17.94,21.61,17.97,21.57,18,21.54z"/>
		</g>
	</g>
</g>
</svg>
