<?xml version="1.0" encoding="utf-8"?>
<!-- Generator: Adobe Illustrator 24.0.1, SVG Export Plug-In . SVG Version: 6.00 Build 0)  -->
<svg version="1.1" id="Layer_1" xmlns="http://www.w3.org/2000/svg" xmlns:xlink="http://www.w3.org/1999/xlink" x="0px" y="0px"
	 viewBox="0 0 25 25" style="enable-background:new 0 0 25 25;" xml:space="preserve">
<style type="text/css">
	.st0{fill:#C7E0D1;}
	.st1{fill:#E6F1EA;}
	.st2{fill:#FAAF40;}
	.st3{fill:#E9DD7F;}
	.st4{fill:#03675F;}
	.st5{fill:#FFFFFF;}
	.st6{fill:none;}
	.st7{fill:none;stroke:#231F20;stroke-width:2;stroke-linecap:round;stroke-miterlimit:10;}
	.st8{fill:none;stroke:#03675F;stroke-width:2;stroke-linecap:round;stroke-linejoin:round;stroke-miterlimit:10;}
	.st9{fill:#6AB98B;}
	.st10{fill:#73C7E2;}
	.st11{fill:#29B473;}
	.st12{fill:#005E99;}
	.st13{fill:#ADDCF6;}
	.st14{fill:#EF535F;}
	.st15{fill:#006892;}
	.st16{fill:#97D2B2;}
	.st17{fill:#F7AEAB;}
</style>
<g>
	<path class="st12" d="M15.11,7.99c1.22-0.38,2.46-0.44,3.7-0.18c4.64,0.94,7.21,5.99,5.26,10.29c-0.06,0.13-0.07,0.31-0.03,0.45
		c0.29,1.01,0.6,2.02,0.9,3.03c0.08,0.26,0.1,0.52-0.12,0.73c-0.21,0.2-0.45,0.17-0.7,0.09c-0.94-0.29-1.88-0.58-2.83-0.84
		c-0.15-0.04-0.36-0.02-0.5,0.05c-1.45,0.75-2.99,1.04-4.59,0.77c-2.81-0.49-4.74-2.11-5.81-4.75c-0.09-0.22-0.15-0.45-0.23-0.69
		c-0.08,0.02-0.13,0.02-0.19,0.04c-2.02,0.62-3.97,0.45-5.84-0.54c-0.11-0.06-0.27-0.05-0.4-0.02c-0.96,0.27-1.91,0.56-2.86,0.85
		c-0.25,0.08-0.5,0.12-0.7-0.09c-0.21-0.21-0.2-0.46-0.12-0.73c0.31-1.01,0.61-2.02,0.9-3.03c0.04-0.12,0.04-0.28-0.01-0.4
		c-0.68-1.5-0.84-3.04-0.5-4.65C1.3,4.3,5.43,1.71,9.45,2.75c2.56,0.66,4.26,2.29,5.2,4.73c0.07,0.19,0.12,0.38,0.18,0.58
		C14.94,8.03,15.03,8.01,15.11,7.99z M23.06,19.28c-0.25-0.66-0.21-1.25,0.07-1.93c1.4-3.39-0.51-7.25-4.04-8.3
		c-2.87-0.85-5.97,0.49-7.32,3.16c-1.38,2.73-0.63,6,1.78,7.82c2.07,1.56,4.71,1.72,6.94,0.42c0.29-0.17,0.55-0.19,0.86-0.09
		c0.67,0.22,1.35,0.41,2.02,0.61c0.05,0.02,0.11,0.02,0.21,0.05C23.4,20.41,23.27,19.83,23.06,19.28z M3.67,15.23
		c0.31-0.1,0.56-0.07,0.85,0.1c1.64,0.95,3.36,1.12,5.16,0.51c0.21-0.07,0.26-0.16,0.26-0.39c-0.06-2.91,1.16-5.16,3.59-6.74
		c0.19-0.12,0.23-0.23,0.17-0.44c-0.73-2.75-3.39-4.7-6.24-4.61C3,3.81,0.09,8.55,2.02,12.59c0.17,0.36,0.21,0.69,0.08,1.07
		c-0.24,0.72-0.45,1.45-0.69,2.26C2.21,15.68,2.95,15.47,3.67,15.23z"/>
	<path class="st11" d="M23.37,20.97c-0.67-0.2-1.35-0.39-2.02-0.61c-0.31-0.1-0.57-0.07-0.86,0.09c-2.23,1.3-4.87,1.14-6.94-0.42
		c-2.42-1.82-3.16-5.09-1.78-7.82c1.35-2.67,4.45-4.01,7.32-3.16c3.54,1.05,5.44,4.91,4.04,8.3c-0.28,0.68-0.32,1.26-0.07,1.93
		c0.2,0.55,0.34,1.12,0.52,1.73C23.48,20.99,23.42,20.98,23.37,20.97z"/>
	<path class="st10" d="M1.41,15.92c0.8-0.24,1.54-0.45,2.26-0.68c0.31-0.1,0.56-0.07,0.85,0.1c1.64,0.95,3.36,1.12,5.16,0.51
		c0.21-0.07,0.26-0.16,0.26-0.39c-0.06-2.91,1.16-5.16,3.59-6.74c0.19-0.12,0.23-0.23,0.17-0.44c-0.73-2.75-3.39-4.7-6.24-4.61
		C3,3.81,0.09,8.55,2.02,12.59c0.17,0.36,0.21,0.69,0.08,1.07C1.86,14.38,1.65,15.11,1.41,15.92z"/>
	<g>
		<path class="st12" d="M7.15,9.9c0,0.31,0.26,0.58,0.57,0.58c0.32,0,0.57-0.26,0.56-0.58c0-0.3-0.25-0.55-0.55-0.56
			C7.42,9.32,7.15,9.58,7.15,9.9z"/>
		<path class="st12" d="M9.99,9.89c-0.01,0.3,0.26,0.58,0.57,0.58c0.31,0,0.55-0.24,0.56-0.55c0.01-0.32-0.23-0.58-0.55-0.59
			C10.27,9.32,10,9.58,9.99,9.89z"/>
		<path class="st12" d="M5.45,9.85C5.42,9.55,5.14,9.31,4.82,9.33c-0.3,0.02-0.53,0.29-0.52,0.6c0.02,0.32,0.29,0.56,0.61,0.54
			C5.23,10.45,5.47,10.17,5.45,9.85z"/>
	</g>
	<g>
		<path class="st1" d="M14.95,15.43l-0.12-1.74c-0.02-0.34-0.03-0.58-0.03-0.73c0-0.2,0.05-0.36,0.16-0.47
			c0.11-0.11,0.24-0.17,0.42-0.17c0.21,0,0.35,0.07,0.42,0.22c0.07,0.14,0.11,0.35,0.11,0.62c0,0.16-0.01,0.32-0.03,0.49l-0.16,1.79
			c-0.02,0.21-0.05,0.38-0.11,0.49c-0.06,0.11-0.15,0.17-0.28,0.17c-0.13,0-0.22-0.06-0.27-0.17
			C15.01,15.82,14.97,15.65,14.95,15.43z M15.36,17.82c-0.15,0-0.28-0.05-0.39-0.14c-0.11-0.1-0.17-0.23-0.17-0.4
			c0-0.15,0.05-0.28,0.16-0.38c0.11-0.11,0.23-0.16,0.39-0.16c0.15,0,0.28,0.05,0.39,0.16c0.11,0.11,0.16,0.23,0.16,0.38
			c0,0.17-0.05,0.3-0.16,0.4C15.63,17.77,15.5,17.82,15.36,17.82z"/>
		<path class="st1" d="M16.92,13.84c0-0.23,0.07-0.46,0.22-0.7c0.15-0.24,0.36-0.43,0.65-0.59c0.28-0.15,0.61-0.23,0.99-0.23
			c0.35,0,0.66,0.06,0.93,0.19c0.27,0.13,0.48,0.31,0.62,0.53c0.15,0.22,0.22,0.47,0.22,0.73c0,0.21-0.04,0.39-0.13,0.54
			c-0.08,0.15-0.18,0.29-0.3,0.4c-0.12,0.11-0.32,0.3-0.62,0.57c-0.08,0.08-0.15,0.14-0.2,0.2c-0.05,0.06-0.09,0.11-0.11,0.16
			c-0.02,0.05-0.04,0.09-0.06,0.14c-0.01,0.05-0.03,0.13-0.06,0.25c-0.05,0.25-0.19,0.38-0.43,0.38c-0.13,0-0.23-0.04-0.32-0.12
			c-0.09-0.08-0.13-0.21-0.13-0.37c0-0.2,0.03-0.38,0.09-0.53c0.06-0.15,0.15-0.28,0.25-0.39s0.24-0.25,0.42-0.4
			c0.16-0.14,0.27-0.24,0.34-0.31c0.07-0.07,0.13-0.15,0.17-0.23c0.05-0.08,0.07-0.18,0.07-0.28c0-0.19-0.07-0.36-0.22-0.49
			c-0.14-0.13-0.33-0.2-0.56-0.2c-0.27,0-0.46,0.07-0.59,0.2c-0.13,0.13-0.23,0.33-0.32,0.59c-0.08,0.27-0.24,0.41-0.47,0.41
			c-0.14,0-0.25-0.05-0.34-0.14C16.97,14.05,16.92,13.95,16.92,13.84z M18.69,17.82c-0.15,0-0.28-0.05-0.39-0.14
			c-0.11-0.1-0.17-0.23-0.17-0.4c0-0.15,0.05-0.28,0.16-0.39c0.11-0.1,0.24-0.16,0.39-0.16c0.15,0,0.28,0.05,0.39,0.16
			c0.1,0.1,0.16,0.23,0.16,0.39c0,0.17-0.05,0.3-0.16,0.4C18.96,17.77,18.84,17.82,18.69,17.82z"/>
	</g>
</g>
</svg>
