<?xml version="1.0" encoding="utf-8"?>
<!-- Generator: Adobe Illustrator 24.0.1, SVG Export Plug-In . SVG Version: 6.00 Build 0)  -->
<svg version="1.1" id="Layer_1" xmlns="http://www.w3.org/2000/svg" xmlns:xlink="http://www.w3.org/1999/xlink" x="0px" y="0px"
	 viewBox="0 0 25 25" style="enable-background:new 0 0 25 25;" xml:space="preserve">
<style type="text/css">
	.st0{fill:#C7E0D1;}
	.st1{fill:#E6F1EA;}
	.st2{fill:#FAAF40;}
	.st3{fill:#E9DD7F;}
	.st4{fill:#03675F;}
	.st5{fill:#FFFFFF;}
	.st6{fill:none;}
	.st7{fill:none;stroke:#231F20;stroke-width:2;stroke-linecap:round;stroke-miterlimit:10;}
	.st8{fill:none;stroke:#03675F;stroke-width:2;stroke-linecap:round;stroke-linejoin:round;stroke-miterlimit:10;}
	.st9{fill:#6AB98B;}
	.st10{fill:#73C7E2;}
	.st11{fill:#29B473;}
	.st12{fill:#005E99;}
	.st13{fill:#ADDCF6;}
	.st14{fill:#EF535F;}
	.st15{fill:#006892;}
	.st16{fill:#97D2B2;}
	.st17{fill:#F7AEAB;}
</style>
<g>
	<path class="st12" d="M24.48,9.67c0,0.28-0.15,0.47-0.42,0.53c-0.22,0.05-0.44,0.1-0.66,0.13c-0.14,0.02-0.2,0.09-0.22,0.23
		c-0.06,0.36-0.15,0.72-0.21,1.08c-0.01,0.07,0.03,0.17,0.08,0.21c0.16,0.13,0.35,0.24,0.52,0.36c0.33,0.22,0.4,0.5,0.18,0.83
		c-0.4,0.59-0.8,1.19-1.21,1.77c-0.23,0.34-0.49,0.38-0.83,0.16c-0.18-0.12-0.36-0.25-0.55-0.36c-0.06-0.03-0.17-0.03-0.23,0.01
		c-0.32,0.2-0.64,0.4-0.94,0.62c-0.06,0.04-0.11,0.15-0.1,0.22c0.02,0.24,0.08,0.47,0.12,0.71c0.05,0.3-0.09,0.53-0.38,0.59
		c-0.77,0.16-1.53,0.3-2.3,0.44c-0.27,0.05-0.49-0.12-0.56-0.4c-0.06-0.23-0.09-0.47-0.15-0.71c-0.02-0.07-0.1-0.16-0.17-0.18
		c-0.37-0.09-0.75-0.17-1.12-0.23c-0.07-0.01-0.17,0.04-0.21,0.1c-0.14,0.18-0.26,0.38-0.4,0.57c-0.22,0.29-0.46,0.33-0.76,0.13
		c-0.61-0.41-1.22-0.83-1.82-1.25c-0.29-0.2-0.34-0.47-0.15-0.76c0.13-0.2,0.27-0.38,0.38-0.58c0.03-0.06,0.03-0.17,0-0.23
		c-0.2-0.32-0.4-0.63-0.62-0.94c-0.04-0.06-0.15-0.12-0.23-0.11c-0.23,0.03-0.46,0.08-0.69,0.13c-0.3,0.06-0.56-0.08-0.62-0.38
		c-0.16-0.76-0.31-1.53-0.44-2.3C9.7,9.76,9.87,9.54,10.16,9.47c0.23-0.05,0.48-0.08,0.71-0.14c0.07-0.02,0.15-0.11,0.17-0.18
		c0.09-0.36,0.14-0.72,0.23-1.08c0.03-0.12,0.02-0.19-0.09-0.26c-0.2-0.13-0.39-0.26-0.58-0.4c-0.26-0.19-0.32-0.46-0.14-0.73
		c0.42-0.63,0.85-1.26,1.28-1.88c0.18-0.26,0.47-0.3,0.74-0.12c0.2,0.13,0.39,0.28,0.6,0.4c0.05,0.03,0.16,0.03,0.21-0.01
		c0.32-0.2,0.63-0.42,0.94-0.61c0.12-0.07,0.14-0.15,0.11-0.28c-0.05-0.2-0.08-0.4-0.12-0.6c-0.07-0.4,0.1-0.63,0.5-0.71
		c0.69-0.13,1.37-0.26,2.06-0.39c0.4-0.08,0.63,0.08,0.71,0.48c0.04,0.2,0.08,0.4,0.11,0.6c0.02,0.12,0.07,0.18,0.2,0.2
		c0.37,0.07,0.73,0.16,1.1,0.23c0.07,0.01,0.18-0.03,0.22-0.08c0.14-0.18,0.26-0.39,0.4-0.57C19.73,3.05,19.99,3,20.29,3.2
		c0.6,0.4,1.2,0.8,1.8,1.21c0.35,0.24,0.39,0.51,0.16,0.85c-0.14,0.21-0.38,0.41-0.39,0.62c0,0.2,0.24,0.4,0.37,0.61
		c0.1,0.15,0.19,0.31,0.27,0.47c0.06,0.11,0.13,0.15,0.25,0.12c0.19-0.05,0.38-0.08,0.57-0.12c0.43-0.08,0.66,0.07,0.75,0.5
		c0.13,0.67,0.26,1.34,0.39,2.01C24.47,9.54,24.48,9.62,24.48,9.67z M15.32,3.81c0.04,0.23,0.08,0.42,0.12,0.62
		c0.08,0.41,0.01,0.56-0.36,0.74c-0.53,0.25-1.02,0.58-1.46,0.97c-0.25,0.22-0.46,0.23-0.73,0.04c-0.19-0.13-0.38-0.26-0.58-0.4
		c-0.24,0.36-0.47,0.69-0.69,1.02c0.02,0.03,0.02,0.05,0.03,0.05c0.17,0.12,0.35,0.24,0.52,0.37c0.31,0.22,0.37,0.4,0.23,0.76
		c-0.2,0.54-0.32,1.1-0.34,1.67c-0.01,0.36-0.16,0.52-0.53,0.6c-0.21,0.04-0.42,0.08-0.66,0.13c0.08,0.42,0.16,0.83,0.24,1.24
		c0.14-0.03,0.25-0.05,0.35-0.07c0.12-0.02,0.24-0.05,0.36-0.06c0.33-0.05,0.52,0.06,0.65,0.36c0.23,0.55,0.56,1.03,0.96,1.46
		c0.24,0.26,0.25,0.46,0.06,0.75c-0.12,0.19-0.25,0.37-0.39,0.57c0.36,0.25,0.7,0.48,1.05,0.72c0.15-0.22,0.27-0.4,0.4-0.59
		c0.18-0.25,0.36-0.34,0.64-0.24c0.61,0.22,1.22,0.35,1.87,0.39c0.3,0.02,0.42,0.15,0.49,0.44c0.05,0.23,0.09,0.47,0.14,0.72
		c0.39-0.07,0.77-0.14,1.14-0.22c0.04-0.01,0.09-0.11,0.08-0.16c-0.03-0.21-0.08-0.41-0.11-0.62c-0.04-0.25,0.07-0.46,0.29-0.55
		c0.58-0.25,1.09-0.59,1.56-1.01c0.23-0.21,0.46-0.22,0.72-0.04c0.19,0.13,0.38,0.26,0.59,0.4c0.24-0.36,0.47-0.7,0.71-1.05
		c-0.12-0.08-0.22-0.15-0.32-0.22c-0.1-0.07-0.21-0.14-0.31-0.22c-0.22-0.16-0.29-0.37-0.19-0.62c0.24-0.59,0.35-1.2,0.38-1.82
		c0.02-0.32,0.17-0.46,0.49-0.53c0.23-0.05,0.45-0.09,0.69-0.14c-0.04-0.22-0.08-0.42-0.12-0.62c-0.04-0.2-0.08-0.39-0.12-0.61
		c-0.24,0.04-0.47,0.09-0.7,0.12c-0.32,0.05-0.51-0.03-0.64-0.33c-0.25-0.56-0.58-1.05-0.99-1.5c-0.23-0.26-0.23-0.47-0.04-0.76
		c0.12-0.19,0.25-0.37,0.39-0.57c-0.36-0.25-0.7-0.47-1.05-0.71c-0.14,0.2-0.26,0.37-0.38,0.54c-0.22,0.31-0.4,0.36-0.78,0.26
		c-0.51-0.13-1.03-0.26-1.56-0.34c-0.56-0.09-0.64-0.14-0.74-0.72c-0.03-0.16-0.06-0.31-0.1-0.48C16.12,3.65,15.73,3.73,15.32,3.81z
		"/>
	<path class="st12" d="M4.09,21.84c0.02-0.13,0.04-0.3,0.07-0.46c0.02-0.12,0-0.19-0.12-0.25C3.82,21,3.61,20.86,3.38,20.74
		c-0.07-0.03-0.18-0.03-0.25,0.01c-0.14,0.08-0.26,0.2-0.4,0.29c-0.22,0.14-0.4,0.12-0.55-0.08c-0.34-0.44-0.67-0.89-1-1.33
		c-0.16-0.22-0.14-0.48,0.1-0.6c0.43-0.22,0.52-0.51,0.31-0.93c-0.07-0.14-0.03-0.37-0.13-0.46c-0.1-0.09-0.31-0.07-0.48-0.1
		c-0.42-0.07-0.5-0.17-0.45-0.59c0.06-0.51,0.14-1.03,0.22-1.54c0.04-0.27,0.22-0.43,0.48-0.35c0.46,0.14,0.71-0.01,0.91-0.44
		c0.21-0.44,0.25-0.42-0.04-0.81c-0.26-0.34-0.24-0.49,0.1-0.75c0.4-0.3,0.79-0.6,1.19-0.9c0.28-0.21,0.49-0.2,0.66,0.1
		c0.22,0.36,0.45,0.45,0.87,0.31c0.51-0.18,0.53-0.13,0.61-0.67c0.05-0.35,0.21-0.47,0.55-0.42c0.5,0.07,1,0.14,1.5,0.22
		c0.37,0.06,0.47,0.2,0.42,0.57c-0.08,0.5-0.08,0.5,0.37,0.76c0.06,0.04,0.13,0.08,0.19,0.12c0.31,0.19,0.31,0.19,0.6-0.03
		c0.07-0.05,0.14-0.11,0.22-0.16c0.18-0.12,0.39-0.11,0.51,0.05c0.37,0.48,0.74,0.97,1.09,1.46c0.12,0.17,0.06,0.35-0.1,0.48
		c-0.13,0.11-0.28,0.2-0.41,0.32c-0.05,0.05-0.09,0.15-0.07,0.22c0.05,0.25,0.13,0.49,0.18,0.74c0.03,0.13,0.08,0.18,0.21,0.19
		c0.15,0.01,0.3,0.03,0.45,0.06c0.27,0.05,0.4,0.23,0.36,0.5c-0.07,0.52-0.15,1.04-0.22,1.56c-0.05,0.34-0.2,0.45-0.54,0.4
		c-0.18-0.03-0.38-0.11-0.53-0.05c-0.13,0.05-0.16,0.29-0.28,0.41c-0.31,0.34-0.29,0.62,0.03,0.95c0.22,0.22,0.16,0.46-0.09,0.65
		c-0.43,0.32-0.86,0.64-1.29,0.95c-0.24,0.17-0.42,0.14-0.6-0.1c-0.12-0.15-0.21-0.38-0.37-0.44c-0.15-0.05-0.37,0.07-0.55,0.12
		c-0.49,0.13-0.49,0.13-0.57,0.64c-0.05,0.37-0.2,0.48-0.56,0.42c-0.52-0.08-1.04-0.14-1.56-0.22C4.21,22.27,4.08,22.11,4.09,21.84z
		 M2,19.44c0.2,0.26,0.38,0.51,0.57,0.76c0.16-0.12,0.31-0.23,0.46-0.33c0.16-0.11,0.32-0.14,0.48-0.01
		c0.37,0.32,0.78,0.56,1.23,0.74c0.22,0.09,0.29,0.26,0.25,0.5c-0.03,0.15-0.04,0.31-0.06,0.48c0.16,0.03,0.31,0.06,0.46,0.08
		c0.47,0.07,0.47,0.07,0.55-0.4c0.01-0.03,0.01-0.06,0.01-0.09c0.03-0.21,0.15-0.31,0.35-0.35c0.45-0.1,0.9-0.22,1.35-0.35
		c0.22-0.06,0.38-0.03,0.52,0.15c0.11,0.14,0.22,0.28,0.33,0.43c0.26-0.2,0.5-0.38,0.75-0.57c-0.11-0.15-0.2-0.28-0.3-0.41
		c-0.16-0.23-0.15-0.36,0.01-0.59c0.23-0.35,0.45-0.71,0.64-1.08c0.16-0.3,0.26-0.38,0.6-0.32c0.14,0.02,0.28,0.04,0.43,0.07
		c0.05-0.33,0.09-0.62,0.13-0.93c-0.17-0.03-0.31-0.05-0.46-0.08c-0.32-0.05-0.4-0.15-0.47-0.46c-0.09-0.42-0.2-0.84-0.33-1.26
		c-0.07-0.22-0.03-0.38,0.14-0.52c0.14-0.11,0.28-0.22,0.44-0.34c-0.2-0.26-0.38-0.51-0.57-0.76c-0.15,0.11-0.27,0.2-0.39,0.29
		c-0.24,0.18-0.36,0.17-0.61,0.01c-0.36-0.24-0.74-0.46-1.12-0.67c-0.21-0.12-0.32-0.26-0.29-0.5c0.02-0.17,0.04-0.34,0.06-0.51
		c-0.14-0.02-0.25-0.04-0.36-0.06c-0.18-0.02-0.41-0.11-0.52-0.04c-0.11,0.07-0.09,0.32-0.13,0.5c-0.01,0.03,0,0.07-0.02,0.09
		c-0.1,0.09-0.19,0.22-0.31,0.26c-0.46,0.14-0.93,0.24-1.39,0.36c-0.21,0.06-0.38,0.02-0.52-0.16c-0.1-0.14-0.21-0.27-0.32-0.42
		c-0.26,0.2-0.5,0.38-0.76,0.57c0.12,0.16,0.23,0.3,0.33,0.44c0.13,0.18,0.12,0.35-0.01,0.54c-0.25,0.38-0.48,0.77-0.7,1.18
		c-0.11,0.2-0.24,0.3-0.47,0.26c-0.17-0.02-0.34-0.04-0.54-0.07c-0.05,0.32-0.09,0.62-0.13,0.9c0.04,0.03,0.04,0.03,0.05,0.03
		c0.16,0.03,0.31,0.05,0.47,0.07c0.24,0.04,0.34,0.16,0.4,0.4c0.1,0.43,0.2,0.86,0.32,1.28c0.08,0.27,0.06,0.4-0.16,0.57
		C2.28,19.23,2.15,19.33,2,19.44z"/>
	<path class="st16" d="M15.32,3.81c0.41-0.08,0.81-0.16,1.24-0.25c0.03,0.17,0.07,0.32,0.1,0.48c0.1,0.58,0.18,0.63,0.74,0.72
		c0.52,0.09,1.04,0.21,1.56,0.34c0.37,0.1,0.56,0.05,0.78-0.26c0.12-0.17,0.24-0.34,0.38-0.54c0.35,0.24,0.69,0.47,1.05,0.71
		c-0.14,0.2-0.26,0.38-0.39,0.57c-0.19,0.29-0.19,0.5,0.04,0.76c0.4,0.45,0.74,0.95,0.99,1.5c0.13,0.29,0.32,0.38,0.64,0.33
		c0.23-0.04,0.45-0.08,0.7-0.12c0.04,0.22,0.09,0.42,0.12,0.61c0.04,0.2,0.08,0.4,0.12,0.62c-0.24,0.05-0.46,0.09-0.69,0.14
		c-0.32,0.07-0.47,0.21-0.49,0.53c-0.04,0.63-0.15,1.24-0.38,1.82c-0.1,0.25-0.02,0.45,0.19,0.62c0.1,0.08,0.21,0.15,0.31,0.22
		c0.1,0.07,0.2,0.14,0.32,0.22c-0.24,0.35-0.47,0.69-0.71,1.05c-0.21-0.14-0.4-0.27-0.59-0.4c-0.26-0.17-0.49-0.17-0.72,0.04
		c-0.47,0.42-0.98,0.77-1.56,1.01c-0.23,0.1-0.33,0.31-0.29,0.55c0.03,0.21,0.09,0.41,0.11,0.62c0.01,0.05-0.04,0.15-0.08,0.16
		c-0.37,0.08-0.75,0.15-1.14,0.22c-0.05-0.25-0.09-0.49-0.14-0.72c-0.07-0.29-0.19-0.43-0.49-0.44c-0.64-0.03-1.26-0.17-1.87-0.39
		c-0.28-0.1-0.46-0.01-0.64,0.24c-0.13,0.18-0.25,0.37-0.4,0.59c-0.35-0.24-0.69-0.48-1.05-0.72c0.14-0.2,0.27-0.39,0.39-0.57
		c0.19-0.29,0.18-0.49-0.06-0.75c-0.4-0.44-0.73-0.92-0.96-1.46c-0.13-0.3-0.32-0.4-0.65-0.36c-0.12,0.02-0.24,0.04-0.36,0.06
		c-0.11,0.02-0.22,0.04-0.35,0.07c-0.08-0.42-0.16-0.82-0.24-1.24c0.24-0.05,0.45-0.09,0.66-0.13c0.36-0.07,0.51-0.23,0.53-0.6
		c0.02-0.58,0.14-1.13,0.34-1.67c0.14-0.36,0.08-0.53-0.23-0.76c-0.17-0.12-0.34-0.24-0.52-0.37c-0.01-0.01-0.01-0.03-0.03-0.05
		c0.22-0.33,0.45-0.66,0.69-1.02c0.2,0.14,0.39,0.27,0.58,0.4c0.28,0.19,0.49,0.18,0.73-0.04c0.44-0.4,0.92-0.72,1.46-0.97
		c0.37-0.18,0.44-0.33,0.36-0.74C15.39,4.24,15.36,4.04,15.32,3.81z M20.78,9.86c0.02-2.03-1.6-3.68-3.64-3.69
		c-2-0.02-3.67,1.6-3.69,3.58c-0.02,2.08,1.58,3.74,3.65,3.77C19.1,13.54,20.76,11.89,20.78,9.86z"/>
	<path class="st10" d="M2,19.44c0.14-0.11,0.27-0.21,0.4-0.31c0.22-0.18,0.24-0.3,0.16-0.57c-0.12-0.42-0.23-0.85-0.32-1.28
		c-0.05-0.23-0.15-0.36-0.4-0.4c-0.16-0.03-0.31-0.05-0.47-0.07c-0.01,0-0.01-0.01-0.05-0.03c0.04-0.28,0.08-0.58,0.13-0.9
		c0.2,0.02,0.37,0.04,0.54,0.07c0.23,0.03,0.36-0.06,0.47-0.26c0.22-0.4,0.45-0.79,0.7-1.18c0.12-0.19,0.14-0.36,0.01-0.54
		c-0.1-0.14-0.21-0.28-0.33-0.44c0.25-0.19,0.5-0.37,0.76-0.57c0.11,0.15,0.22,0.28,0.32,0.42c0.13,0.19,0.3,0.22,0.52,0.16
		c0.46-0.12,0.93-0.23,1.39-0.36c0.12-0.04,0.21-0.17,0.31-0.26c0.02-0.02,0.02-0.06,0.02-0.09c0.04-0.17,0.02-0.42,0.13-0.5
		c0.11-0.08,0.34,0.01,0.52,0.04c0.11,0.01,0.22,0.03,0.36,0.06c-0.02,0.17-0.03,0.34-0.06,0.51c-0.04,0.25,0.08,0.39,0.29,0.5
		c0.38,0.21,0.75,0.43,1.12,0.67c0.25,0.16,0.37,0.17,0.61-0.01c0.12-0.09,0.24-0.18,0.39-0.29c0.19,0.25,0.38,0.5,0.57,0.76
		c-0.16,0.12-0.3,0.23-0.44,0.34c-0.17,0.14-0.21,0.3-0.14,0.52c0.13,0.41,0.24,0.83,0.33,1.26c0.07,0.31,0.14,0.4,0.47,0.46
		c0.15,0.02,0.29,0.05,0.46,0.08c-0.04,0.31-0.09,0.61-0.13,0.93c-0.16-0.02-0.3-0.04-0.43-0.07c-0.34-0.05-0.45,0.02-0.6,0.32
		c-0.2,0.37-0.41,0.73-0.64,1.08c-0.15,0.24-0.17,0.37-0.01,0.59c0.09,0.13,0.18,0.25,0.3,0.41C9,20.66,8.75,20.85,8.49,21.05
		c-0.12-0.15-0.22-0.29-0.33-0.43c-0.14-0.18-0.3-0.21-0.52-0.15c-0.45,0.13-0.9,0.24-1.35,0.35c-0.2,0.05-0.32,0.15-0.35,0.35
		c0,0.03-0.01,0.06-0.01,0.09c-0.08,0.47-0.08,0.47-0.55,0.4c-0.15-0.02-0.29-0.05-0.46-0.08c0.02-0.17,0.03-0.33,0.06-0.48
		c0.05-0.23-0.03-0.41-0.25-0.5c-0.45-0.18-0.86-0.43-1.23-0.74c-0.15-0.13-0.32-0.1-0.48,0.01c-0.15,0.1-0.29,0.21-0.46,0.33
		C2.38,19.95,2.2,19.7,2,19.44z M8.8,17.01c0.05-1.31-1-2.77-2.74-2.77c-1.61,0-2.77,1.27-2.77,2.74c-0.01,1.54,1.25,2.79,2.78,2.78
		C7.59,19.75,8.8,18.53,8.8,17.01z"/>
	<path class="st12" d="M20.78,9.86c-0.02,2.04-1.68,3.68-3.69,3.66c-2.07-0.03-3.67-1.68-3.65-3.77c0.02-1.98,1.69-3.6,3.69-3.58
		C19.18,6.18,20.8,7.82,20.78,9.86z M14.47,9.82c-0.01,1.48,1.16,2.65,2.64,2.67c1.41,0.02,2.65-1.19,2.66-2.59
		c0.01-1.51-1.15-2.71-2.64-2.72C15.68,7.17,14.47,8.37,14.47,9.82z"/>
	<path class="st12" d="M8.8,17.01c0,1.52-1.21,2.74-2.73,2.75c-1.53,0.01-2.79-1.24-2.78-2.78c0.01-1.47,1.16-2.74,2.77-2.74
		C7.8,14.24,8.85,15.7,8.8,17.01z M4.06,16.97c0,1.06,0.8,1.99,1.95,2.02c1.14,0.03,2.02-0.86,2.03-2c0-1.1-0.86-1.97-1.97-1.98
		C4.98,15,4.07,15.89,4.06,16.97z"/>
</g>
</svg>
