<?xml version="1.0" encoding="utf-8"?>
<!-- Generator: Adobe Illustrator 24.0.1, SVG Export Plug-In . SVG Version: 6.00 Build 0)  -->
<svg version="1.1" id="Layer_1" xmlns="http://www.w3.org/2000/svg" xmlns:xlink="http://www.w3.org/1999/xlink" x="0px" y="0px"
	 viewBox="0 0 25 25" style="enable-background:new 0 0 25 25;" xml:space="preserve">
<style type="text/css">
	.st0{fill:#C7E0D1;}
	.st1{fill:#E6F1EA;}
	.st2{fill:#FAAF40;}
	.st3{fill:#E9DD7F;}
	.st4{fill:#03675F;}
	.st5{fill:#FFFFFF;}
	.st6{fill:none;}
	.st7{fill:none;stroke:#231F20;stroke-width:2;stroke-linecap:round;stroke-miterlimit:10;}
	.st8{fill:none;stroke:#03675F;stroke-width:2;stroke-linecap:round;stroke-linejoin:round;stroke-miterlimit:10;}
	.st9{fill:#6AB98B;}
	.st10{fill:#73C7E2;}
	.st11{fill:#29B473;}
	.st12{fill:#005E99;}
	.st13{fill:#ADDCF6;}
	.st14{fill:#EF535F;}
	.st15{fill:#006892;}
	.st16{fill:#97D2B2;}
	.st17{fill:#F7AEAB;}
</style>
<g>
	<path class="st12" d="M2.42,14.83c0-0.18,0-0.34,0-0.5c0-0.93,0-1.86,0-2.79c0-0.49,0.31-0.75,0.8-0.65
		c0.72,0.14,1.43,0.28,2.15,0.44c0.17,0.04,0.27,0,0.4-0.12c0.47-0.4,0.97-0.78,1.46-1.16c0.09-0.07,0.2-0.12,0.26-0.16
		C7.22,9.63,6.9,9.4,6.7,9.09C6.06,8.12,6.42,6.88,7.46,6.36C7.65,6.27,7.7,6.15,7.7,5.96c0-0.75-0.06-1.5,0.16-2.23
		c0.53-1.73,1.6-2.95,3.37-3.42c2.06-0.55,4.18,0.51,5.15,2.49c0.37,0.75,0.52,1.53,0.54,2.36c0,0.17,0.02,0.35,0,0.51
		c-0.04,0.37,0.07,0.6,0.42,0.81c1.19,0.72,1.17,2.44,0,3.2c-0.08,0.05-0.17,0.1-0.25,0.15c0.41,0.29,0.82,0.57,1.22,0.86
		c0.17,0.12,0.33,0.26,0.45,0.42c0.16,0.21,0.33,0.22,0.56,0.17c0.63-0.15,1.27-0.27,1.91-0.4c0.49-0.1,0.8,0.16,0.8,0.65
		c0,0.99,0,1.99,0,2.98c0,0.1,0,0.19,0,0.33c0.2,0,0.38,0,0.56,0c1.13,0.01,1.82,0.71,1.82,1.84c0,0.7,0,1.41,0,2.11
		c0,1.08-0.7,1.77-1.79,1.78c-0.19,0-0.37,0-0.59,0c0,0.48,0,0.93,0,1.38c0,0.51-0.14,0.68-0.63,0.78
		c-2.33,0.47-4.65,0.94-6.98,1.41c-0.11,0.02-0.22,0.08-0.3,0.16c-0.39,0.36-0.84,0.54-1.38,0.52c-0.35-0.01-0.71,0-1.06,0
		c-0.45,0-0.84-0.18-1.19-0.46c-0.11-0.09-0.25-0.17-0.39-0.2c-2.26-0.46-4.53-0.92-6.79-1.38c-0.12-0.02-0.25-0.04-0.37-0.07
		c-0.34-0.08-0.5-0.28-0.51-0.64c-0.01-0.42-0.01-0.85,0-1.27c0-0.18-0.06-0.23-0.23-0.23c-0.92-0.03-1.59-0.71-1.6-1.64
		c-0.01-0.8,0-1.61,0-2.41c0-0.91,0.61-1.57,1.52-1.67C2.2,14.86,2.3,14.85,2.42,14.83z M20.81,12.23
		c-0.08,0.01-0.13,0.02-0.17,0.03c-1.89,0.38-3.79,0.77-5.68,1.14c-0.23,0.04-0.31,0.12-0.31,0.36c0.01,2.94,0.01,5.87,0.01,8.81
		c0,0.09,0.01,0.17,0.01,0.26c0.04,0.01,0.06,0.02,0.08,0.02c1.97-0.39,3.93-0.79,5.9-1.18c0.15-0.03,0.19-0.1,0.19-0.24
		c-0.01-0.22-0.01-0.43,0-0.65c0.01-0.14-0.05-0.2-0.18-0.24c-0.81-0.26-1.24-0.84-1.25-1.7c-0.01-0.77,0-1.54,0-2.3
		c0-0.43,0.14-0.84,0.46-1.12c0.28-0.24,0.61-0.42,0.96-0.65C20.81,13.97,20.81,13.12,20.81,12.23z M9.89,22.88
		c0-0.15,0-0.24,0-0.33c0-2.92,0-5.83,0.01-8.75c0-0.25-0.07-0.34-0.32-0.38c-1.51-0.29-3.01-0.6-4.51-0.91
		c-0.47-0.09-0.93-0.18-1.42-0.28c0,0.89,0,1.74,0,2.6c0.09,0.01,0.16,0.02,0.23,0.03c0.91,0.1,1.51,0.68,1.55,1.58
		c0.04,0.87,0.03,1.75,0,2.63c-0.03,0.7-0.5,1.25-1.16,1.45c-0.19,0.06-0.4,0.07-0.64,0.11c0,0.25,0.01,0.5,0,0.75
		c-0.01,0.19,0.06,0.26,0.25,0.3c1.52,0.3,3.05,0.61,4.57,0.91C8.91,22.68,9.38,22.78,9.89,22.88z M10.24,8.75
		C9.89,8.19,9.63,7.61,9.59,6.96C9.55,6.13,9.58,5.29,9.54,4.47C9.5,3.83,9.95,3.52,10.53,3.74c1.19,0.44,2.4,0.83,3.61,1.23
		c0.64,0.21,1.03,0.65,1.2,1.28c0.23,0.82-0.06,1.54-0.42,2.25c-0.04,0.08-0.09,0.16-0.14,0.25c0.56,0,1.08,0.01,1.6,0
		C16.77,8.74,17.04,8.39,17,8c-0.03-0.3-0.21-0.48-0.48-0.61c-0.51-0.25-0.78-0.65-0.81-1.22c-0.01-0.32-0.01-0.63-0.01-0.95
		c-0.01-0.62-0.1-1.22-0.35-1.79c-0.71-1.57-2.33-2.38-3.91-1.94c-1.28,0.35-2.37,1.69-2.48,3.09C8.91,5.13,8.93,5.67,8.9,6.21
		c-0.02,0.52-0.28,0.9-0.74,1.15C8.08,7.41,7.98,7.45,7.9,7.51C7.67,7.66,7.57,7.94,7.63,8.22C7.7,8.49,7.92,8.74,8.19,8.74
		C8.86,8.76,9.54,8.75,10.24,8.75z M11.13,23.1c0.68,0.25,1.34,0.26,2.03,0.07c0.23-0.06,0.3-0.14,0.3-0.37
		c-0.01-2.93-0.01-5.87-0.01-8.8c0-0.09,0-0.17,0-0.32c-0.79,0.28-1.55,0.33-2.32,0.03C11.13,16.88,11.13,20,11.13,23.1z
		 M7.09,11.66c1.66,0.34,3.27,0.67,4.89,0.99c0.14,0.03,0.29,0.04,0.42,0.01c1.21-0.23,2.42-0.48,3.64-0.72
		c0.48-0.1,0.96-0.2,1.47-0.31C14.99,9.45,9.51,9.51,7.09,11.66z M10.79,5.12c0,0.57-0.02,1.08,0,1.59
		c0.02,0.56,0.24,1.05,0.59,1.49c0.43,0.54,1.14,0.74,1.69,0.45c0.72-0.39,1.06-1.03,1.14-1.82c0.04-0.39-0.14-0.6-0.51-0.73
		c-0.43-0.15-0.86-0.29-1.28-0.43C11.88,5.49,11.35,5.31,10.79,5.12z M20.62,17.7c0,0.39-0.01,0.78,0,1.16
		c0.01,0.31,0.18,0.5,0.48,0.5c0.53,0.01,1.07,0.01,1.6,0c0.28,0,0.48-0.17,0.48-0.45c0.01-0.79,0.01-1.59,0-2.38
		c-0.01-0.3-0.19-0.46-0.49-0.46c-0.52-0.01-1.05-0.01-1.57,0c-0.32,0.01-0.49,0.19-0.5,0.51C20.61,16.96,20.62,17.33,20.62,17.7z
		 M1.81,17.73C1.81,17.73,1.81,17.73,1.81,17.73c0,0.4-0.01,0.79,0,1.19c0.01,0.3,0.16,0.45,0.46,0.45c0.49,0.01,0.98,0.01,1.46,0
		c0.32,0,0.48-0.17,0.48-0.49c0-0.77,0-1.53,0-2.3c0-0.34-0.16-0.5-0.5-0.5c-0.47-0.01-0.94-0.01-1.41,0c-0.36,0-0.5,0.15-0.51,0.52
		C1.81,16.97,1.81,17.35,1.81,17.73z"/>
	<path class="st16" d="M20.81,12.23c0,0.89,0,1.74,0,2.52c-0.35,0.23-0.68,0.41-0.96,0.65c-0.32,0.29-0.46,0.69-0.46,1.12
		c0,0.77-0.01,1.54,0,2.3c0.01,0.85,0.44,1.44,1.25,1.7c0.14,0.04,0.19,0.1,0.18,0.24c-0.01,0.22-0.01,0.43,0,0.65
		c0,0.14-0.04,0.21-0.19,0.24c-1.97,0.39-3.93,0.79-5.9,1.18c-0.02,0-0.03-0.01-0.08-0.02c0-0.08-0.01-0.17-0.01-0.26
		c0-2.94,0-5.87-0.01-8.81c0-0.24,0.08-0.32,0.31-0.36c1.9-0.37,3.79-0.76,5.68-1.14C20.68,12.25,20.72,12.24,20.81,12.23z"/>
	<path class="st16" d="M9.89,22.88c-0.51-0.11-0.98-0.2-1.44-0.3c-1.52-0.31-3.04-0.62-4.57-0.91c-0.19-0.04-0.26-0.1-0.25-0.3
		c0.02-0.25,0-0.5,0-0.75c0.23-0.04,0.44-0.05,0.64-0.11c0.66-0.2,1.13-0.75,1.16-1.45c0.03-0.87,0.04-1.75,0-2.63
		c-0.04-0.9-0.64-1.48-1.55-1.58c-0.07-0.01-0.14-0.02-0.23-0.03c0-0.86,0-1.71,0-2.6c0.48,0.1,0.95,0.19,1.42,0.28
		c1.5,0.3,3.01,0.62,4.51,0.91c0.24,0.05,0.32,0.13,0.32,0.38c-0.01,2.92-0.01,5.83-0.01,8.75C9.89,22.64,9.89,22.73,9.89,22.88z"/>
	<path class="st11" d="M10.24,8.75c-0.71,0-1.38,0.01-2.06-0.01C7.92,8.74,7.7,8.49,7.63,8.22C7.57,7.94,7.67,7.66,7.9,7.51
		c0.08-0.06,0.17-0.09,0.26-0.14C8.62,7.11,8.88,6.74,8.9,6.21c0.02-0.54,0-1.09,0.05-1.62c0.12-1.4,1.2-2.74,2.48-3.09
		c1.58-0.44,3.2,0.37,3.91,1.94c0.26,0.57,0.35,1.17,0.35,1.79c0,0.32,0,0.63,0.01,0.95c0.03,0.56,0.3,0.97,0.81,1.22
		C16.78,7.52,16.97,7.7,17,8c0.04,0.39-0.23,0.74-0.61,0.75c-0.52,0.02-1.05,0-1.6,0c0.05-0.09,0.1-0.17,0.14-0.25
		c0.37-0.71,0.65-1.44,0.42-2.25c-0.18-0.63-0.56-1.07-1.2-1.28c-1.21-0.4-2.42-0.79-3.61-1.23C9.95,3.52,9.5,3.83,9.54,4.47
		c0.05,0.83,0.01,1.66,0.06,2.49C9.63,7.61,9.89,8.19,10.24,8.75z"/>
	<path class="st11" d="M11.13,23.1c0-3.1,0-6.21,0-9.38c0.77,0.3,1.53,0.24,2.32-0.03c0,0.14,0,0.23,0,0.32c0,2.93,0,5.87,0.01,8.8
		c0,0.23-0.07,0.31-0.3,0.37C12.47,23.36,11.81,23.34,11.13,23.1z"/>
	<path class="st10" d="M7.09,11.66c2.42-2.15,7.9-2.22,10.41-0.03c-0.5,0.11-0.98,0.21-1.47,0.31c-1.21,0.24-2.42,0.49-3.64,0.72
		c-0.14,0.03-0.29,0.02-0.42-0.01C10.36,12.33,8.74,12,7.09,11.66z"/>
	<path class="st1" d="M10.79,5.12c0.56,0.19,1.09,0.37,1.62,0.55c0.43,0.14,0.86,0.28,1.28,0.43c0.38,0.13,0.55,0.33,0.51,0.73
		c-0.07,0.79-0.41,1.44-1.14,1.82c-0.55,0.29-1.25,0.09-1.69-0.45c-0.35-0.43-0.56-0.93-0.59-1.49C10.77,6.2,10.79,5.69,10.79,5.12z
		"/>
	<path class="st1" d="M20.62,17.7c0-0.37-0.01-0.74,0-1.11c0.01-0.33,0.18-0.51,0.5-0.51c0.52-0.01,1.05-0.01,1.57,0
		c0.3,0,0.49,0.16,0.49,0.46c0.01,0.79,0.01,1.59,0,2.38c0,0.28-0.2,0.44-0.48,0.45c-0.53,0.01-1.07,0.01-1.6,0
		c-0.3-0.01-0.48-0.19-0.48-0.5C20.61,18.48,20.62,18.09,20.62,17.7z"/>
	<path class="st1" d="M1.81,17.73c0-0.38,0-0.76,0-1.14c0-0.37,0.15-0.51,0.51-0.52c0.47-0.01,0.94-0.01,1.41,0
		c0.34,0,0.49,0.16,0.5,0.5c0,0.77,0,1.53,0,2.3c0,0.32-0.17,0.48-0.48,0.49c-0.49,0.01-0.98,0.01-1.46,0
		c-0.3,0-0.45-0.15-0.46-0.45C1.8,18.52,1.81,18.12,1.81,17.73C1.81,17.73,1.81,17.73,1.81,17.73z"/>
</g>
</svg>
