<?xml version="1.0" encoding="utf-8"?>
<!-- Generator: Adobe Illustrator 24.0.1, SVG Export Plug-In . SVG Version: 6.00 Build 0)  -->
<svg version="1.1" id="Layer_1" xmlns="http://www.w3.org/2000/svg" xmlns:xlink="http://www.w3.org/1999/xlink" x="0px" y="0px"
	 viewBox="0 0 25 25" style="enable-background:new 0 0 25 25;" xml:space="preserve">
<style type="text/css">
	.st0{fill:#C7E0D1;}
	.st1{fill:#E6F1EA;}
	.st2{fill:#FAAF40;}
	.st3{fill:#E9DD7F;}
	.st4{fill:#03675F;}
	.st5{fill:#FFFFFF;}
	.st6{fill:none;}
	.st7{fill:none;stroke:#231F20;stroke-width:2;stroke-linecap:round;stroke-miterlimit:10;}
	.st8{fill:none;stroke:#03675F;stroke-width:2;stroke-linecap:round;stroke-linejoin:round;stroke-miterlimit:10;}
	.st9{fill:#6AB98B;}
	.st10{fill:#73C7E2;}
	.st11{fill:#29B473;}
	.st12{fill:#005E99;}
	.st13{fill:#ADDCF6;}
	.st14{fill:#EF535F;}
	.st15{fill:#006892;}
	.st16{fill:#97D2B2;}
	.st17{fill:#F7AEAB;}
</style>
<g>
	<g>
		<path class="st12" d="M14.77,24.54c-1.13,0-2.37-0.12-3.61-0.53c-1.2-0.4-2.19-1.06-2.92-1.96c-0.24-0.3-0.3-0.61-0.19-0.96
			c0.31-0.99,0.51-1.99,0.59-2.97c0.05-0.67-0.05-1.18-0.33-1.65c-0.51-0.86-0.87-1.85-1.06-2.94c-0.73-0.08-0.97-0.61-1.07-1.09
			c-0.73-0.34-0.97-0.78-0.97-1.66c0-0.07,0-0.15,0-0.22c0-0.18-0.01-0.38,0.01-0.57c0.04-0.31-0.06-0.56-0.35-0.88
			C4.1,8.24,3.72,7.17,3.81,6.06C3.9,4.95,4.43,3.94,5.32,3.22c0.97-0.79,2.3-1.07,3.54-0.75c1.24,0.32,2.23,1.2,2.72,2.42
			c0.97-0.41,1.98-0.61,3.03-0.61c0.01,0,0.01,0,0.02,0c1.83,0,3.34,0.42,4.61,1.26c2.02,1.34,2.98,3.27,2.87,5.75
			c-0.01,0.29-0.04,0.58-0.07,0.85c-0.04,0.42-0.08,0.81-0.07,1.2c0.01,0.38,0.15,0.79,0.27,1.11c0.15,0.38,0.33,0.74,0.52,1.13
			c0.07,0.15,0.15,0.3,0.22,0.44c0.22,0.46,0.23,0.91,0.03,1.26c-0.19,0.33-0.55,0.53-1.01,0.58c0,0.03,0,0.05,0,0.08
			c0,0.24,0,0.58-0.23,0.86c0.01,0.41-0.13,0.78-0.43,1.1l0,0.01c0.01,0.03,0.02,0.07,0.03,0.1c0.02,0.06,0.03,0.11,0.05,0.17
			c0.22,1-0.2,1.74-1.18,2.07c-0.78,0.27-1.55,0.22-2.3,0.17l-0.13-0.01c-0.06,0-0.12-0.01-0.18-0.02c-0.04,0-0.08-0.01-0.11-0.01
			c-0.05,0-0.08-0.01-0.11-0.01c0,0.02-0.01,0.04-0.01,0.06c-0.06,0.33-0.06,0.68-0.07,1.05l0,0.08c0,0.4-0.09,0.81-0.74,0.87
			C16.03,24.5,15.42,24.54,14.77,24.54z M9.49,21.3c0,0,0.01,0.02,0.03,0.04c0.57,0.6,1.26,1.03,2.09,1.31
			c1.42,0.47,2.93,0.48,4.21,0.43c0,0,0.01,0,0.01,0c0-0.01,0-0.01,0-0.02c0-0.58,0.09-1.31,0.69-1.89
			c0.16-0.15,0.41-0.26,0.64-0.27c0.15-0.01,0.28,0.02,0.39,0.04c0.07,0.01,0.15,0.03,0.2,0.03l0.17,0c0.57,0,1.17,0,1.74-0.03
			c0.06,0,0.24-0.03,0.29-0.2c0.03-0.1,0.02-0.25-0.02-0.41c-0.05-0.19-0.17-0.66,0.07-1.12c-0.21-0.1-0.33-0.29-0.36-0.57
			c-0.03-0.27,0.07-0.44,0.16-0.54c0.21-0.24,0.54-0.25,0.72-0.26c0.01,0,0.02,0,0.03,0c0-0.02,0.01-0.05,0.01-0.09
			c0.01-0.84,0.25-1.15,1.03-1.28l-0.07-0.14c-0.18-0.4-0.37-0.8-0.57-1.19c-0.32-0.61-0.47-1.26-0.45-1.96
			c0.01-0.39,0.03-0.91,0.11-1.42c0.36-2.19-0.57-4.15-2.5-5.23c-0.73-0.41-1.57-0.66-2.57-0.77c-1.34-0.14-2.55,0.05-3.67,0.58
			c-0.02,0.41-0.05,0.73-0.12,1.02c-0.16,0.69-0.48,1.29-0.95,1.76c-0.26,0.26-0.36,0.51-0.33,0.84c0.03,0.27,0.02,0.54,0.01,0.8
			l-0.01,0.23c-0.01,0.69-0.33,1.18-0.95,1.45c-0.06,0.39-0.27,0.81-0.83,1.03c0.17,0.85,0.48,1.66,0.95,2.46
			c0.27,0.46,0.41,0.95,0.43,1.48c0.05,1.4-0.26,2.73-0.57,3.84C9.49,21.27,9.49,21.29,9.49,21.3z M8.82,11.89l0.01,0.05
			c0.01-0.02,0.03-0.03,0.04-0.05C8.85,11.89,8.84,11.89,8.82,11.89z M5.98,9.42c0,0.01,0.01,0.02,0.01,0.04
			C6,9.45,6.01,9.45,6.02,9.44C6.01,9.43,5.99,9.43,5.98,9.42z M6.37,8.67c0.06,0,0.13,0,0.19,0V7.49C5.58,7.27,5.37,6.68,5.37,6.19
			c0-0.68,0.56-1.29,1.2-1.32c0.27-0.01,0.57,0.07,0.84,0.22c0.23,0.13,0.38,0.3,0.47,0.49C8.07,5.17,8.4,4.85,8.99,4.85
			c0,0,0,0,0,0c0.67,0,1.25,0.53,1.29,1.18c0.02,0.29-0.05,0.6-0.18,0.84C9.91,7.25,9.59,7.46,9.14,7.52v1.12
			c0.22,0.01,0.3-0.05,0.37-0.2C9.56,8.32,9.64,8.25,9.69,8.2l0.03-0.03c0.87-0.92,0.97-2.29,0.23-3.32
			C9.21,3.83,7.86,3.5,6.67,4.06C5.62,4.54,5.04,5.83,5.32,7.04c0.11,0.46,0.4,0.82,0.71,1.2C6.14,8.38,6.26,8.52,6.37,8.67z
			 M8.99,6.05L8.99,6.05L8.99,6.05z"/>
	</g>
	<g>
		<path class="st12" d="M4.34,3.57C4.23,3.5,4.14,3.47,4.07,3.4C3.82,3.16,3.58,2.91,3.33,2.67c-0.14-0.14-0.19-0.3-0.04-0.46
			c0.15-0.15,0.32-0.13,0.47,0.01C4.03,2.48,4.3,2.74,4.55,3.03C4.61,3.1,4.63,3.26,4.59,3.36C4.56,3.45,4.43,3.5,4.34,3.57z"/>
	</g>
	<g>
		<path class="st12" d="M2.74,6.07c0.18,0,0.37-0.01,0.55,0c0.19,0.01,0.34,0.12,0.3,0.3c-0.02,0.12-0.17,0.29-0.28,0.3
			c-0.39,0.04-0.79,0.03-1.18,0c-0.1-0.01-0.25-0.18-0.27-0.3c-0.04-0.19,0.12-0.29,0.3-0.3C2.36,6.06,2.55,6.07,2.74,6.07z"/>
	</g>
	<g>
		<path class="st12" d="M11.36,3.54c-0.28-0.01-0.43-0.28-0.26-0.48c0.27-0.31,0.57-0.61,0.88-0.88c0.07-0.06,0.29-0.04,0.38,0.03
			c0.07,0.06,0.11,0.29,0.05,0.35c-0.28,0.33-0.6,0.63-0.91,0.93C11.47,3.53,11.4,3.53,11.36,3.54z"/>
	</g>
	<g>
		<path class="st12" d="M3.49,10.65c-0.08-0.06-0.2-0.1-0.23-0.18c-0.04-0.09-0.04-0.25,0.01-0.31c0.28-0.31,0.57-0.61,0.88-0.88
			c0.08-0.06,0.31-0.03,0.4,0.04c0.07,0.06,0.07,0.3,0.01,0.37C4.3,10,4.01,10.27,3.73,10.54C3.67,10.59,3.59,10.61,3.49,10.65z"/>
	</g>
	<g>
		<path class="st12" d="M7.54,1.31c0-0.19-0.04-0.4,0.01-0.58c0.03-0.12,0.18-0.28,0.28-0.28c0.1,0,0.29,0.16,0.3,0.26
			c0.04,0.4,0.04,0.81,0,1.21C8.12,2.04,7.94,2.2,7.84,2.2c-0.1,0-0.25-0.16-0.28-0.28C7.5,1.73,7.54,1.52,7.54,1.31z"/>
	</g>
	<g>
		<path class="st1" d="M8.22,13.17c0.56-0.09,0.87-0.37,0.9-0.93c0-0.05,0.1-0.12,0.17-0.15c0.51-0.2,0.76-0.55,0.77-1.11
			c0.01-0.33,0.03-0.66,0-0.99c-0.05-0.47,0.12-0.84,0.45-1.17c0.43-0.43,0.71-0.97,0.84-1.56c0.07-0.32,0.1-0.65,0.11-0.98
			c0.01-0.16,0.06-0.24,0.2-0.31c1.25-0.6,2.56-0.78,3.93-0.63c0.96,0.1,1.88,0.34,2.73,0.82c2.08,1.17,3.1,3.3,2.71,5.65
			c-0.07,0.45-0.1,0.9-0.11,1.36c-0.01,0.62,0.12,1.21,0.41,1.76c0.26,0.5,0.49,1.01,0.73,1.52c0.14,0.29,0.1,0.35-0.22,0.38
			c-0.71,0.08-0.83,0.2-0.85,0.9c-0.01,0.32-0.09,0.48-0.43,0.5c-0.23,0.01-0.52,0.03-0.49,0.36c0.03,0.34,0.32,0.29,0.56,0.28
			c0.03,0,0.05,0.02,0.12,0.04c-0.04,0.07-0.06,0.14-0.11,0.18c-0.39,0.3-0.41,0.68-0.3,1.12c0.05,0.2,0.07,0.43,0.02,0.62
			c-0.09,0.31-0.36,0.48-0.66,0.5c-0.64,0.04-1.29,0.03-1.93,0.03c-0.19,0-0.38-0.07-0.57-0.06c-0.13,0.01-0.28,0.07-0.38,0.15
			c-0.45,0.43-0.56,1-0.56,1.59c0,0.41,0,0.41-0.41,0.43c-1.47,0.06-2.94,0.02-4.36-0.45c-0.87-0.29-1.63-0.75-2.26-1.42
			c-0.14-0.15-0.18-0.28-0.12-0.49c0.34-1.21,0.61-2.44,0.56-3.71c-0.02-0.46-0.14-0.89-0.38-1.29C8.76,15.22,8.39,14.24,8.22,13.17
			z M17.35,14.48c0.11-0.07,0.21-0.12,0.28-0.19c0.18-0.16,0.35-0.34,0.52-0.51c0.4-0.4,0.41-0.45,0.12-0.94
			c-0.02-0.03-0.04-0.07-0.06-0.1c-0.22-0.37-0.1-0.67,0.32-0.79c0.13-0.04,0.26-0.08,0.39-0.11c0.21-0.05,0.3-0.19,0.3-0.4
			c0-0.29,0-0.58,0-0.87c0-0.41-0.07-0.49-0.47-0.6c-0.08-0.02-0.17-0.04-0.25-0.06c-0.34-0.08-0.49-0.4-0.33-0.72
			c0.38-0.75,0.51-0.58-0.19-1.28c-0.65-0.64-0.47-0.61-1.27-0.17c-0.26,0.14-0.59,0.01-0.68-0.27c-0.26-0.87-0.14-0.8-1.08-0.8
			c-0.81,0-0.81,0-1,0.78c-0.07,0.29-0.39,0.44-0.66,0.3c-0.77-0.38-0.77-0.38-1.37,0.21c-0.53,0.52-0.53,0.52-0.16,1.17
			c0.21,0.38,0.08,0.68-0.34,0.79c-0.12,0.03-0.24,0.06-0.36,0.1c-0.21,0.06-0.32,0.2-0.31,0.43c0.01,0.33,0.01,0.66,0,0.99
			c-0.01,0.22,0.1,0.34,0.3,0.41c0.12,0.04,0.24,0.07,0.37,0.09c0.43,0.1,0.57,0.41,0.35,0.78c-0.07,0.13-0.14,0.25-0.21,0.38
			c-0.1,0.19-0.07,0.35,0.08,0.5c0.18,0.18,0.35,0.36,0.53,0.53c0.38,0.38,0.42,0.38,0.89,0.11c0.04-0.02,0.08-0.05,0.12-0.08
			c0.37-0.23,0.68-0.1,0.79,0.31c0.03,0.1,0.06,0.2,0.08,0.31c0.06,0.29,0.22,0.44,0.53,0.41c0.16-0.02,0.33,0,0.49,0
			c0.74,0,0.74,0,0.92-0.72c0.1-0.4,0.43-0.53,0.8-0.31C16.97,14.27,17.16,14.37,17.35,14.48z"/>
	</g>
	<g>
		<path class="st10" d="M6.97,7.14c0,0.64,0,1.27,0,1.93c-0.25,0-0.5,0-0.75,0c-0.03,0-0.08-0.02-0.1-0.05
			C5.7,8.41,5.11,7.92,4.93,7.13C4.6,5.74,5.25,4.26,6.5,3.69c1.38-0.64,2.93-0.26,3.78,0.93c0.85,1.19,0.74,2.77-0.27,3.84
			C9.96,8.51,9.9,8.55,9.88,8.61C9.63,9.12,9.19,9.07,8.73,9.01c0-0.62,0-1.23,0-1.89c0.41,0.03,0.81-0.03,1.02-0.43
			c0.1-0.18,0.15-0.42,0.13-0.63C9.85,5.61,9.44,5.26,9,5.26c-0.54,0-0.8,0.33-0.95,1.2c-0.13,0-0.26,0-0.42,0
			c0-0.4-0.03-0.81-0.42-1.02c-0.18-0.1-0.42-0.17-0.62-0.17C6.15,5.3,5.77,5.75,5.77,6.19C5.77,6.74,6.16,7.05,6.97,7.14z"/>
	</g>
	<g>
		<path class="st16" d="M9.44,9.7c0,0.18,0,0.35,0,0.54c-1.06,0-2.11,0-3.17,0c-0.01-0.04-0.03-0.08-0.03-0.11
			C6.22,9.71,6.22,9.7,6.63,9.7C7.55,9.7,8.48,9.7,9.44,9.7z"/>
	</g>
	<g>
		<path class="st16" d="M9.43,10.9c0.02,0.41-0.13,0.58-0.5,0.58c-0.72,0-1.45,0-2.17,0c-0.38,0-0.53-0.17-0.49-0.58
			C7.32,10.9,8.37,10.9,9.43,10.9z"/>
	</g>
	<g>
		<path class="st10" d="M7.64,7.14c0.15,0,0.28,0,0.44,0c0,0.6,0.01,1.19,0,1.78c0,0.16-0.1,0.18-0.44,0.11
			C7.64,8.4,7.64,7.78,7.64,7.14z"/>
	</g>
	<g>
		<path class="st16" d="M7.21,12.12c0.43,0,0.84,0,1.24,0c0.06,0.31,0.01,0.38-0.28,0.39c-0.22,0.01-0.44,0-0.67,0
			C7.25,12.52,7.16,12.39,7.21,12.12z"/>
	</g>
	<g>
		<path class="st10" d="M6.96,6.46C6.57,6.5,6.41,6.43,6.41,6.21c0-0.2,0.12-0.3,0.31-0.3C6.93,5.9,7.01,6.09,6.96,6.46z"/>
	</g>
	<g>
		<path class="st10" d="M8.74,6.47C8.69,6.09,8.76,5.91,8.97,5.9C9.16,5.9,9.28,6.01,9.29,6.2C9.29,6.41,9.12,6.49,8.74,6.47z"/>
	</g>
	<g>
		<path class="st12" d="M17.35,14.48c-0.19-0.11-0.38-0.2-0.56-0.31c-0.37-0.22-0.7-0.1-0.8,0.31c-0.18,0.72-0.18,0.72-0.92,0.72
			c-0.16,0-0.33-0.01-0.49,0c-0.31,0.03-0.47-0.12-0.53-0.41c-0.02-0.1-0.06-0.2-0.08-0.31c-0.11-0.41-0.42-0.54-0.79-0.31
			c-0.04,0.03-0.08,0.05-0.12,0.08c-0.47,0.28-0.51,0.27-0.89-0.11c-0.18-0.18-0.35-0.36-0.53-0.53c-0.15-0.15-0.18-0.32-0.08-0.5
			c0.07-0.13,0.13-0.26,0.21-0.38c0.21-0.37,0.07-0.68-0.35-0.78c-0.12-0.03-0.25-0.05-0.37-0.09c-0.19-0.06-0.3-0.19-0.3-0.41
			c0.01-0.33,0.01-0.66,0-0.99c-0.01-0.23,0.1-0.36,0.31-0.43c0.12-0.04,0.24-0.07,0.36-0.1c0.42-0.11,0.55-0.41,0.34-0.79
			c-0.36-0.65-0.36-0.65,0.16-1.17c0.6-0.59,0.6-0.59,1.37-0.21c0.27,0.14,0.59-0.01,0.66-0.3c0.19-0.78,0.19-0.78,1-0.78
			c0.94,0,0.81-0.07,1.08,0.8c0.09,0.29,0.41,0.42,0.68,0.27c0.81-0.44,0.62-0.47,1.27,0.17c0.71,0.69,0.57,0.52,0.19,1.28
			C18.01,9.5,18.16,9.82,18.5,9.9c0.08,0.02,0.17,0.04,0.25,0.06c0.41,0.11,0.47,0.19,0.47,0.6c0,0.29,0,0.58,0,0.87
			c0,0.21-0.1,0.35-0.3,0.4c-0.13,0.03-0.26,0.08-0.39,0.11c-0.42,0.12-0.55,0.42-0.32,0.79c0.02,0.03,0.04,0.07,0.06,0.1
			c0.29,0.49,0.28,0.54-0.12,0.94c-0.17,0.17-0.34,0.34-0.52,0.51C17.56,14.36,17.46,14.4,17.35,14.48z M12.61,8.08
			c-0.06,0.09-0.11,0.19-0.19,0.25c-0.24,0.18-0.23,0.35-0.08,0.58c0.1,0.15,0.19,0.34,0.19,0.5c-0.02,0.53-0.38,0.97-0.89,1.07
			c-0.27,0.06-0.3,0.19-0.3,0.42c0,0.24,0.03,0.39,0.31,0.45c0.2,0.04,0.48,0.13,0.57,0.29c0.23,0.44,0.5,0.91,0.06,1.41
			c-0.25,0.29,0.13,0.38,0.23,0.55c0.11,0.18,0.22,0.09,0.36,0.02c0.2-0.1,0.44-0.28,0.62-0.24c0.49,0.11,1.02,0.25,1.06,0.91
			c0.01,0.2,0.11,0.3,0.32,0.26c0.2-0.04,0.48,0.1,0.52-0.28c0.03-0.26,0.1-0.53,0.39-0.67c0.49-0.24,0.96-0.36,1.41,0.07
			c0.03,0.02,0.07,0.03,0.09,0.05c0.51-0.42,0.51-0.42,0.22-0.94c-0.12-0.2-0.13-0.4-0.02-0.6c0.05-0.09,0.1-0.19,0.12-0.3
			c0.06-0.3,0.23-0.43,0.52-0.5c0.49-0.11,0.49-0.12,0.45-0.63c-0.01-0.08-0.09-0.2-0.16-0.21c-0.49-0.07-0.82-0.29-0.9-0.81
			c0-0.03-0.04-0.05-0.04-0.08c0-0.19-0.01-0.39,0.03-0.57c0.03-0.13,0.13-0.23,0.19-0.36c0.02-0.05,0.03-0.14,0.01-0.18
			c-0.18-0.35-0.43-0.41-0.77-0.22c-0.03,0.02-0.07,0.04-0.1,0.05c-0.27,0.14-1.09-0.04-1.27-0.29c-0.04-0.05-0.06-0.12-0.08-0.19
			c-0.04-0.12-0.09-0.24-0.1-0.36c-0.02-0.32-0.25-0.24-0.45-0.25c-0.19-0.01-0.36-0.03-0.39,0.25c-0.04,0.42-0.27,0.67-0.69,0.82
			c-0.34,0.12-0.62,0.18-0.9-0.08C12.89,8.22,12.79,8.18,12.61,8.08z"/>
	</g>
	<g>
		<path class="st11" d="M12.61,8.08c0.17,0.1,0.28,0.13,0.35,0.2c0.29,0.25,0.56,0.2,0.9,0.08c0.42-0.15,0.65-0.4,0.69-0.82
			c0.03-0.28,0.2-0.26,0.39-0.25c0.19,0.01,0.42-0.07,0.45,0.25c0.01,0.12,0.06,0.24,0.1,0.36c0.02,0.06,0.04,0.13,0.08,0.19
			c0.17,0.25,1,0.43,1.27,0.29c0.03-0.02,0.07-0.04,0.1-0.05c0.35-0.19,0.59-0.13,0.77,0.22c0.03,0.05,0.02,0.13-0.01,0.18
			c-0.05,0.12-0.16,0.23-0.19,0.36c-0.04,0.19-0.02,0.38-0.03,0.57c0,0.03,0.03,0.05,0.04,0.08c0.08,0.52,0.41,0.74,0.9,0.81
			c0.06,0.01,0.15,0.14,0.16,0.21c0.04,0.51,0.04,0.52-0.45,0.63c-0.29,0.06-0.47,0.2-0.52,0.5c-0.02,0.1-0.07,0.2-0.12,0.3
			c-0.11,0.21-0.1,0.4,0.02,0.6c0.29,0.52,0.29,0.52-0.22,0.94c-0.03-0.01-0.07-0.02-0.09-0.05c-0.45-0.43-0.92-0.3-1.41-0.07
			c-0.29,0.14-0.36,0.41-0.39,0.67c-0.05,0.38-0.32,0.24-0.52,0.28c-0.21,0.04-0.31-0.05-0.32-0.26c-0.04-0.67-0.57-0.8-1.06-0.91
			c-0.18-0.04-0.42,0.13-0.62,0.24c-0.14,0.07-0.25,0.16-0.36-0.02c-0.1-0.17-0.48-0.26-0.23-0.55c0.44-0.5,0.17-0.97-0.06-1.41
			c-0.08-0.15-0.36-0.25-0.57-0.29c-0.28-0.06-0.31-0.21-0.31-0.45c0-0.23,0.03-0.36,0.3-0.42c0.51-0.11,0.87-0.55,0.89-1.07
			c0-0.17-0.09-0.35-0.19-0.5c-0.15-0.23-0.16-0.41,0.08-0.58C12.51,8.28,12.55,8.17,12.61,8.08z M17.05,10.96
			c0.01-1.16-0.91-2.1-2.06-2.1c-1.13,0-2.08,0.93-2.08,2.05c-0.01,1.16,0.91,2.1,2.06,2.1C16.12,13.01,17.04,12.1,17.05,10.96z"/>
	</g>
	<g>
		<path class="st12" d="M17.05,10.96c-0.01,1.14-0.93,2.05-2.08,2.05c-1.15,0-2.07-0.94-2.06-2.1c0.01-1.13,0.95-2.05,2.08-2.05
			C16.14,8.86,17.05,9.8,17.05,10.96z M13.53,10.92c0,0.81,0.64,1.47,1.44,1.48c0.78,0,1.44-0.65,1.46-1.44
			c0.01-0.81-0.63-1.46-1.44-1.47C14.18,9.49,13.54,10.12,13.53,10.92z"/>
	</g>
	<g>
		<path class="st1" d="M13.53,10.92c0-0.8,0.64-1.42,1.45-1.42c0.81,0,1.46,0.66,1.44,1.47c-0.01,0.78-0.68,1.44-1.46,1.44
			C14.17,12.39,13.53,11.73,13.53,10.92z"/>
	</g>
</g>
</svg>
