<svg id="Layer_1" data-name="Layer 1" xmlns="http://www.w3.org/2000/svg" viewBox="0 0 25 25"><defs><style>.cls-1{fill:#51CAE7;}.cls-2{fill:#00B76D;}.cls-3{fill:none;}.cls-4{fill:#006892;}.cls-5{fill:#e6f1ea;}</style></defs><title>Inonite _export_25px</title><rect class="cls-1" x="0.5" y="6.57" width="18.61" height="13.53"/><path class="cls-2" d="M23.59,1.61H12.34a1,1,0,0,0-1,1v9a1,1,0,0,0,1,1h3.44l0,2.42,2.84-2.42h4.93a1,1,0,0,0,1-1v-9A1,1,0,0,0,23.59,1.61Z"/><path class="cls-3" d="M23.59,2H12.34a.61.61,0,0,0-.61.61v9a.61.61,0,0,0,.61.61h3.83l0,2,2.31-2h5.07a.61.61,0,0,0,.61-.61v-9A.61.61,0,0,0,23.59,2Zm-5.22,8.21a.65.65,0,0,1-.46.18.71.71,0,0,1-.47-.17.61.61,0,0,1-.21-.5.67.67,0,0,1,.68-.66.61.61,0,0,1,.47.19.64.64,0,0,1,.19.47A.59.59,0,0,1,18.37,10.22ZM20,6.1a2,2,0,0,1-.37.49c-.14.14-.39.37-.76.7a2.69,2.69,0,0,0-.24.24,1,1,0,0,0-.14.19.64.64,0,0,0-.06.18,2.27,2.27,0,0,0-.08.3.49.49,0,0,1-.53.46.56.56,0,0,1-.39-.15.61.61,0,0,1-.16-.45,1.64,1.64,0,0,1,.12-.65,1.72,1.72,0,0,1,.31-.48,6.27,6.27,0,0,1,.51-.49l.42-.38a1.46,1.46,0,0,0,.21-.28A.67.67,0,0,0,19,5.44a.77.77,0,0,0-.27-.6A1,1,0,0,0,18,4.59a1,1,0,0,0-.72.25,2,2,0,0,0-.4.73c-.1.34-.29.5-.57.5a.54.54,0,0,1-.42-.17.53.53,0,0,1-.17-.38A1.63,1.63,0,0,1,16,4.66a2.05,2.05,0,0,1,.79-.72A2.5,2.5,0,0,1,18,3.65a2.58,2.58,0,0,1,1.14.24,1.87,1.87,0,0,1,.76.65,1.58,1.58,0,0,1,.27.89A1.41,1.41,0,0,1,20,6.1Z"/><path class="cls-4" d="M10.34,18.15h-.23c-2.21,0-4.42,0-6.64,0-.19,0-.24-.06-.24-.25a2.87,2.87,0,0,1,2-2.81.34.34,0,0,1,.42.09c.37.4.76.79,1.16,1.19L7,16.14l1-1a.28.28,0,0,1,.33-.09,2.86,2.86,0,0,1,2,2.67Z"/><path class="cls-4" d="M8.92,12.07A2.13,2.13,0,1,1,6.73,10,2.14,2.14,0,0,1,8.92,12.07Z"/><path class="cls-4" d="M4.31,10.73a1.09,1.09,0,0,1-.72-1.12,1.14,1.14,0,0,1,2.19-.34c0,.1.07.18-.07.24a2.75,2.75,0,0,0-1.36,1.18S4.32,10.72,4.31,10.73Z"/><path class="cls-4" d="M17.07,21.8c-.11-.24-.18-.38-.23-.47H15.23c.37.74.71,1.43,1.06,2.1a.71.71,0,0,0,1.26-.64C17.4,22.45,17.22,22.13,17.07,21.8Z"/><path class="cls-4" d="M2.06,22.77a.71.71,0,0,0,.32.94.69.69,0,0,0,.93-.28c.36-.68.69-1.37,1.06-2.1H2.82S2.28,22.32,2.06,22.77Z"/><path class="cls-4" d="M23.59,1.21H12.34a1.41,1.41,0,0,0-1.41,1.41v9A1.41,1.41,0,0,0,12.34,13h3.05l0,2.88L18.81,13h4.78A1.41,1.41,0,0,0,25,11.58v-9A1.41,1.41,0,0,0,23.59,1.21Zm.61,10.37a.61.61,0,0,1-.61.61H18.52l-2.31,2,0-2H12.34a.61.61,0,0,1-.61-.61v-9A.61.61,0,0,1,12.34,2H23.59a.61.61,0,0,1,.61.61Z"/><path class="cls-4" d="M18.61,19.43a.18.18,0,0,1-.18.17H1.17A.18.18,0,0,1,1,19.43V7.24a.18.18,0,0,1,.17-.17H10v-1H7.53L9.14,4.8a.4.4,0,0,0,.06-.56.41.41,0,0,0-.56-.07l-2.4,1.9h0l-4-2.79a.4.4,0,0,0-.56.1.4.4,0,0,0,.1.55L4.83,6.07H1.17A1.17,1.17,0,0,0,0,7.24V19.43A1.18,1.18,0,0,0,1.17,20.6H18.43a1.17,1.17,0,0,0,1.17-1.17v-5h-1Z"/><path class="cls-5" d="M17.91,9.07a.67.67,0,0,0-.68.66.61.61,0,0,0,.21.5.71.71,0,0,0,.47.17.65.65,0,0,0,.46-.18.59.59,0,0,0,.2-.49.64.64,0,0,0-.19-.47A.61.61,0,0,0,17.91,9.07Z"/><path class="cls-5" d="M19.16,3.89A2.58,2.58,0,0,0,18,3.65a2.5,2.5,0,0,0-1.22.29,2.05,2.05,0,0,0-.79.72,1.63,1.63,0,0,0-.27.86.53.53,0,0,0,.17.38.54.54,0,0,0,.42.17c.28,0,.47-.16.57-.5a2,2,0,0,1,.4-.73A1,1,0,0,1,18,4.59a1,1,0,0,1,.68.25.77.77,0,0,1,.27.6.67.67,0,0,1-.09.34,1.46,1.46,0,0,1-.21.28l-.42.38a6.27,6.27,0,0,0-.51.49,1.72,1.72,0,0,0-.31.48,1.64,1.64,0,0,0-.12.65.61.61,0,0,0,.16.45.56.56,0,0,0,.39.15.49.49,0,0,0,.53-.46,2.27,2.27,0,0,1,.08-.3.64.64,0,0,1,.06-.18,1,1,0,0,1,.14-.19,2.69,2.69,0,0,1,.24-.24c.37-.33.62-.56.76-.7A2,2,0,0,0,20,6.1a1.41,1.41,0,0,0,.15-.67,1.58,1.58,0,0,0-.27-.89A1.87,1.87,0,0,0,19.16,3.89Z"/></svg>